<svg width="155" height="76" viewBox="0 0 155 76" fill="none" xmlns="http://www.w3.org/2000/svg">
<path d="M29.0058 28.9288C28.7516 29.4777 28.4583 30.3208 28.0476 31.399C27.6761 32.4577 27.4219 33.1243 27.3046 33.3791C26.5028 35.5553 25.6816 37.6923 24.8407 39.79L24.2541 41.182C24.1368 41.3584 23.5893 42.5739 23.4133 43.064C23.0417 44.0247 22.8658 44.4952 22.8266 44.5344C22.7093 44.8677 22.3182 45.6715 22.1618 46.0048C21.9076 46.593 21.7121 47.0635 21.5361 47.3968C21.4187 47.6516 21.0863 48.4358 20.9103 48.7495C20.9103 48.7887 20.9103 48.7887 20.8712 48.7887C17.6448 48.7887 15.924 48.7887 15.6698 48.7495C15.6307 48.7495 15.6307 48.7495 15.6307 48.7103C15.5916 48.377 15.3765 47.7497 15.0441 46.789C14.8681 46.2009 14.5748 45.4951 14.2423 44.6521C13.949 43.9463 13.5775 42.966 13.1082 41.5937L12.3065 39.2803L11.4265 37.0649L10.9181 35.4377L10.0382 32.6734L9.11914 29.6934C9.11914 29.6542 9.11914 29.6542 9.15825 29.615C10.3315 29.066 11.9154 28.8112 13.9295 28.8112C13.9686 28.8112 13.9686 28.8112 13.9686 28.8504C14.125 29.1837 14.4379 30.4776 14.6334 31.0265L14.9658 32.0264L15.8067 34.8887C16.1391 36.1435 16.3542 36.9081 16.4715 37.2021C16.5888 37.457 16.7257 37.7903 16.8431 38.1628C17.1755 39.0842 17.3906 40.1429 17.8012 41.0643C17.9772 41.5349 18.1727 42.2406 18.4269 43.1621L19.3069 40.8095C21.0277 36.1435 21.9858 33.4968 22.24 32.8694C22.8266 31.4383 23.12 30.6344 23.1591 30.5168L23.3351 30.0659C23.4133 29.9875 23.4133 29.7718 23.4915 29.6934C23.5306 29.615 23.6675 29.5366 23.9608 29.4385C25.1731 28.9876 26.8548 28.772 28.9471 28.8112C29.0058 28.8504 29.0449 28.8896 29.0058 28.9288Z" fill="white"/>
<path d="M43.9456 41.2811C43.4372 41.7908 42.7333 42.2025 41.8925 42.4574C42.2249 43.124 42.5573 43.7121 42.8897 44.2611L43.5546 45.3001C43.9261 45.8099 44.1803 46.2216 44.3172 46.5156C44.6105 46.9862 45.2362 48.2017 45.4904 48.6918V48.731C45.4904 48.7702 45.4904 48.7702 45.4904 48.7702H45.4513V48.8094H41.1494C41.1103 48.8094 41.1103 48.8094 41.0712 48.7702C40.9538 48.5938 40.5628 47.9664 40.4063 47.6723L39.8197 46.5352L39.1549 45.5354L38.3531 44.1042C38.1967 43.8886 38.0207 43.5161 37.8056 42.9671H36.7497C36.0066 42.9671 35.2049 42.8495 34.4814 42.8495C34.4814 42.8495 34.4814 43.0259 34.4814 43.0652C34.4032 44.1238 34.3641 44.7904 34.3445 45.0061C34.3445 45.6334 34.3836 46.1824 34.3836 46.8097C34.3836 47.3194 34.4227 48.2017 34.4227 48.731C34.4227 48.7702 34.4227 48.8094 34.3836 48.8094H32.3695H30.4337C30.3946 48.8094 30.3555 48.7702 30.3555 48.731C30.4728 47.6723 30.5119 46.6725 30.5315 45.8295L30.6488 41.7124L30.8052 37.6934C30.8834 34.8702 30.8052 32.204 30.5901 29.7533C30.5901 29.7141 30.5901 29.7141 30.6292 29.6749C31.0985 29.42 31.6852 29.224 32.3891 29.126C33.0931 28.9691 33.6797 28.9103 34.0708 28.9103C34.4814 28.8711 35.1071 28.8711 35.948 28.8711C37.3754 28.8711 38.7638 29.0279 40.1326 29.322C41.7165 29.6945 42.8897 30.2042 43.6914 30.91C44.6496 31.6746 45.2362 32.7137 45.4904 33.9292C45.7446 35.2819 45.7446 36.6543 45.5686 38.007C45.4513 38.556 45.2362 39.1441 44.9038 39.8499C44.5323 40.5165 44.239 40.987 43.9456 41.2811ZM34.5401 39.5951C35.5373 39.6735 36.5933 39.7127 37.6687 39.6735C39.5459 39.6343 40.6801 38.9285 41.0907 37.6149C41.5405 36.1838 41.4623 34.9683 40.8756 33.9684C40.1326 32.7921 38.49 32.9097 37.2777 32.9097L34.4619 33.1646C34.4227 34.1645 34.4227 34.8506 34.4227 35.2231C34.4814 36.3602 34.4814 38.458 34.5401 39.5951Z" fill="white"/>
<path d="M128.283 47.827H125.897H123.511C123.472 47.827 123.472 47.827 123.472 47.7878L122.886 45.7685L122.338 43.7492C122.182 43.3375 122.006 42.7885 121.751 42.1611C119.952 42.2788 117.645 42.3376 114.849 42.4552C114.438 43.5139 114.047 44.4745 113.715 45.396C113.558 45.8665 112.952 47.1996 112.757 47.7878C112.717 47.827 112.717 47.827 112.678 47.827H107.496C107.418 47.827 107.418 47.7878 107.457 47.7094C107.614 47.3761 108.083 46.3174 108.337 45.8665C108.67 45.3176 109.002 44.6118 109.393 43.8472L110.645 41.1613C111.192 39.9458 111.642 39.0636 111.935 38.5146C112.561 37.2991 113.695 35.0837 114.282 33.8094C114.536 33.2212 115.201 31.8685 115.494 31.3C115.709 30.8294 115.944 30.3393 116.159 29.9472C116.276 29.6531 116.413 29.3983 116.53 29.1434C116.687 28.8885 116.785 28.7317 116.824 28.6925C116.902 28.6141 117.117 28.516 117.528 28.3984C117.86 28.2808 118.232 28.222 118.623 28.1043C119.464 27.9475 120.422 27.8887 121.419 27.8887C121.458 27.8887 121.458 27.8887 121.497 27.9279C121.673 28.5552 122.299 30.2805 123.414 33.0448C123.824 34.0839 124.294 35.5542 124.919 37.4167C125.545 39.2988 126.014 40.5731 126.268 41.3573L127.364 44.3765C127.813 45.7293 128.361 46.8468 129.006 47.729C129.084 47.9054 128.576 47.827 128.283 47.827ZM120.5 38.6714C120.128 37.6128 119.913 36.907 119.796 36.6521L118.623 33.2016L117.743 35.221C117.41 35.966 117.156 36.5737 116.98 37.1423C116.804 37.554 116.472 38.5342 116.354 38.9459L118.447 38.8283L120.5 38.6714Z" fill="white"/>
<path d="M143.944 40.3183C143.435 40.828 142.731 41.2397 141.89 41.4946C142.223 42.1612 142.555 42.7493 142.888 43.2982L143.553 44.3373C143.924 44.847 144.178 45.2587 144.315 45.5528C144.609 46.0233 145.234 47.2389 145.488 47.729V47.7682C145.488 47.8074 145.488 47.8074 145.488 47.8074H145.449V47.8466H141.147C141.108 47.8466 141.108 47.8466 141.069 47.8074C140.952 47.631 140.561 47.0036 140.404 46.7095L139.818 45.5724L139.153 44.5726L138.371 43.1218C138.214 42.9061 138.038 42.5336 137.823 41.9847H136.767C136.024 41.9847 135.223 41.8671 134.499 41.8671C134.499 41.8671 134.499 42.0435 134.499 42.0827C134.421 43.1414 134.382 43.808 134.343 44.0236C134.343 44.651 134.382 45.1999 134.382 45.8273C134.382 46.337 134.421 47.2193 134.421 47.7486C134.421 47.7878 134.421 47.827 134.382 47.827H132.368H130.432C130.393 47.827 130.354 47.7878 130.354 47.7486C130.471 46.6899 130.51 45.6901 130.53 44.847L130.647 40.73L130.803 36.7109C130.881 33.8878 130.803 31.2215 130.588 28.7709C130.588 28.7317 130.588 28.7317 130.627 28.6925C131.097 28.4376 131.683 28.2416 132.387 28.1435C133.091 27.9867 133.678 27.9279 134.069 27.9279C134.479 27.8887 135.105 27.8887 135.946 27.8887C137.373 27.8887 138.762 28.0455 140.131 28.3396C141.715 28.7121 142.888 29.2218 143.689 29.9276C144.648 30.6922 145.234 31.7313 145.488 32.9468C145.743 34.2995 145.743 35.6719 145.567 37.0246C145.449 37.5736 145.234 38.1617 144.902 38.8675C144.53 39.5537 144.237 40.0242 143.944 40.3183ZM134.558 38.6322C135.555 38.7107 136.611 38.7499 137.667 38.7107C139.544 38.6714 140.678 37.9657 141.089 36.6521C141.539 35.221 141.46 34.0054 140.874 33.0056C140.131 31.8293 138.488 31.9469 137.276 31.9469L134.44 32.2018C134.401 33.2016 134.401 33.8878 134.401 34.2603C134.479 35.3974 134.479 37.4951 134.558 38.6322Z" fill="white"/>
<path d="M77.6371 51.1578C77.1287 51.3931 76.6985 51.4127 76.3074 51.2755C75.7403 51.0402 75.5643 50.4129 75.8185 49.8639C75.8381 49.8639 75.8381 49.8443 75.8185 49.8247C75.4274 49.7071 74.9582 49.5894 74.4302 49.4522C74.4302 49.4326 74.4106 49.4326 74.3911 49.4522C74.1955 50.1188 74.2151 50.7069 74.4302 51.2167C74.8213 52.0793 75.6425 52.6674 76.5812 52.8243C77.3829 52.9811 78.3215 52.687 79.0254 52.1773C79.7294 51.6676 80.1987 50.8834 80.2769 50.0404L78.6735 50.1384C78.4388 50.6089 78.1064 50.9422 77.6371 51.1578Z" fill="white"/>
<path d="M104.387 31.8091C104.191 30.2799 103.976 29.0448 103.683 28.1037L102.783 24.1043C102.783 24.0259 102.686 23.967 102.588 24.0259C99.772 24.0847 97.1713 24.1435 94.903 24.1239C92.5956 20.7322 89.6429 18.3992 86.0449 17.2621C81.7039 15.9094 77.0305 16.2231 72.0637 18.0463C69.7758 18.9089 67.7227 20.0264 66.0605 21.2223C64.9655 22.0261 63.9291 22.9672 62.971 24.0847C60.2725 24.1631 56.9678 24.0847 53.2721 24.0063C53.1743 23.9278 53.0765 24.0063 53.0765 24.0847L52.1771 28.0841C51.8837 29.0251 51.6686 30.2603 51.4731 31.7895C50.9647 34.7694 50.9647 37.3181 51.4731 39.8471C51.9815 42.1017 53.0765 43.9838 54.68 45.513C55.599 46.356 56.655 47.0226 57.9064 47.5715C58.4735 49.0811 59.2557 50.5319 60.2138 51.865C62.6581 55.4331 66.217 57.8838 70.7927 59.2365C75.4466 60.5893 79.8071 60.5893 83.9135 59.1581C88.0199 57.8838 91.4223 55.5116 94.1795 51.9434C95.1376 50.7083 95.9589 49.4144 96.6629 48.0616C98.501 47.4343 99.9675 46.6109 101.18 45.4934C102.783 43.9642 103.898 42.0821 104.387 39.8275C104.895 37.3181 104.895 34.789 104.387 31.8091ZM84.4024 20.595C87.3942 21.2223 89.7407 22.4771 91.5006 24.0847C87.7657 24.0063 82.4861 23.673 79.201 23.673C79.1423 23.673 78.7121 23.673 77.9495 23.6926C77.1869 23.673 76.7567 23.673 76.698 23.673C74.6839 23.673 71.9464 23.7906 69.2674 23.9082C73.4911 20.791 78.8881 19.2422 84.4024 20.595ZM80.3547 56.6094C75.2119 57.5701 71.9072 57.4721 68.3288 55.8056C65.5326 54.6685 63.4207 52.3748 61.9542 49.0615C61.9151 48.9831 61.8955 48.9047 61.8564 48.8262C65.7672 49.6693 67.9769 49.2576 70.9686 48.1989C72.5525 47.6891 76.2287 43.7877 77.7148 43.7877C80.3742 43.8073 82.9554 48.0812 84.5393 48.5714C86.4751 49.2575 88.1764 49.532 90.21 49.4144C90.5229 49.3948 90.8162 49.3752 91.1486 49.336C91.1095 51.12 89.7602 54.8646 80.3547 56.6094ZM94.7075 48.6498C94.8834 48.6106 95.0594 48.5518 95.255 48.5126C95.0594 48.5714 94.8834 48.6106 94.7075 48.6498ZM99.9871 42.0233C99.596 43.1212 98.9507 43.9838 98.0903 44.6112C97.3864 45.1209 96.5456 45.4542 95.6069 45.6502C94.5901 45.8463 93.632 45.9247 92.7716 45.9051C90.5033 45.8659 88.7434 45.1405 87.4137 43.7877C86.1232 42.3566 81.8994 39.259 77.4215 39.259C74.9186 39.259 69.0523 42.3566 67.7618 43.7877C66.1583 45.4346 63.89 46.1404 60.8982 45.8463C60.468 45.8071 60.0183 45.7482 59.549 45.6502C58.5908 45.4738 57.75 45.1209 57.0461 44.6112C56.1857 43.9838 55.5404 43.1408 55.1493 42.0233C54.152 39.4746 54.0151 36.5339 54.5822 33.3187L55.2862 31.0445L56.127 28.4958C56.2639 28.3586 56.6941 28.2213 57.2612 28.2213H58.2584C58.8255 28.2409 59.4121 28.2409 60.0183 28.2409C61.5044 28.2606 63.1079 28.2605 64.7309 28.2802C69.5607 28.2998 74.6448 28.2605 77.5584 28.2017C81.3128 28.2802 88.7434 28.3194 94.4924 28.2606C95.3136 28.2606 96.1154 28.2409 96.8584 28.2213H97.1908H97.8361C98.4032 28.2213 98.8334 28.3586 98.9703 28.4958L99.8111 31.0445L100.515 33.3187C101.121 36.5339 100.984 39.4942 99.9871 42.0233Z" fill="white"/>
<path d="M60.0594 30.8098C59.2186 30.555 57.6542 30.5746 57.6542 30.5746C57.6542 30.5746 57.224 33.8682 57.4391 34.7112L58.1431 34.2015C58.1235 33.6526 58.6319 32.241 58.9057 31.9469C59.3359 31.5156 60.9784 31.4764 61.3891 31.9077L61.4282 31.8489C61.4282 31.8489 61.4477 31.8097 61.7019 31.4764C61.7215 31.4568 61.7215 31.4568 61.7019 31.4372C60.998 31.1039 60.5874 30.9667 60.0594 30.8098Z" fill="white"/>
<path d="M93.7285 31.1421L94.1 31.9067C94.628 31.7695 96.4857 32.142 96.8376 32.3576C97.346 32.6909 97.6002 34.9259 97.2483 35.416L97.3069 35.4356C97.3069 35.4356 97.346 35.4552 97.7371 35.6317C97.7567 35.6513 97.7567 35.6513 97.7762 35.6317C98.0891 35.0239 98.0304 34.4554 98.05 33.8868C98.0695 33.0046 97.6589 31.1421 97.6589 31.1421C97.6589 31.1421 94.5107 30.7696 93.7285 31.1421Z" fill="white"/>
</svg>
