<svg width="260" height="68" viewBox="0 0 260 68" fill="none" xmlns="http://www.w3.org/2000/svg">
<path d="M47.1381 57.5387C46.327 50.2946 41.0092 31.3694 16.043 32.7276C37.404 25.2119 52.7262 43.141 52.9065 57.0859C50.9236 57.6292 47.1381 57.5387 47.1381 57.5387Z" fill="#046FB7"/>
<path d="M9.37299 21.5004C16.0427 24.3981 35.1504 28.7445 46.0563 6.19727C42.2708 28.654 19.1973 33.3626 6.93945 26.8429C7.48024 24.8508 9.37299 21.5004 9.37299 21.5004Z" fill="#FB331A"/>
<path d="M60.6583 5.10993C54.3491 9.00363 39.5676 22.1336 51.555 44.4091C35.5117 28.1099 45.1557 6.19654 57.6839 0.0390625C59.126 1.57843 60.6583 5.10993 60.6583 5.10993Z" fill="#6BD1F9"/>
<path d="M52.3661 66.5046C-2.07301 54.2802 0.180262 22.7684 0.630916 19.418C0.180262 21.6817 0 24.0361 0 26.3904C0 49.3904 18.567 67.9534 41.3701 67.9534C45.1556 68.044 48.851 67.5007 52.3661 66.5046Z" fill="#6BD1F9"/>
<path d="M80.6582 35.376V30.7414C80.6582 27.9896 82.2435 26.3965 84.6936 26.3965C87.2878 26.3965 88.7291 27.9896 88.7291 30.7414V35.376C88.7291 38.1278 87.1437 39.7209 84.6936 39.7209C82.0994 39.8658 80.6582 38.1278 80.6582 35.376ZM86.4231 35.376V30.7414C86.4231 29.2931 85.8466 28.5689 84.6936 28.5689C83.5406 28.5689 82.9642 29.2931 82.9642 30.7414V35.376C82.9642 36.8243 83.5406 37.5485 84.6936 37.5485C85.8466 37.5485 86.4231 36.8243 86.4231 35.376Z" fill="white"/>
<path d="M90.459 35.376V30.7414C90.459 27.9896 92.0443 26.3965 94.4944 26.3965C97.0886 26.3965 98.5298 27.9896 98.5298 30.7414V35.376C98.5298 38.1278 96.9445 39.7209 94.4944 39.7209C92.0443 39.8658 90.459 38.1278 90.459 35.376ZM96.368 35.376V30.7414C96.368 29.2931 95.7915 28.5689 94.6385 28.5689C93.4856 28.5689 92.9091 29.2931 92.9091 30.7414V35.376C92.9091 36.8243 93.4856 37.5485 94.6385 37.5485C95.7915 37.5485 96.368 36.8243 96.368 35.376Z" fill="white"/>
<path d="M100.402 35.376V30.7414C100.402 27.9896 101.988 26.3965 104.438 26.3965C107.032 26.3965 108.473 27.9896 108.473 30.7414V35.376C108.473 38.1278 106.888 39.7209 104.438 39.7209C101.844 39.8658 100.402 38.1278 100.402 35.376ZM106.167 35.376V30.7414C106.167 29.2931 105.591 28.5689 104.438 28.5689C103.285 28.5689 102.708 29.2931 102.708 30.7414V35.376C102.708 36.8243 103.285 37.5485 104.438 37.5485C105.591 37.5485 106.167 36.8243 106.167 35.376Z" fill="white"/>
<path d="M114.096 35.666V30.4521C114.096 27.7003 115.537 26.252 117.987 26.252C120.437 26.252 121.878 27.7003 122.022 30.3072H119.716C119.572 29.0037 119.14 28.4244 117.987 28.4244C116.978 28.4244 116.402 29.0037 116.402 30.3072V35.666C116.402 36.9694 116.978 37.5488 117.987 37.5488C119.14 37.5488 119.716 36.9694 119.716 35.666H122.022C121.878 38.2729 120.437 39.7212 117.987 39.7212C115.537 39.8661 114.096 38.4178 114.096 35.666Z" fill="white"/>
<path d="M131.246 39.5758H128.94V28.7135H125.769V39.5758H123.463V26.541H131.101V39.5758H131.246Z" fill="white"/>
<path d="M136.865 35.2318V34.5076L138.883 31.7559H141.045L138.739 34.9421L141.045 38.1284H138.883L136.865 35.2318ZM140.468 35.2318V34.5076L142.486 31.7559H144.648L142.342 34.9421L144.648 38.1284H142.486L140.468 35.2318Z" fill="white"/>
<path d="M146.234 35.666V30.4521C146.234 27.7003 147.676 26.252 150.126 26.252C152.576 26.252 154.017 27.7003 154.161 30.3072H151.855C151.711 29.0037 151.279 28.4244 150.126 28.4244C149.117 28.4244 148.54 29.0037 148.54 30.3072V35.666C148.54 36.9694 149.117 37.5488 150.126 37.5488C151.279 37.5488 151.855 36.9694 151.855 35.666H154.161C154.017 38.2729 152.576 39.7212 150.126 39.7212C147.676 39.8661 146.234 38.4178 146.234 35.666Z" fill="white"/>
<path d="M155.314 35.376V30.7414C155.314 27.9896 156.9 26.3965 159.35 26.3965C161.944 26.3965 163.385 27.9896 163.385 30.7414V35.376C163.385 38.1278 161.8 39.7209 159.35 39.7209C156.9 39.8658 155.314 38.1278 155.314 35.376ZM161.223 35.376V30.7414C161.223 29.2931 160.647 28.5689 159.494 28.5689C158.341 28.5689 157.765 29.2931 157.765 30.7414V35.376C157.765 36.8243 158.341 37.5485 159.494 37.5485C160.647 37.5485 161.223 36.8243 161.223 35.376Z" fill="white"/>
<path d="M174.769 37.4033V41.7483H172.463V39.5758H166.699V41.7483H164.393V37.4033H165.257C166.266 36.2447 166.699 34.2171 166.699 32.3343L166.987 26.541H173.616V37.4033H174.769ZM171.31 28.7135H169.005L168.86 33.0584C168.86 34.7964 168.428 36.2447 167.852 37.4033H171.31V28.7135Z" fill="white"/>
<path d="M183.994 30.8859C183.994 33.6377 182.408 35.2309 179.814 35.2309H178.517V39.5758H176.211V26.541H179.814C182.552 26.541 183.994 28.1342 183.994 30.8859ZM181.688 30.8859C181.688 29.4376 181.111 28.7135 179.814 28.7135H178.517V33.0584H179.814C181.111 33.0584 181.688 32.3343 181.688 30.8859Z" fill="white"/>
<path d="M192.641 26.541L189.615 36.5344C188.75 39.1413 187.885 39.7206 185.723 39.7206H185.291V37.693H185.867C186.876 37.693 187.309 37.2585 187.741 35.8102L184.57 26.541H187.02L188.894 32.3343L190.623 26.541H192.641Z" fill="white"/>
<path d="M201.288 34.3619L200.711 35.3757V39.5758H198.406V35.3757L197.829 34.3619L195.235 39.5758H192.641L196.532 32.4791L192.929 26.541H195.523L197.541 30.3066L198.261 31.8998V26.541H200.423V31.8998L201.288 30.3066L203.306 26.541H205.9L202.297 32.4791L206.188 39.5758H203.738L201.288 34.3619Z" fill="white"/>
<path d="M214.116 37.4033V39.5758H207.486V26.541H213.972V28.7135H209.792V31.8998H213.684V33.9274H209.792V37.2585H214.116V37.4033Z" fill="white"/>
<path d="M215.701 35.666V30.4521C215.701 27.7003 217.142 26.252 219.592 26.252C222.043 26.252 223.484 27.7003 223.628 30.3072H221.322C221.178 29.0037 220.745 28.4244 219.592 28.4244C218.584 28.4244 218.007 29.0037 218.007 30.3072V35.666C218.007 36.9694 218.584 37.5488 219.592 37.5488C220.745 37.5488 221.322 36.9694 221.322 35.666H223.628C223.484 38.2729 222.043 39.7212 219.592 39.7212C217.142 39.8661 215.701 38.4178 215.701 35.666Z" fill="white"/>
<path d="M231.842 28.7135H229.248V39.5758H226.942V28.7135H224.348V26.541H231.842V28.7135Z" fill="white"/>
<path d="M240.922 35.8102C240.922 38.1275 239.336 39.5758 237.175 39.5758H233.283V26.541H237.03C239.048 26.541 240.489 27.9893 240.489 30.1618C240.489 31.3204 240.057 32.3343 239.336 32.9136C240.345 33.4929 240.922 34.5067 240.922 35.8102ZM235.445 28.7135V31.8998H236.742C237.607 31.8998 238.183 31.3204 238.183 30.3066C238.183 29.2928 237.751 28.7135 236.742 28.7135H235.445ZM238.616 35.8102C238.616 34.6515 237.895 34.0722 236.742 34.0722H235.445V37.4033H236.742C238.039 37.4033 238.616 36.824 238.616 35.8102Z" fill="white"/>
<path d="M242.363 35.376V30.7414C242.363 27.9896 243.949 26.3965 246.399 26.3965C248.993 26.3965 250.434 27.9896 250.434 30.7414V35.376C250.434 38.1278 248.849 39.7209 246.399 39.7209C243.805 39.8658 242.363 38.1278 242.363 35.376ZM248.128 35.376V30.7414C248.128 29.2931 247.552 28.5689 246.399 28.5689C245.246 28.5689 244.669 29.2931 244.669 30.7414V35.376C244.669 36.8243 245.246 37.5485 246.399 37.5485C247.552 37.5485 248.128 36.8243 248.128 35.376Z" fill="white"/>
<path d="M252.02 37.9839L254.325 34.7976L252.02 31.6113H254.181L256.199 34.3631V35.0873L254.181 37.8391H252.02V37.9839ZM255.478 37.9839L257.784 34.7976L255.478 31.6113H257.64L259.658 34.3631V35.0873L257.64 37.8391H255.478V37.9839Z" fill="white"/>
</svg>
