<svg width="32" height="22" viewBox="0 0 32 22" fill="none" xmlns="http://www.w3.org/2000/svg">
<path d="M28.6667 0.333984H3.33333C1.496 0.333984 0 1.82998 0 3.66732V18.334C0 20.1713 1.496 21.6673 3.33333 21.6673H28.6667C30.504 21.6673 32 20.1713 32 18.334V3.66732C32 1.82998 30.504 0.333984 28.6667 0.333984ZM11.76 12.1793L3.76 18.846C3.636 18.95 3.484 19.0006 3.33333 19.0006C3.14133 19.0006 2.952 18.9193 2.82 18.7606C2.584 18.478 2.62267 18.0566 2.90533 17.8206L10.9053 11.154C11.188 10.9193 11.6093 10.958 11.8453 11.2393C12.0813 11.5233 12.0427 11.9447 11.76 12.1793ZM16 12.3567C15.2667 12.3567 14.532 12.138 13.892 11.6993L2.95733 4.21798C2.65333 4.00998 2.576 3.59532 2.78267 3.29132C2.98933 2.98732 3.404 2.90865 3.70933 3.11798L14.644 10.5993C15.4667 11.162 16.5307 11.162 17.3547 10.5993L28.2893 3.11798C28.5947 2.91132 29.0093 2.98732 29.216 3.29132C29.424 3.59532 29.3467 4.00998 29.0427 4.21798L18.108 11.6993C17.468 12.138 16.7333 12.3567 16 12.3567ZM29.1787 18.7606C29.0467 18.9193 28.8573 19.0006 28.6667 19.0006C28.516 19.0006 28.3653 18.95 28.24 18.846L20.24 12.1793C19.9573 11.9433 19.9187 11.5233 20.1547 11.2393C20.3907 10.958 20.8107 10.9193 21.0947 11.154L29.0947 17.8206C29.376 18.0566 29.4147 18.478 29.1787 18.7606Z" fill="white"/>
</svg>
