<svg width="26" height="26" viewBox="0 0 26 26" fill="none" xmlns="http://www.w3.org/2000/svg">
<path d="M23.7142 17.014C22.1529 17.014 20.6222 16.77 19.1702 16.29C18.4742 16.054 17.6195 16.27 17.1929 16.7087L14.3155 18.8807C11.0142 17.1193 8.90353 15.0073 7.16619 11.7327L9.27953 8.92599C9.81286 8.39265 10.0035 7.61532 9.77419 6.88598C9.29286 5.42465 9.04753 3.89398 9.04753 2.33398C9.04753 1.23132 8.15019 0.333984 7.04753 0.333984H2.38086C1.27819 0.333984 0.380859 1.23132 0.380859 2.33398C0.380859 15.1993 10.8489 25.6673 23.7142 25.6673C24.8169 25.6673 25.7142 24.77 25.7142 23.6673V19.014C25.7142 17.9113 24.8169 17.014 23.7142 17.014Z" fill="white"/>
</svg>
