<svg width="172" height="51" viewBox="0 0 172 51" fill="none" xmlns="http://www.w3.org/2000/svg">
<path d="M34.6719 42.3281C34.0753 36.9956 30.164 23.0642 11.8008 24.0641C27.5123 18.5315 38.7821 31.7296 38.9147 41.9948C37.4562 42.3948 34.6719 42.3281 34.6719 42.3281Z" fill="#046FB7"/>
<path d="M6.89538 15.7983C11.8011 17.9313 25.8552 21.1308 33.8767 4.5332C31.0924 21.0642 14.1213 24.5303 5.10547 19.731C5.50323 18.2646 6.89538 15.7983 6.89538 15.7983Z" fill="#FB331A"/>
<path d="M44.615 3.7328C39.9745 6.59905 29.1024 16.2643 37.9194 32.662C26.1193 20.6637 33.2126 4.53268 42.4274 0C43.4881 1.13317 44.615 3.7328 44.615 3.7328Z" fill="#6BD1F9"/>
<path d="M38.5163 48.9273C-1.52474 39.9286 0.132586 16.7319 0.464052 14.2656C0.132586 15.9321 0 17.6651 0 19.3982C0 36.3291 13.6564 49.9938 30.4285 49.9938C33.2129 50.0605 35.9309 49.6605 38.5163 48.9273Z" fill="#6BD1F9"/>
<path d="M54.6152 25.8858V22.8964C54.6152 21.1214 55.6481 20.0938 57.2442 20.0938C58.9343 20.0938 59.8732 21.1214 59.8732 22.8964V25.8858C59.8732 27.6608 58.8404 28.6884 57.2442 28.6884C55.5542 28.7818 54.6152 27.6608 54.6152 25.8858ZM58.3709 25.8858V22.8964C58.3709 21.9622 57.9954 21.4951 57.2442 21.4951C56.4931 21.4951 56.1175 21.9622 56.1175 22.8964V25.8858C56.1175 26.82 56.4931 27.2871 57.2442 27.2871C57.9954 27.2871 58.3709 26.82 58.3709 25.8858Z" fill="white"/>
<path d="M61 25.8858V22.8964C61 21.1214 62.0328 20.0938 63.629 20.0938C65.3191 20.0938 66.258 21.1214 66.258 22.8964V25.8858C66.258 27.6608 65.2252 28.6884 63.629 28.6884C62.0328 28.7818 61 27.6608 61 25.8858ZM64.8496 25.8858V22.8964C64.8496 21.9622 64.474 21.4951 63.7229 21.4951C62.9717 21.4951 62.5962 21.9622 62.5962 22.8964V25.8858C62.5962 26.82 62.9717 27.2871 63.7229 27.2871C64.474 27.2871 64.8496 26.82 64.8496 25.8858Z" fill="white"/>
<path d="M67.4766 25.8858V22.8964C67.4766 21.1214 68.5094 20.0938 70.1056 20.0938C71.7956 20.0938 72.7346 21.1214 72.7346 22.8964V25.8858C72.7346 27.6608 71.7017 28.6884 70.1056 28.6884C68.4155 28.7818 67.4766 27.6608 67.4766 25.8858ZM71.2323 25.8858V22.8964C71.2323 21.9622 70.8567 21.4951 70.1056 21.4951C69.3544 21.4951 68.9788 21.9622 68.9788 22.8964V25.8858C68.9788 26.82 69.3544 27.2871 70.1056 27.2871C70.8567 27.2871 71.2323 26.82 71.2323 25.8858Z" fill="white"/>
<path d="M76.3984 26.0743V22.7111C76.3984 20.9362 77.3374 20.002 78.9335 20.002C80.5297 20.002 81.4686 20.9362 81.5625 22.6177H80.0603C79.9664 21.7769 79.6847 21.4033 78.9335 21.4033C78.2763 21.4033 77.9007 21.7769 77.9007 22.6177V26.0743C77.9007 26.9151 78.2763 27.2887 78.9335 27.2887C79.6847 27.2887 80.0603 26.9151 80.0603 26.0743H81.5625C81.4686 27.7558 80.5297 28.69 78.9335 28.69C77.3374 28.7835 76.3984 27.8493 76.3984 26.0743Z" fill="white"/>
<path d="M87.5722 28.5973H86.0699V21.5908H84.0042V28.5973H82.502V20.1895H87.4783V28.5973H87.5722Z" fill="white"/>
<path d="M91.2324 25.7948V25.3277L92.5469 23.5527H93.9553L92.453 25.608L93.9553 27.6632H92.5469L91.2324 25.7948ZM93.5797 25.7948V25.3277L94.8942 23.5527H96.3026L94.8003 25.608L96.3026 27.6632H94.8942L93.5797 25.7948Z" fill="white"/>
<path d="M97.3379 26.0743V22.7111C97.3379 20.9362 98.2768 20.002 99.873 20.002C101.469 20.002 102.408 20.9362 102.502 22.6177H101C100.906 21.7769 100.624 21.4033 99.873 21.4033C99.2157 21.4033 98.8402 21.7769 98.8402 22.6177V26.0743C98.8402 26.9151 99.2157 27.2887 99.873 27.2887C100.624 27.2887 101 26.9151 101 26.0743H102.502C102.408 27.7558 101.469 28.69 99.873 28.69C98.2768 28.7835 97.3379 27.8493 97.3379 26.0743Z" fill="white"/>
<path d="M103.252 25.8858V22.8964C103.252 21.1214 104.285 20.0938 105.881 20.0938C107.571 20.0938 108.51 21.1214 108.51 22.8964V25.8858C108.51 27.6608 107.477 28.6884 105.881 28.6884C104.285 28.7818 103.252 27.6608 103.252 25.8858ZM107.102 25.8858V22.8964C107.102 21.9622 106.726 21.4951 105.975 21.4951C105.224 21.4951 104.848 21.9622 104.848 22.8964V25.8858C104.848 26.82 105.224 27.2871 105.975 27.2871C106.726 27.2871 107.102 26.82 107.102 25.8858Z" fill="white"/>
<path d="M115.926 27.196V29.9986H114.424V28.5973H110.668V29.9986H109.166V27.196H109.729C110.387 26.4486 110.668 25.1407 110.668 23.9263L110.856 20.1895H115.175V27.196H115.926ZM113.673 21.5908H112.171L112.077 24.3934C112.077 25.5144 111.795 26.4486 111.419 27.196H113.673V21.5908Z" fill="white"/>
<path d="M121.937 22.9921C121.937 24.7671 120.905 25.7947 119.215 25.7947H118.369V28.5973H116.867V20.1895H119.215C120.998 20.1895 121.937 21.2171 121.937 22.9921ZM120.435 22.9921C120.435 22.0579 120.06 21.5908 119.215 21.5908H118.369V24.3934H119.215C120.06 24.3934 120.435 23.9263 120.435 22.9921Z" fill="white"/>
<path d="M127.571 20.1895L125.599 26.6355C125.035 28.317 124.472 28.6907 123.064 28.6907H122.782V27.3828H123.158C123.815 27.3828 124.096 27.1026 124.378 26.1684L122.312 20.1895H123.909L125.129 23.9263L126.256 20.1895H127.571Z" fill="white"/>
<path d="M133.204 25.2342L132.828 25.8881V28.5973H131.326V25.8881L130.95 25.2342L129.26 28.5973H127.57L130.105 24.0197L127.758 20.1895H129.448L130.763 22.6184L131.232 23.646V20.1895H132.641V23.646L133.204 22.6184L134.518 20.1895H136.208L133.861 24.0197L136.396 28.5973H134.8L133.204 25.2342Z" fill="white"/>
<path d="M141.559 27.196V28.5973H137.24V20.1895H141.465V21.5908H138.743V23.646H141.278V24.9539H138.743V27.1026H141.559V27.196Z" fill="white"/>
<path d="M142.592 26.0743V22.7111C142.592 20.9362 143.531 20.002 145.127 20.002C146.723 20.002 147.662 20.9362 147.756 22.6177H146.254C146.16 21.7769 145.878 21.4033 145.127 21.4033C144.47 21.4033 144.094 21.7769 144.094 22.6177V26.0743C144.094 26.9151 144.47 27.2887 145.127 27.2887C145.878 27.2887 146.254 26.9151 146.254 26.0743H147.756C147.662 27.7558 146.723 28.69 145.127 28.69C143.531 28.7835 142.592 27.8493 142.592 26.0743Z" fill="white"/>
<path d="M153.109 21.5908H151.419V28.5973H149.917V21.5908H148.227V20.1895H153.109V21.5908Z" fill="white"/>
<path d="M159.023 26.1684C159.023 27.6631 157.99 28.5973 156.582 28.5973H154.047V20.1895H156.488C157.803 20.1895 158.742 21.1237 158.742 22.525C158.742 23.2723 158.46 23.9263 157.99 24.2999C158.648 24.6736 159.023 25.3276 159.023 26.1684ZM155.455 21.5908V23.646H156.3C156.864 23.646 157.239 23.2723 157.239 22.6184C157.239 21.9644 156.958 21.5908 156.3 21.5908H155.455ZM157.521 26.1684C157.521 25.421 157.051 25.0473 156.3 25.0473H155.455V27.196H156.3C157.145 27.196 157.521 26.8223 157.521 26.1684Z" fill="white"/>
<path d="M159.963 25.8858V22.8964C159.963 21.1214 160.996 20.0938 162.592 20.0938C164.282 20.0938 165.221 21.1214 165.221 22.8964V25.8858C165.221 27.6608 164.188 28.6884 162.592 28.6884C160.902 28.7818 159.963 27.6608 159.963 25.8858ZM163.719 25.8858V22.8964C163.719 21.9622 163.343 21.4951 162.592 21.4951C161.841 21.4951 161.465 21.9622 161.465 22.8964V25.8858C161.465 26.82 161.841 27.2871 162.592 27.2871C163.343 27.2871 163.719 26.82 163.719 25.8858Z" fill="white"/>
<path d="M166.254 27.5695L167.756 25.5142L166.254 23.459H167.662L168.977 25.234V25.7011L167.662 27.4761H166.254V27.5695ZM168.507 27.5695L170.01 25.5142L168.507 23.459H169.916L171.23 25.234V25.7011L169.916 27.4761H168.507V27.5695Z" fill="white"/>
</svg>
