<svg width="50" height="50" viewBox="0 0 50 50" fill="none" xmlns="http://www.w3.org/2000/svg">
<path d="M0 25C0 38.775 11.225 50 25 50C38.775 50 50 38.775 50 25C50 11.225 38.775 0 25 0C11.225 0 0 11.225 0 25ZM23.175 14.85L32 23.675C32.375 24.05 32.55 24.525 32.55 25C32.55 25.475 32.375 25.95 32 26.325L23.175 35.15C22.45 35.875 21.25 35.875 20.525 35.15C19.8 34.425 19.8 33.225 20.525 32.5L28.025 25L20.525 17.5C19.8 16.775 19.8 15.575 20.525 14.85C21.25 14.125 22.425 14.125 23.175 14.85Z" fill="#FFA627"/>
</svg>
