<svg width="32" height="32" viewBox="0 0 32 32" fill="none" xmlns="http://www.w3.org/2000/svg">
<path d="M2.66602 10.666C2.66602 8.7804 2.66602 7.83759 3.2518 7.2518C3.83759 6.66602 4.7804 6.66602 6.66602 6.66602H25.3327C27.2183 6.66602 28.1611 6.66602 28.7469 7.2518C29.3327 7.83759 29.3327 8.7804 29.3327 10.666V12.3327C29.3327 12.8041 29.3327 13.0398 29.1862 13.1862C29.0398 13.3327 28.8041 13.3327 28.3327 13.3327H3.66601C3.19461 13.3327 2.95891 13.3327 2.81246 13.1862C2.66602 13.0398 2.66602 12.8041 2.66602 12.3327V10.666Z" fill="white"/>
<path fill-rule="evenodd" clip-rule="evenodd" d="M2.66602 25.3333C2.66602 27.219 2.66602 28.1618 3.2518 28.7475C3.83759 29.3333 4.7804 29.3333 6.66602 29.3333H25.3327C27.2183 29.3333 28.1611 29.3333 28.7469 28.7475C29.3327 28.1618 29.3327 27.219 29.3327 25.3333V17C29.3327 16.5286 29.3327 16.2929 29.1862 16.1464C29.0398 16 28.8041 16 28.3327 16H3.66601C3.19461 16 2.95891 16 2.81246 16.1464C2.66602 16.2929 2.66602 16.5286 2.66602 17V25.3333ZM9.33268 19.6667C9.33268 19.1953 9.33268 18.9596 9.47913 18.8131C9.62558 18.6667 9.86128 18.6667 10.3327 18.6667H13.666C14.1374 18.6667 14.3731 18.6667 14.5196 18.8131C14.666 18.9596 14.666 19.1953 14.666 19.6667V20.3333C14.666 20.8047 14.666 21.0404 14.5196 21.1869C14.3731 21.3333 14.1374 21.3333 13.666 21.3333H10.3327C9.86128 21.3333 9.62558 21.3333 9.47913 21.1869C9.33268 21.0404 9.33268 20.8047 9.33268 20.3333V19.6667ZM9.47913 24.1464C9.33268 24.2929 9.33268 24.5286 9.33268 25V25.6667C9.33268 26.1381 9.33268 26.3738 9.47913 26.5202C9.62558 26.6667 9.86128 26.6667 10.3327 26.6667H13.666C14.1374 26.6667 14.3731 26.6667 14.5196 26.5202C14.666 26.3738 14.666 26.1381 14.666 25.6667V25C14.666 24.5286 14.666 24.2929 14.5196 24.1464C14.3731 24 14.1374 24 13.666 24H10.3327C9.86128 24 9.62558 24 9.47913 24.1464ZM17.3327 19.6667C17.3327 19.1953 17.3327 18.9596 17.4791 18.8131C17.6256 18.6667 17.8613 18.6667 18.3327 18.6667H21.666C22.1374 18.6667 22.3731 18.6667 22.5196 18.8131C22.666 18.9596 22.666 19.1953 22.666 19.6667V20.3333C22.666 20.8047 22.666 21.0404 22.5196 21.1869C22.3731 21.3333 22.1374 21.3333 21.666 21.3333H18.3327C17.8613 21.3333 17.6256 21.3333 17.4791 21.1869C17.3327 21.0404 17.3327 20.8047 17.3327 20.3333V19.6667ZM17.4791 24.1464C17.3327 24.2929 17.3327 24.5286 17.3327 25V25.6667C17.3327 26.1381 17.3327 26.3738 17.4791 26.5202C17.6256 26.6667 17.8613 26.6667 18.3327 26.6667H21.666C22.1374 26.6667 22.3731 26.6667 22.5196 26.5202C22.666 26.3738 22.666 26.1381 22.666 25.6667V25C22.666 24.5286 22.666 24.2929 22.5196 24.1464C22.3731 24 22.1374 24 21.666 24H18.3327C17.8613 24 17.6256 24 17.4791 24.1464Z" fill="white"/>
<path d="M9.33398 4L9.33398 8" stroke="white" stroke-width="2" stroke-linecap="round"/>
<path d="M22.666 4L22.666 8" stroke="white" stroke-width="2" stroke-linecap="round"/>
</svg>
