<svg width="50" height="50" viewBox="0 0 50 50" fill="none" xmlns="http://www.w3.org/2000/svg">
<g id="Download_fill">
<path id="Subtract" fill-rule="evenodd" clip-rule="evenodd" d="M27.5 21.136V27.0844C27.5 28.4651 26.3807 29.5844 25 29.5844C23.6193 29.5844 22.5 28.4651 22.5 27.0844V21.136C19.1491 21.9614 16.4365 24.4085 15.242 27.5972C14.9389 28.4064 14.7874 28.811 14.5304 28.9892C14.2734 29.1674 13.9012 29.1674 13.1569 29.1674H12.5C9.04822 29.1674 6.25 31.9656 6.25 35.4174C6.25 38.8692 9.04822 41.6674 12.5 41.6674H24.9936L25 41.6674L25.0064 41.6674H39.75C41.9591 41.6674 43.75 39.8765 43.75 37.6674V33.1674C43.75 30.9582 41.9591 29.1674 39.75 29.1674H36.8431C36.0988 29.1674 35.7266 29.1674 35.4696 28.9892C35.2126 28.811 35.0611 28.4064 34.758 27.5972C33.5635 24.4085 30.8509 21.9614 27.5 21.136Z" fill="#FF4303"/>
<path id="Vector 10" d="M25.0001 6.25L24.293 5.54289L25.0001 4.83579L25.7072 5.54289L25.0001 6.25ZM26.0001 27.0833C26.0001 27.6356 25.5524 28.0833 25.0001 28.0833C24.4478 28.0833 24.0001 27.6356 24.0001 27.0833L26.0001 27.0833ZM15.9596 13.8762L24.293 5.54289L25.7072 6.95711L17.3739 15.2904L15.9596 13.8762ZM25.7072 5.54289L34.0405 13.8762L32.6263 15.2904L24.293 6.95711L25.7072 5.54289ZM26.0001 6.25L26.0001 27.0833L24.0001 27.0833L24.0001 6.25L26.0001 6.25Z" fill="#FF4303"/>
</g>
</svg>
