<svg width="50" height="50" viewBox="0 0 50 50" fill="none" xmlns="http://www.w3.org/2000/svg">
<path fill-rule="evenodd" clip-rule="evenodd" d="M27.5 21.1367V27.0851C27.5 28.4658 26.3807 29.5851 25 29.5851C23.6193 29.5851 22.5 28.4658 22.5 27.0851V21.1367C19.1491 21.9622 16.4365 24.4092 15.242 27.598C14.9389 28.4072 14.7874 28.8118 14.5304 28.9899C14.2734 29.1681 13.9012 29.1681 13.1569 29.1681H12.5C9.04822 29.1681 6.25 31.9663 6.25 35.4181C6.25 38.8699 9.04822 41.6681 12.5 41.6681H24.9936L25 41.6681L25.0064 41.6681H39.75C41.9591 41.6681 43.75 39.8773 43.75 37.6681V33.1681C43.75 30.959 41.9591 29.1681 39.75 29.1681H36.8431C36.0988 29.1681 35.7266 29.1681 35.4696 28.9899C35.2126 28.8118 35.0611 28.4072 34.758 27.598C33.5635 24.4092 30.8509 21.9622 27.5 21.1367Z" fill="white"/>
<path d="M24.9994 6.25L24.2922 5.54289L24.9994 4.83579L25.7065 5.54289L24.9994 6.25ZM25.9994 27.0833C25.9994 27.6356 25.5516 28.0833 24.9994 28.0833C24.4471 28.0833 23.9994 27.6356 23.9994 27.0833L25.9994 27.0833ZM15.9589 13.8762L24.2922 5.54289L25.7065 6.95711L17.3731 15.2904L15.9589 13.8762ZM25.7065 5.54289L34.0398 13.8762L32.6256 15.2904L24.2922 6.95711L25.7065 5.54289ZM25.9994 6.25L25.9994 27.0833L23.9994 27.0833L23.9994 6.25L25.9994 6.25Z" fill="white"/>
</svg>
