<svg width="40" height="41" viewBox="0 0 40 41" fill="none" xmlns="http://www.w3.org/2000/svg">
<g clip-path="url(#clip0_787_3787)">
<path d="M20 0.5C8.9543 0.5 0 9.4543 0 20.5C0 31.5457 8.9543 40.5 20 40.5C31.0457 40.5 40 31.5457 40 20.5C40 9.4543 31.0457 0.5 20 0.5ZM24.7852 7.97313C26.3565 7.98763 27.8359 8.69223 29.2261 10.0825C30.7699 11.6628 31.6559 13.6806 31.0792 16.0127C30.7496 17.2484 29.9687 18.511 28.733 19.8017C24.9898 23.4729 21.6239 26.8932 17.3218 31.1714C16.4989 31.9799 15.0287 32.967 13.5327 33.0269C12.2885 33.0171 11.2855 32.5055 10.3589 31.584C9.37313 30.5857 8.64417 29.2875 8.75247 27.6705C8.88977 26.517 9.45327 25.4462 10.4419 24.4575L20.0415 14.8604C21.4602 13.4541 23.4571 12.3655 25.354 13.9937C27.0692 15.7704 25.9737 17.6938 24.4483 19.2671L15.5908 28.083L13.9014 26.352L22.7173 17.5361C23.12 17.1318 23.9427 16.4246 23.6231 15.6831C23.2065 15.307 22.2085 16.1496 21.77 16.5888L12.1729 26.1885C11.6929 26.6719 11.2755 27.18 11.1841 27.9169C11.1017 28.5485 11.3893 29.1939 12.0484 29.853C13.3261 31.0381 14.2155 30.6996 15.5908 29.4428C19.2504 25.7832 22.1873 22.8782 25.9522 19.1229C27.1898 17.8853 28.0843 17.1052 28.7329 15.3949C29.2445 13.4672 27.2649 10.7265 25.0244 10.412C23.554 10.2748 22.2717 11.2403 21.1939 12.265L10.6885 22.7681L8.95997 21.0811L19.4629 10.5342C21.1107 8.91397 22.7789 8.06287 24.4678 7.9805C24.5733 7.97533 24.6804 7.9722 24.7852 7.97313Z" fill="#FFA627"/>
</g>
<defs>
<clipPath id="clip0_787_3787">
<rect width="40" height="40" fill="white" transform="translate(0 0.5)"/>
</clipPath>
</defs>
</svg>
