<svg width="80" height="80" viewBox="0 0 80 80" fill="none" xmlns="http://www.w3.org/2000/svg">
<path fill-rule="evenodd" clip-rule="evenodd" d="M40 80C17.9075 80 0 62.0925 0 40C0 17.9075 17.9075 0 40 0C62.0925 0 80 17.9075 80 40C80 62.0925 62.0925 80 40 80ZM40.7 58.3125C43.27 60.09 46.53 61.1475 50.06 61.1475C50.9375 61.1475 51.805 61.0825 52.6575 60.955C52.95 61.075 53.2325 61.2225 53.58 61.4225C54.33 61.8625 55.3325 62.5375 56.58 63.4475C57.6025 64.195 59.05 63.4725 59.05 62.215V58.5625C59.575 58.2225 60.07 57.855 60.5375 57.4575C63.3625 55.0625 65 51.7875 65 48.275C65 45.9625 64.3 43.8 63.07 41.9325C62.6822 43.2586 62.1569 44.5406 61.5025 45.7575C61.7625 46.565 61.9 47.4075 61.9 48.275C61.9 50.86 60.68 53.3 58.52 55.13C57.9627 55.6008 57.3626 56.0185 56.7275 56.3775C56.4922 56.5104 56.2963 56.7032 56.1598 56.9364C56.0232 57.1696 55.9508 57.4348 55.95 57.705V59.265C54.4675 58.315 53.45 57.8675 52.675 57.8675C52.5879 57.8678 52.5009 57.8753 52.415 57.89C50.243 58.2532 48.0163 58.1078 45.91 57.465C44.204 57.9081 42.4608 58.1926 40.7025 58.315L40.7 58.3125ZM22.035 51.0075C22.8594 51.705 23.7315 52.3441 24.645 52.92V59.15C24.645 60.725 26.4575 61.625 27.735 60.69C31.26 58.115 33.71 56.66 34.3225 56.515C35.7375 56.74 37.1825 56.8525 38.6425 56.8525C51.6425 56.8525 62.2875 47.835 62.2875 36.5525C62.2875 25.2675 51.64 16.25 38.6425 16.25C25.645 16.25 15 25.2675 15 36.55C15 42.075 17.575 47.2275 22.035 51.0075ZM34.4075 52.6725C33.15 52.6725 31.3125 53.56 28.5225 55.4325V51.84C28.5213 51.5018 28.4304 51.17 28.2591 50.8784C28.0878 50.5868 27.8423 50.3458 27.5475 50.18C26.4881 49.5805 25.4871 48.8833 24.5575 48.0975C20.925 45.025 18.875 40.915 18.875 36.55C18.875 27.525 27.665 20.08 38.6425 20.08C49.6225 20.08 58.41 27.525 58.41 36.55C58.41 45.575 49.6225 53.0225 38.6425 53.0225C37.3175 53.0225 36.01 52.9125 34.7325 52.6975C34.625 52.6802 34.5163 52.6718 34.4075 52.6725ZM28.565 40.3825C30.2775 40.3825 31.665 39.0075 31.665 37.3175C31.665 35.625 30.2775 34.2525 28.565 34.2525C26.8525 34.2525 25.465 35.625 25.465 37.3175C25.465 39.01 26.8525 40.3825 28.565 40.3825ZM38.6425 40.3825C40.355 40.3825 41.7425 39.0075 41.7425 37.3175C41.7425 35.625 40.355 34.2525 38.6425 34.2525C36.93 34.2525 35.5425 35.625 35.5425 37.3175C35.5425 39.01 36.93 40.3825 38.6425 40.3825ZM48.72 40.3825C50.4325 40.3825 51.82 39.0075 51.82 37.3175C51.82 35.625 50.4325 34.2525 48.72 34.2525C47.0075 34.2525 45.62 35.625 45.62 37.3175C45.62 39.01 47.0075 40.3825 48.72 40.3825Z" fill="#FFA627"/>
</svg>
