<svg width="120" height="120" viewBox="0 0 120 120" fill="none" xmlns="http://www.w3.org/2000/svg">
<path fill-rule="evenodd" clip-rule="evenodd" d="M60 120C26.8612 120 0 93.1387 0 60C0 26.8612 26.8612 0 60 0C93.1387 0 120 26.8612 120 60C120 93.1387 93.1387 120 60 120ZM61.05 87.4688C64.905 90.135 69.795 91.7213 75.09 91.7213C76.4062 91.7213 77.7075 91.6237 78.9863 91.4325C79.425 91.6125 79.8487 91.8337 80.37 92.1338C81.495 92.7938 82.9987 93.8063 84.87 95.1712C86.4037 96.2925 88.575 95.2087 88.575 93.3225V87.8438C89.3625 87.3337 90.105 86.7825 90.8063 86.1862C95.0437 82.5938 97.5 77.6813 97.5 72.4125C97.5 68.9437 96.45 65.7 94.605 62.8988C94.0234 64.888 93.2353 66.8109 92.2537 68.6362C92.6438 69.8475 92.85 71.1112 92.85 72.4125C92.85 76.29 91.02 79.95 87.78 82.695C86.9441 83.4012 86.0439 84.0277 85.0912 84.5663C84.7383 84.7656 84.4445 85.0549 84.2397 85.4046C84.0348 85.7544 83.9262 86.1522 83.925 86.5575V88.8975C81.7012 87.4725 80.175 86.8012 79.0125 86.8012C78.8818 86.8016 78.7513 86.8129 78.6225 86.835C75.3645 87.3799 72.0245 87.1616 68.865 86.1975C66.3061 86.8621 63.6912 87.2889 61.0537 87.4725L61.05 87.4688ZM33.0525 76.5112C34.2891 77.5575 35.5973 78.5161 36.9675 79.38V88.725C36.9675 91.0875 39.6862 92.4375 41.6025 91.035C46.89 87.1725 50.565 84.99 51.4837 84.7725C53.6063 85.11 55.7738 85.2787 57.9637 85.2787C77.4637 85.2787 93.4313 71.7525 93.4313 54.8288C93.4313 37.9013 77.46 24.375 57.9637 24.375C38.4675 24.375 22.5 37.9012 22.5 54.825C22.5 63.1125 26.3625 70.8412 33.0525 76.5112ZM51.6112 79.0088C49.725 79.0088 46.9688 80.34 42.7838 83.1488V77.76C42.7819 77.2527 42.6456 76.755 42.3887 76.3176C42.1317 75.8801 41.7634 75.5187 41.3213 75.27C39.7322 74.3707 38.2307 73.3249 36.8363 72.1462C31.3875 67.5375 28.3125 61.3725 28.3125 54.825C28.3125 41.2875 41.4975 30.12 57.9637 30.12C74.4337 30.12 87.615 41.2875 87.615 54.825C87.615 68.3625 74.4337 79.5338 57.9637 79.5338C55.9762 79.5338 54.015 79.3688 52.0987 79.0462C51.9376 79.0202 51.7745 79.0077 51.6112 79.0088ZM42.8475 60.5737C45.4162 60.5737 47.4975 58.5112 47.4975 55.9762C47.4975 53.4375 45.4162 51.3787 42.8475 51.3787C40.2787 51.3787 38.1975 53.4375 38.1975 55.9762C38.1975 58.515 40.2787 60.5737 42.8475 60.5737ZM57.9637 60.5737C60.5325 60.5737 62.6138 58.5112 62.6138 55.9762C62.6138 53.4375 60.5325 51.3787 57.9637 51.3787C55.395 51.3787 53.3138 53.4375 53.3138 55.9762C53.3138 58.515 55.395 60.5737 57.9637 60.5737ZM73.08 60.5737C75.6488 60.5737 77.73 58.5112 77.73 55.9762C77.73 53.4375 75.6488 51.3787 73.08 51.3787C70.5113 51.3787 68.43 53.4375 68.43 55.9762C68.43 58.515 70.5113 60.5737 73.08 60.5737Z" fill="#FFA627"/>
</svg>
