<svg width="100" height="100" viewBox="0 0 100 100" fill="none" xmlns="http://www.w3.org/2000/svg">
<path fill-rule="evenodd" clip-rule="evenodd" d="M50 100C22.3844 100 0 77.6156 0 50C0 22.3844 22.3844 0 50 0C77.6156 0 100 22.3844 100 50C100 77.6156 77.6156 100 50 100ZM50.875 72.8906C54.0875 75.1125 58.1625 76.4344 62.575 76.4344C63.6719 76.4344 64.7562 76.3531 65.8219 76.1937C66.1875 76.3438 66.5406 76.5281 66.975 76.7781C67.9125 77.3281 69.1656 78.1719 70.725 79.3094C72.0031 80.2438 73.8125 79.3406 73.8125 77.7687V73.2031C74.4688 72.7781 75.0875 72.3187 75.6719 71.8219C79.2031 68.8281 81.25 64.7344 81.25 60.3438C81.25 57.4531 80.375 54.75 78.8375 52.4156C78.3528 54.0733 77.6961 55.6758 76.8781 57.1969C77.2031 58.2062 77.375 59.2594 77.375 60.3438C77.375 63.575 75.85 66.625 73.15 68.9125C72.4534 69.501 71.7032 70.0231 70.9094 70.4719C70.6153 70.638 70.3704 70.8791 70.1997 71.1705C70.029 71.462 69.9385 71.7935 69.9375 72.1313V74.0812C68.0844 72.8937 66.8125 72.3344 65.8438 72.3344C65.7348 72.3347 65.6261 72.3441 65.5187 72.3625C62.8037 72.8165 60.0204 72.6347 57.3875 71.8313C55.255 72.3851 53.076 72.7407 50.8781 72.8938L50.875 72.8906ZM27.5438 63.7594C28.5742 64.6313 29.6644 65.4301 30.8062 66.15V73.9375C30.8062 75.9062 33.0719 77.0312 34.6688 75.8625C39.075 72.6437 42.1375 70.825 42.9031 70.6438C44.6719 70.925 46.4781 71.0656 48.3031 71.0656C64.5531 71.0656 77.8594 59.7938 77.8594 45.6906C77.8594 31.5844 64.55 20.3125 48.3031 20.3125C32.0563 20.3125 18.75 31.5844 18.75 45.6875C18.75 52.5938 21.9688 59.0344 27.5438 63.7594ZM43.0094 65.8406C41.4375 65.8406 39.1406 66.95 35.6531 69.2906V64.8C35.6516 64.3773 35.538 63.9625 35.3239 63.598C35.1098 63.2335 34.8028 62.9322 34.4344 62.725C33.1102 61.9756 31.8589 61.1041 30.6969 60.1219C26.1562 56.2812 23.5938 51.1437 23.5938 45.6875C23.5938 34.4062 34.5812 25.1 48.3031 25.1C62.0281 25.1 73.0125 34.4062 73.0125 45.6875C73.0125 56.9688 62.0281 66.2781 48.3031 66.2781C46.6469 66.2781 45.0125 66.1406 43.4156 65.8719C43.2813 65.8502 43.1454 65.8397 43.0094 65.8406ZM35.7062 50.4781C37.8469 50.4781 39.5813 48.7594 39.5813 46.6469C39.5813 44.5312 37.8469 42.8156 35.7062 42.8156C33.5656 42.8156 31.8312 44.5312 31.8312 46.6469C31.8312 48.7625 33.5656 50.4781 35.7062 50.4781ZM48.3031 50.4781C50.4437 50.4781 52.1781 48.7594 52.1781 46.6469C52.1781 44.5312 50.4437 42.8156 48.3031 42.8156C46.1625 42.8156 44.4281 44.5312 44.4281 46.6469C44.4281 48.7625 46.1625 50.4781 48.3031 50.4781ZM60.9 50.4781C63.0406 50.4781 64.775 48.7594 64.775 46.6469C64.775 44.5312 63.0406 42.8156 60.9 42.8156C58.7594 42.8156 57.025 44.5312 57.025 46.6469C57.025 48.7625 58.7594 50.4781 60.9 50.4781Z" fill="#FFA627"/>
</svg>
