<svg width="944" height="707" viewBox="0 0 944 707" fill="none" xmlns="http://www.w3.org/2000/svg">
<path d="M900 104H45C33.9543 104 25 112.954 25 124V633C25 644.046 33.9543 653 45 653H900C911.046 653 920 644.046 920 633V124C920 112.954 911.046 104 900 104Z" fill="url(#paint0_linear_782_3713)"/>
<path d="M196.483 84.957C205.425 84.957 209.645 95.9929 202.985 101.959C201.246 103.517 199.005 104.399 196.67 104.444L98.4424 106.327C94.4087 106.405 90.4928 107.7 87.2088 110.044L57.2515 131.42C42.9604 141.618 23.404 129.77 25.8257 112.381L27.2438 102.198C28.6204 92.314 37.0729 84.957 47.0526 84.957H196.483Z" fill="url(#paint1_linear_782_3713)"/>
<path d="M751.615 670.16C741.875 670.16 737.16 658.241 744.265 651.578C746.256 649.71 748.884 648.671 751.615 648.671H847.76C851.925 648.671 855.986 647.371 859.377 644.951L889.163 623.697C903.454 613.499 923.01 625.347 920.588 642.736L919.17 652.919C917.794 662.803 909.341 670.16 899.361 670.16H751.615Z" fill="url(#paint2_linear_782_3713)"/>
<path d="M9.12109 543.503C9.12109 536.668 17.6922 533.602 22.0274 538.887L22.917 539.972C23.9844 541.274 24.5679 542.905 24.5679 544.588C24.5679 551.424 15.9968 554.489 11.6616 549.204L10.772 548.119C9.7045 546.818 9.12109 545.187 9.12109 543.503Z" fill="url(#paint3_linear_782_3713)"/>
<path d="M9.12109 507.831C9.12109 500.994 17.6936 497.928 22.0295 503.214L22.9165 504.296C23.9843 505.598 24.5679 507.229 24.5679 508.913C24.5679 515.754 15.9876 518.818 11.6541 513.525L10.768 512.442C9.703 511.142 9.12109 509.512 9.12109 507.831Z" fill="url(#paint4_linear_782_3713)"/>
<path d="M9.12109 472.159C9.12109 465.327 17.6895 462.267 22.0171 467.553L22.9231 468.66C23.9867 469.959 24.5679 471.586 24.5679 473.265C24.5679 480.097 15.9994 483.157 11.6719 477.871L10.7659 476.764C9.70225 475.465 9.12109 473.838 9.12109 472.159Z" fill="url(#paint5_linear_782_3713)"/>
<path d="M40.1636 103.945C31.6422 103.945 24.7343 110.853 24.7343 119.375V212.89H40.1636V179.054C40.1636 174.516 41.7066 170.114 44.5393 166.569L94.2969 104.301L40.1636 103.945Z" fill="url(#paint6_linear_782_3713)"/>
<path d="M24.5957 282.906C24.5957 276.07 33.1668 273.004 37.502 278.29L38.4207 279.41C39.4882 280.711 40.0716 282.343 40.0716 284.026C40.0716 290.862 31.5005 293.927 27.1653 288.642L26.2466 287.522C25.1791 286.22 24.5957 284.589 24.5957 282.906Z" fill="url(#paint7_linear_782_3713)"/>
<path d="M24.5957 247.234C24.5957 240.398 33.1668 237.333 37.502 242.618L38.4207 243.738C39.4882 245.04 40.0716 246.671 40.0716 248.354C40.0716 255.19 31.5005 258.255 27.1653 252.97L26.2466 251.85C25.1791 250.548 24.5957 248.917 24.5957 247.234Z" fill="url(#paint8_linear_782_3713)"/>
<path d="M24.5957 211.59C24.5957 204.745 33.1786 201.675 37.5198 206.968L38.4185 208.064C39.4874 209.367 40.0716 211 40.0716 212.685C40.0716 219.527 31.4964 222.598 27.1529 217.313L26.2531 216.218C25.1815 214.914 24.5957 213.278 24.5957 211.59Z" fill="url(#paint9_linear_782_3713)"/>
<path d="M2.77305 216.528C9.953 207.893 24 212.971 24 224.201V421.831C24 433.057 9.96057 438.136 2.7777 429.509C0.982826 427.353 0 424.636 0 421.831V224.201C0 221.398 0.981079 218.683 2.77305 216.528Z" fill="url(#paint10_linear_782_3713)"/>
<path d="M24 565V301L43.3713 324.271C46.3623 327.864 48 332.392 48 337.067V528.933C48 533.608 46.3623 538.136 43.3713 541.729L24 565Z" fill="url(#paint11_linear_782_3713)"/>
<path d="M192.164 670.66C202.161 670.66 206.97 658.399 199.639 651.603C197.606 649.718 194.936 648.671 192.164 648.671H96.3744C92.8338 648.671 89.3566 647.731 86.2982 645.948L54.6511 627.49C40.2154 619.07 22.4325 631.018 24.7717 647.565L25.605 653.46C26.9998 663.326 35.444 670.66 45.4081 670.66H192.164Z" fill="url(#paint12_linear_782_3713)"/>
<path d="M723.201 84.957L746.511 104.447H852.837L919.889 151.923V104.957C919.889 93.9113 910.934 84.957 899.889 84.957H723.201Z" fill="url(#paint13_linear_782_3713)"/>
<path d="M904.983 648.53C913.509 648.53 920.421 641.618 920.421 633.092V537.738H904.983V573.502C904.983 578.045 903.437 582.452 900.598 585.999L850.412 648.708L904.983 648.53Z" fill="url(#paint14_linear_782_3713)"/>
<path d="M904.892 103.947C913.408 103.947 920.312 110.851 920.312 119.367V212.892H904.892V179.053C904.892 174.517 903.35 170.116 900.52 166.572L850.791 104.303L904.892 103.947Z" fill="url(#paint15_linear_782_3713)"/>
<path d="M40.0198 648.526C31.4776 648.526 24.5527 641.601 24.5527 633.059V537.734H40.0198V573.496C40.0198 578.04 41.5674 582.449 44.4077 585.996L94.4745 648.526H40.0198Z" fill="url(#paint16_linear_782_3713)"/>
<path d="M935.89 542.503C935.89 535.664 927.318 532.595 922.977 537.88L922.079 538.973C921.009 540.276 920.424 541.91 920.424 543.596C920.424 550.435 928.997 553.504 933.337 548.22L934.235 547.126C935.305 545.823 935.89 544.189 935.89 542.503Z" fill="url(#paint17_linear_782_3713)"/>
<path d="M935.89 506.824C935.89 499.984 927.316 496.915 922.975 502.201L922.079 503.291C921.009 504.595 920.424 506.229 920.424 507.916C920.424 514.759 929.006 517.827 933.345 512.535L934.239 511.443C935.307 510.141 935.89 508.509 935.89 506.824Z" fill="url(#paint18_linear_782_3713)"/>
<path d="M935.89 471.156C935.89 464.321 927.32 461.258 922.987 466.543L922.073 467.659C921.007 468.96 920.424 470.59 920.424 472.272C920.424 479.106 928.994 482.17 933.327 476.884L934.241 475.769C935.308 474.468 935.89 472.838 935.89 471.156Z" fill="url(#paint19_linear_782_3713)"/>
<path d="M920.42 282.908C920.42 276.073 911.849 273.01 907.517 278.295L906.602 279.411C905.536 280.712 904.953 282.342 904.953 284.024C904.953 290.858 913.523 293.922 917.856 288.636L918.771 287.521C919.837 286.22 920.42 284.59 920.42 282.908Z" fill="url(#paint20_linear_782_3713)"/>
<path d="M920.42 247.234C920.42 240.4 911.849 237.336 907.517 242.622L906.602 243.737C905.536 245.038 904.953 246.668 904.953 248.35C904.953 255.184 913.523 258.248 917.856 252.962L918.771 251.847C919.837 250.546 920.42 248.916 920.42 247.234Z" fill="url(#paint21_linear_782_3713)"/>
<path d="M920.42 211.59C920.42 204.746 911.838 201.678 907.499 206.971L906.604 208.063C905.537 209.365 904.953 210.997 904.953 212.681C904.953 219.521 913.527 222.591 917.869 217.305L918.764 216.215C919.835 214.911 920.42 213.277 920.42 211.59Z" fill="url(#paint22_linear_782_3713)"/>
<path d="M941.339 216.8C934.327 208.219 920.422 213.178 920.422 224.26V422.081C920.422 433.16 934.319 438.121 941.335 429.546C943.058 427.44 944 424.802 944 422.081V224.26C944 221.541 943.06 218.906 941.339 216.8Z" fill="url(#paint23_linear_782_3713)"/>
<path d="M920.42 564.938V301.07L901.384 324.365C898.466 327.936 896.871 332.407 896.871 337.02V528.988C896.871 533.601 898.466 538.072 901.384 541.644L920.42 564.938Z" fill="url(#paint24_linear_782_3713)"/>
<path d="M622.575 104.432C629.83 104.432 633.824 112.861 629.231 118.476C627.597 120.472 625.155 121.63 622.575 121.63H320.394C317.815 121.63 315.372 120.472 313.739 118.476C309.145 112.861 313.14 104.432 320.394 104.432H622.575Z" fill="url(#paint25_linear_782_3713)"/>
<path d="M759.111 85.0684L664.492 4.75245C660.877 1.68431 656.29 0 651.549 0H581.751C577.008 0 572.419 1.68559 568.804 4.75586L539.213 29.8872C535.598 32.9575 531.009 34.6431 526.266 34.6431H415.855C411.112 34.6431 406.523 32.9575 402.908 29.8872L373.317 4.75586C369.702 1.68558 365.113 0 360.37 0H290.572C285.831 0 281.244 1.6843 277.63 4.75245L183.011 85.0684C175.389 91.5393 179.964 104 189.963 104H752.173C762.173 104 766.743 91.5304 759.111 85.0684ZM339.113 5.98027C344.222 5.98027 346.557 12.3511 342.658 15.6527L335.555 21.6665C334.564 22.5053 333.308 22.9656 332.01 22.9656C326.901 22.9656 324.566 16.5948 328.465 13.2932L335.568 7.27938C336.559 6.44058 337.815 5.98027 339.113 5.98027ZM312.767 5.98027C317.868 5.98027 320.199 12.341 316.306 15.6374L309.183 21.6678C308.194 22.5058 306.939 22.9656 305.642 22.9656C300.536 22.9656 298.204 16.597 302.104 13.3001L309.23 7.2748C310.219 6.43891 311.472 5.98027 312.767 5.98027ZM282.86 7.2748C283.849 6.43891 285.102 5.98027 286.396 5.98027C291.498 5.98027 293.829 12.341 289.936 15.6374L282.813 21.6678C281.824 22.5058 280.569 22.9656 279.272 22.9656C274.166 22.9656 271.834 16.597 275.734 13.3001L282.86 7.2748ZM655.748 5.98027C657.047 5.98027 658.303 6.44059 659.293 7.27939L666.396 13.2932C670.296 16.5948 667.961 22.9656 662.851 22.9656C661.553 22.9656 660.297 22.5053 659.306 21.6665L652.204 15.6528C648.304 12.3511 650.639 5.98027 655.748 5.98027ZM629.38 5.98027C630.677 5.98027 631.932 6.44014 632.922 7.27812L640.044 13.3085C643.937 16.6049 641.606 22.9656 636.505 22.9656C635.21 22.9656 633.957 22.507 632.969 21.6711L625.842 15.6459C621.942 12.349 624.274 5.98027 629.38 5.98027ZM603.01 5.98027C604.307 5.98027 605.562 6.44014 606.552 7.27812L613.674 13.3085C617.567 16.6049 615.236 22.9656 610.135 22.9656C608.84 22.9656 607.587 22.507 606.599 21.6711L599.472 15.6458C595.572 12.3489 597.904 5.98027 603.01 5.98027Z" fill="url(#paint26_linear_782_3713)"/>
<path d="M367.718 0L252.033 104L408.509 34.6431L367.718 0Z" fill="url(#paint27_linear_782_3713)"/>
<path d="M574.549 0L690.234 104L533.758 34.6431L574.549 0Z" fill="url(#paint28_linear_782_3713)"/>
<path d="M408.455 136.695H533.704" stroke="#69378F" stroke-width="0.7824" stroke-miterlimit="10" stroke-linecap="round" stroke-linejoin="round"/>
<path d="M383.14 146.148C377.004 146.148 373.62 139.023 377.497 134.267L381.036 129.926C382.419 128.229 384.492 127.244 386.681 127.244C392.822 127.244 396.206 134.378 392.322 139.134L388.779 143.472C387.396 145.165 385.326 146.148 383.14 146.148Z" fill="url(#paint29_linear_782_3713)" fill-opacity="0.6"/>
<path d="M353.954 146.148C347.821 146.148 344.441 139.024 348.32 134.274L351.878 129.917C353.26 128.225 355.328 127.244 357.512 127.244C363.645 127.244 367.025 134.368 363.145 139.118L359.587 143.475C358.206 145.166 356.138 146.148 353.954 146.148Z" fill="url(#paint30_linear_782_3713)" fill-opacity="0.6"/>
<path d="M324.764 146.148C318.631 146.148 315.252 139.024 319.131 134.274L322.689 129.917C324.07 128.225 326.139 127.244 328.322 127.244C334.455 127.244 337.835 134.368 333.956 139.118L330.398 143.475C329.016 145.166 326.948 146.148 324.764 146.148Z" fill="url(#paint31_linear_782_3713)" fill-opacity="0.6"/>
<path d="M559.867 146.148C566.003 146.148 569.387 139.023 565.51 134.267L561.971 129.926C560.588 128.229 558.515 127.244 556.326 127.244C550.185 127.244 546.8 134.378 550.685 139.134L554.228 143.472C555.61 145.165 557.681 146.148 559.867 146.148Z" fill="url(#paint32_linear_782_3713)" fill-opacity="0.6"/>
<path d="M589.053 146.148C595.186 146.148 598.566 139.024 594.686 134.274L591.128 129.917C589.747 128.225 587.679 127.244 585.495 127.244C579.362 127.244 575.982 134.368 579.861 139.118L583.419 143.475C584.801 145.166 586.869 146.148 589.053 146.148Z" fill="url(#paint33_linear_782_3713)" fill-opacity="0.6"/>
<path d="M618.244 146.148C624.377 146.148 627.757 139.024 623.878 134.274L620.32 129.917C618.938 128.225 616.87 127.244 614.686 127.244C608.553 127.244 605.173 134.368 609.053 139.118L612.611 143.475C613.992 145.166 616.06 146.148 618.244 146.148Z" fill="url(#paint34_linear_782_3713)" fill-opacity="0.6"/>
<path d="M642.294 636.604C635.95 636.604 632.452 629.238 636.46 624.322L640.121 619.831C641.55 618.078 643.692 617.061 645.954 617.061C652.298 617.061 655.796 624.426 651.788 629.343L648.127 633.833C646.698 635.586 644.556 636.604 642.294 636.604Z" fill="url(#paint35_linear_782_3713)" fill-opacity="0.6"/>
<path d="M612.127 636.604C605.792 636.604 602.298 629.248 606.301 624.337L609.976 619.829C611.404 618.077 613.544 617.061 615.804 617.061C622.145 617.061 625.639 624.426 621.628 629.336L617.949 633.842C616.521 635.59 614.384 636.604 612.127 636.604Z" fill="url(#paint36_linear_782_3713)" fill-opacity="0.6"/>
<path d="M581.965 636.604C575.622 636.604 572.124 629.238 576.132 624.322L579.793 619.831C581.222 618.078 583.364 617.061 585.626 617.061C591.969 617.061 595.468 624.426 591.46 629.343L587.799 633.833C586.37 635.586 584.228 636.604 581.965 636.604Z" fill="url(#paint37_linear_782_3713)" fill-opacity="0.6"/>
<path d="M306.746 636.604C313.081 636.604 316.575 629.248 312.572 624.337L308.897 619.829C307.469 618.077 305.328 617.061 303.068 617.061C296.728 617.061 293.234 624.426 297.245 629.336L300.924 633.842C302.352 635.59 304.489 636.604 306.746 636.604Z" fill="url(#paint38_linear_782_3713)" fill-opacity="0.6"/>
<path d="M336.9 636.604C343.241 636.604 346.735 629.239 342.724 624.328L339.044 619.822C337.617 618.075 335.479 617.061 333.222 617.061C326.887 617.061 323.393 624.417 327.396 629.327L331.072 633.836C332.5 635.587 334.64 636.604 336.9 636.604Z" fill="url(#paint39_linear_782_3713)" fill-opacity="0.6"/>
<path d="M367.054 636.604C373.397 636.604 376.896 629.238 372.887 624.322L369.227 619.831C367.797 618.078 365.655 617.061 363.393 617.061C357.05 617.061 353.552 624.426 357.56 629.343L361.22 633.833C362.65 635.586 364.792 636.604 367.054 636.604Z" fill="url(#paint40_linear_782_3713)" fill-opacity="0.6"/>
<path d="M779.053 651.853L762.623 631.752C755.026 622.458 743.656 617.066 731.652 617.066H691.12C679.114 617.066 667.743 622.459 660.146 631.756L650.054 644.107H473.52H473.287H296.724L286.661 631.776C279.064 622.467 267.686 617.066 255.671 617.066H215.183C203.179 617.066 191.81 622.458 184.213 631.752L167.783 651.853L167.201 652.564V671.574L184.184 692.33C191.782 701.615 203.145 707 215.142 707H263.546C270.579 707 277.239 703.844 281.693 698.401L296.753 679.995H473.287H473.52H650.083L657.148 688.63L665.114 698.401C669.567 703.844 676.228 707 683.261 707H731.636C743.633 707 754.996 701.615 762.593 692.33L779.577 671.574L779.606 671.538V652.528L779.053 651.853Z" fill="url(#paint41_linear_782_3713)"/>
<defs>
<linearGradient id="paint0_linear_782_3713" x1="1034.62" y1="9.44321" x2="9.12472" y2="463.822" gradientUnits="userSpaceOnUse">
<stop stop-color="#775BB4"/>
<stop offset="0.151042" stop-color="#4A337B"/>
<stop offset="0.375" stop-color="#232358"/>
<stop offset="0.5929" stop-color="#00004E"/>
<stop offset="0.8258" stop-color="#130048"/>
<stop offset="1" stop-color="#0D0042"/>
</linearGradient>
<linearGradient id="paint1_linear_782_3713" x1="165.086" y1="84.4573" x2="29.2347" y2="84.4575" gradientUnits="userSpaceOnUse">
<stop offset="0.0733933" stop-color="#68378F"/>
<stop offset="1" stop-color="#FFA627"/>
</linearGradient>
<linearGradient id="paint2_linear_782_3713" x1="781.328" y1="670.66" x2="917.179" y2="670.66" gradientUnits="userSpaceOnUse">
<stop offset="0.0733933" stop-color="#6C3791"/>
<stop offset="1" stop-color="#FFA627"/>
</linearGradient>
<linearGradient id="paint3_linear_782_3713" x1="16.8484" y1="522.976" x2="16.8484" y2="564.773" gradientUnits="userSpaceOnUse">
<stop stop-color="#303F71"/>
<stop offset="1" stop-color="#6C3791"/>
</linearGradient>
<linearGradient id="paint4_linear_782_3713" x1="16.8484" y1="487.3" x2="16.8484" y2="529.132" gradientUnits="userSpaceOnUse">
<stop stop-color="#303F71"/>
<stop offset="1" stop-color="#6C3791"/>
</linearGradient>
<linearGradient id="paint5_linear_782_3713" x1="16.8484" y1="451.625" x2="16.8484" y2="493.456" gradientUnits="userSpaceOnUse">
<stop stop-color="#303F71"/>
<stop offset="1" stop-color="#6C3791"/>
</linearGradient>
<linearGradient id="paint6_linear_782_3713" x1="59.1064" y1="200.396" x2="59.1074" y2="103.945" gradientUnits="userSpaceOnUse">
<stop stop-color="#6C3791"/>
<stop offset="1" stop-color="#FFA627"/>
</linearGradient>
<linearGradient id="paint7_linear_782_3713" x1="25.7518" y1="304.183" x2="41.2667" y2="302.273" gradientUnits="userSpaceOnUse">
<stop stop-color="#31349B"/>
<stop offset="0.9999" stop-color="#FFA627"/>
</linearGradient>
<linearGradient id="paint8_linear_782_3713" x1="25.7518" y1="268.511" x2="41.2667" y2="266.601" gradientUnits="userSpaceOnUse">
<stop stop-color="#31349B"/>
<stop offset="0.9999" stop-color="#FFA627"/>
</linearGradient>
<linearGradient id="paint9_linear_782_3713" x1="25.7518" y1="232.839" x2="41.2667" y2="230.929" gradientUnits="userSpaceOnUse">
<stop stop-color="#31349B"/>
<stop offset="0.9999" stop-color="#FFA627"/>
</linearGradient>
<linearGradient id="paint10_linear_782_3713" x1="12.0061" y1="189.888" x2="12.0126" y2="453.949" gradientUnits="userSpaceOnUse">
<stop stop-color="#303F71"/>
<stop offset="1" stop-color="#6C3791"/>
</linearGradient>
<linearGradient id="paint11_linear_782_3713" x1="36.1412" y1="534.725" x2="36.1241" y2="301" gradientUnits="userSpaceOnUse">
<stop offset="0.0733933" stop-color="#6C3791"/>
<stop offset="1" stop-color="#FFA627"/>
</linearGradient>
<linearGradient id="paint12_linear_782_3713" x1="25.9456" y1="670.66" x2="167.85" y2="670.66" gradientUnits="userSpaceOnUse">
<stop offset="0.0733933" stop-color="#6C3791"/>
<stop offset="1" stop-color="#FFA627"/>
</linearGradient>
<linearGradient id="paint13_linear_782_3713" x1="752.619" y1="85" x2="876.669" y2="11.7919" gradientUnits="userSpaceOnUse">
<stop stop-color="#6C3791"/>
<stop offset="0.9999" stop-color="#FFA627"/>
</linearGradient>
<linearGradient id="paint14_linear_782_3713" x1="885.143" y1="537.727" x2="885.144" y2="646.172" gradientUnits="userSpaceOnUse">
<stop offset="0.0733933" stop-color="#6C3791"/>
<stop offset="1" stop-color="#FFA627"/>
</linearGradient>
<linearGradient id="paint15_linear_782_3713" x1="885.96" y1="200.398" x2="885.959" y2="103.947" gradientUnits="userSpaceOnUse">
<stop offset="0.0733933" stop-color="#6C3791"/>
<stop offset="1" stop-color="#FFA627"/>
</linearGradient>
<linearGradient id="paint16_linear_782_3713" x1="59.8915" y1="537.727" x2="59.8926" y2="648.67" gradientUnits="userSpaceOnUse">
<stop offset="0.0733933" stop-color="#6C3791"/>
<stop offset="1" stop-color="#FFA627"/>
</linearGradient>
<linearGradient id="paint17_linear_782_3713" x1="928.161" y1="521.98" x2="928.161" y2="563.777" gradientUnits="userSpaceOnUse">
<stop stop-color="#303F71"/>
<stop offset="1" stop-color="#6C3791"/>
</linearGradient>
<linearGradient id="paint18_linear_782_3713" x1="928.161" y1="486.298" x2="928.161" y2="528.13" gradientUnits="userSpaceOnUse">
<stop stop-color="#303F71"/>
<stop offset="1" stop-color="#6C3791"/>
</linearGradient>
<linearGradient id="paint19_linear_782_3713" x1="928.161" y1="450.627" x2="928.161" y2="492.458" gradientUnits="userSpaceOnUse">
<stop stop-color="#303F71"/>
<stop offset="1" stop-color="#6C3791"/>
</linearGradient>
<linearGradient id="paint20_linear_782_3713" x1="906.109" y1="304.183" x2="921.614" y2="302.275" gradientUnits="userSpaceOnUse">
<stop stop-color="#31349B"/>
<stop offset="0.9999" stop-color="#FFA627"/>
</linearGradient>
<linearGradient id="paint21_linear_782_3713" x1="906.109" y1="268.509" x2="921.614" y2="266.601" gradientUnits="userSpaceOnUse">
<stop stop-color="#31349B"/>
<stop offset="0.9999" stop-color="#FFA627"/>
</linearGradient>
<linearGradient id="paint22_linear_782_3713" x1="906.109" y1="232.837" x2="921.614" y2="230.929" gradientUnits="userSpaceOnUse">
<stop stop-color="#31349B"/>
<stop offset="0.9999" stop-color="#FFA627"/>
</linearGradient>
<linearGradient id="paint23_linear_782_3713" x1="932.217" y1="190.092" x2="932.223" y2="454.055" gradientUnits="userSpaceOnUse">
<stop stop-color="#303F71"/>
<stop offset="1" stop-color="#6C3791"/>
</linearGradient>
<linearGradient id="paint24_linear_782_3713" x1="908.784" y1="534.678" x2="908.767" y2="301.07" gradientUnits="userSpaceOnUse">
<stop offset="0.0733933" stop-color="#6C3791"/>
<stop offset="1" stop-color="#FFA627"/>
</linearGradient>
<linearGradient id="paint25_linear_782_3713" x1="327.534" y1="121.55" x2="335.382" y2="70.1497" gradientUnits="userSpaceOnUse">
<stop stop-color="#6C3791"/>
<stop offset="0.9999" stop-color="#FFA627"/>
</linearGradient>
<linearGradient id="paint26_linear_782_3713" x1="471.25" y1="-0.437947" x2="471.25" y2="103.586" gradientUnits="userSpaceOnUse">
<stop stop-color="#303F71"/>
<stop offset="1" stop-color="#6C3791"/>
</linearGradient>
<linearGradient id="paint27_linear_782_3713" x1="263.723" y1="103.518" x2="391.054" y2="39.7675" gradientUnits="userSpaceOnUse">
<stop stop-color="#303F71"/>
<stop offset="0.9999" stop-color="#FFA627"/>
</linearGradient>
<linearGradient id="paint28_linear_782_3713" x1="689.865" y1="103.518" x2="545.431" y2="42.2074" gradientUnits="userSpaceOnUse">
<stop stop-color="#31349B"/>
<stop offset="0.9999" stop-color="#FFA627"/>
</linearGradient>
<linearGradient id="paint29_linear_782_3713" x1="370.369" y1="146.06" x2="395.923" y2="130.667" gradientUnits="userSpaceOnUse">
<stop stop-color="#31349B"/>
<stop offset="0.9999" stop-color="#FFA627"/>
</linearGradient>
<linearGradient id="paint30_linear_782_3713" x1="341.179" y1="146.06" x2="366.733" y2="130.667" gradientUnits="userSpaceOnUse">
<stop stop-color="#31349B"/>
<stop offset="0.9999" stop-color="#FFA627"/>
</linearGradient>
<linearGradient id="paint31_linear_782_3713" x1="311.99" y1="146.06" x2="337.544" y2="130.667" gradientUnits="userSpaceOnUse">
<stop stop-color="#31349B"/>
<stop offset="0.9999" stop-color="#FFA627"/>
</linearGradient>
<linearGradient id="paint32_linear_782_3713" x1="543.531" y1="146.06" x2="569.085" y2="130.667" gradientUnits="userSpaceOnUse">
<stop stop-color="#31349B"/>
<stop offset="0.9999" stop-color="#FFA627"/>
</linearGradient>
<linearGradient id="paint33_linear_782_3713" x1="572.72" y1="146.06" x2="598.274" y2="130.667" gradientUnits="userSpaceOnUse">
<stop stop-color="#31349B"/>
<stop offset="0.9999" stop-color="#FFA627"/>
</linearGradient>
<linearGradient id="paint34_linear_782_3713" x1="601.912" y1="146.06" x2="627.466" y2="130.667" gradientUnits="userSpaceOnUse">
<stop stop-color="#31349B"/>
<stop offset="0.9999" stop-color="#FFA627"/>
</linearGradient>
<linearGradient id="paint35_linear_782_3713" x1="629.088" y1="636.513" x2="655.498" y2="620.615" gradientUnits="userSpaceOnUse">
<stop stop-color="#31349B"/>
<stop offset="0.9999" stop-color="#FFA627"/>
</linearGradient>
<linearGradient id="paint36_linear_782_3713" x1="598.942" y1="636.513" x2="625.352" y2="620.615" gradientUnits="userSpaceOnUse">
<stop stop-color="#31349B"/>
<stop offset="0.9999" stop-color="#FFA627"/>
</linearGradient>
<linearGradient id="paint37_linear_782_3713" x1="568.76" y1="636.513" x2="595.17" y2="620.615" gradientUnits="userSpaceOnUse">
<stop stop-color="#31349B"/>
<stop offset="0.9999" stop-color="#FFA627"/>
</linearGradient>
<linearGradient id="paint38_linear_782_3713" x1="289.86" y1="636.513" x2="316.27" y2="620.615" gradientUnits="userSpaceOnUse">
<stop stop-color="#31349B"/>
<stop offset="0.9999" stop-color="#FFA627"/>
</linearGradient>
<linearGradient id="paint39_linear_782_3713" x1="320.038" y1="636.513" x2="346.448" y2="620.615" gradientUnits="userSpaceOnUse">
<stop stop-color="#31349B"/>
<stop offset="0.9999" stop-color="#FFA627"/>
</linearGradient>
<linearGradient id="paint40_linear_782_3713" x1="350.188" y1="636.513" x2="376.598" y2="620.615" gradientUnits="userSpaceOnUse">
<stop stop-color="#31349B"/>
<stop offset="0.9999" stop-color="#FFA627"/>
</linearGradient>
<linearGradient id="paint41_linear_782_3713" x1="473.56" y1="616.688" x2="473.56" y2="706.642" gradientUnits="userSpaceOnUse">
<stop stop-color="#303F71"/>
<stop offset="1" stop-color="#6C3791"/>
</linearGradient>
</defs>
</svg>
