<svg width="320" height="622" viewBox="0 0 320 622" fill="none" xmlns="http://www.w3.org/2000/svg">
<path d="M299.993 41.7441H20C8.9543 41.7441 0 50.6984 0 61.7441V570.271C0 581.316 8.95431 590.271 20 590.271H299.993C311.039 590.271 319.993 581.316 319.993 570.271V61.7441C319.993 50.6984 311.039 41.7441 299.993 41.7441Z" fill="url(#paint0_linear_455_5209)"/>
<path d="M264.13 607.754C256.628 607.754 251.436 600.257 254.077 593.234C255.651 589.046 259.656 586.272 264.13 586.272H287.704C291.762 586.272 295.469 583.969 297.267 580.331C302.392 569.958 318.051 574.022 317.483 585.578L316.99 595.623C316.657 602.417 311.051 607.754 304.249 607.754H264.13Z" fill="url(#paint1_linear_455_5209)"/>
<path d="M5.99263 41.7422C2.68515 41.7422 0.00390625 44.4234 0.00390625 47.7309V150.648H5.99263V112.849C5.99263 110.839 6.29546 108.841 6.89094 106.922L27.0039 42.0979L5.99263 41.7422Z" fill="url(#paint2_linear_455_5209)"/>
<path d="M0.00390625 222.359C0.00390625 217.44 6.36205 215.397 9.13438 219.461C9.70088 220.291 10.0039 221.281 10.0039 222.286C10.0039 227.206 3.64576 229.249 0.873433 225.185C0.306929 224.354 0.00390625 223.365 0.00390625 222.359Z" fill="url(#paint3_linear_455_5209)"/>
<path d="M0.00390625 194.649C0.00390625 189.729 6.36205 187.686 9.13438 191.75C9.70088 192.58 10.0039 193.57 10.0039 194.575C10.0039 199.495 3.64576 201.538 0.873433 197.474C0.306929 196.643 0.00390625 195.654 0.00390625 194.649Z" fill="url(#paint4_linear_455_5209)"/>
<path d="M0.00390625 166.953C0.00390625 162.033 6.36205 159.967 9.13438 164.031C9.70088 164.862 10.0039 165.853 10.0039 166.859C10.0039 171.776 3.65053 173.844 0.875908 169.784C0.307831 168.953 0.00390625 167.96 0.00390625 166.953Z" fill="url(#paint5_linear_455_5209)"/>
<path d="M0.00390625 502.345V238.572L8.89786 264.193C9.63006 266.302 10.0039 268.519 10.0039 270.752V470.165C10.0039 472.398 9.63005 474.615 8.89786 476.724L0.00390625 502.345Z" fill="url(#paint6_linear_455_5209)"/>
<path d="M55.0119 608.254C62.7081 608.254 68.0209 600.548 65.2839 593.355C63.6615 589.091 59.5739 586.273 55.0119 586.273H31.4902C27.6999 586.273 24.1856 584.291 22.224 581.048C16.4023 571.422 1.58203 575.956 2.14232 587.192L2.57557 595.88C2.92124 602.811 8.64212 608.254 15.5824 608.254H55.0119Z" fill="url(#paint7_linear_455_5209)"/>
<path d="M314.044 586.096C317.332 586.096 319.998 583.43 319.998 580.142V475.369H314.044V515.108C314.044 517.108 313.744 519.098 313.154 521.009L292.998 586.273L314.044 586.096Z" fill="url(#paint8_linear_455_5209)"/>
<path d="M314.009 41.7422C317.317 41.7422 319.998 44.4234 319.998 47.7309V150.648H314.009V112.849C314.009 110.839 313.706 108.841 313.111 106.922L292.998 42.0979L314.009 41.7422Z" fill="url(#paint9_linear_455_5209)"/>
<path d="M5.8917 586.129C2.63996 586.129 0.00390625 583.493 0.00390625 580.241V475.377H5.8917V515.162C5.8917 517.139 6.18472 519.104 6.76118 520.995L26.6207 586.129H5.8917Z" fill="url(#paint10_linear_455_5209)"/>
<path d="M319.998 222.359C319.998 217.44 313.64 215.397 310.868 219.461C310.301 220.291 309.998 221.281 309.998 222.286C309.998 227.206 316.356 229.249 319.129 225.185C319.695 224.354 319.998 223.365 319.998 222.359Z" fill="url(#paint11_linear_455_5209)"/>
<path d="M319.998 194.649C319.998 189.729 313.64 187.686 310.868 191.75C310.301 192.58 309.998 193.57 309.998 194.575C309.998 199.495 316.356 201.538 319.129 197.474C319.695 196.643 319.998 195.654 319.998 194.649Z" fill="url(#paint12_linear_455_5209)"/>
<path d="M319.998 166.953C319.998 162.033 313.64 159.967 310.868 164.031C310.301 164.862 309.998 165.853 309.998 166.859C309.998 171.776 316.351 173.844 319.126 169.784C319.694 168.953 319.998 167.96 319.998 166.953Z" fill="url(#paint13_linear_455_5209)"/>
<path d="M247.776 561.292C242.859 561.292 240.81 567.649 244.874 570.417C245.703 570.981 246.691 571.283 247.695 571.283C252.612 571.283 254.661 564.926 250.596 562.158C249.767 561.594 248.779 561.292 247.776 561.292Z" fill="url(#paint14_linear_455_5209)"/>
<path d="M228.04 561.292C223.122 561.292 221.073 567.649 225.138 570.417C225.967 570.981 226.955 571.283 227.958 571.283C232.876 571.283 234.925 564.926 230.86 562.158C230.031 561.594 229.043 561.292 228.04 561.292Z" fill="url(#paint15_linear_455_5209)"/>
<path d="M208.324 561.292C203.407 561.292 201.335 567.649 205.399 570.417C206.229 570.981 207.219 571.283 208.222 571.283C213.137 571.283 215.211 564.931 211.151 562.161C210.321 561.595 209.329 561.292 208.324 561.292Z" fill="url(#paint16_linear_455_5209)"/>
<path d="M247.776 64.7254C242.859 64.7254 240.81 71.0824 244.874 73.8503C245.703 74.4149 246.691 74.7168 247.695 74.7168C252.612 74.7168 254.661 68.3598 250.596 65.5919C249.767 65.0274 248.779 64.7254 247.776 64.7254Z" fill="url(#paint17_linear_455_5209)"/>
<path d="M228.04 64.7254C223.122 64.7254 221.073 71.0824 225.138 73.8503C225.967 74.4149 226.955 74.7168 227.958 74.7168C232.876 74.7168 234.925 68.3598 230.86 65.5919C230.031 65.0274 229.043 64.7254 228.04 64.7254Z" fill="url(#paint18_linear_455_5209)"/>
<path d="M208.324 64.7254C203.407 64.7254 201.335 71.0824 205.399 73.8503C206.229 74.4149 207.219 74.7168 208.222 74.7168C213.137 74.7168 215.211 68.3645 211.151 65.5944C210.321 65.0283 209.329 64.7254 208.324 64.7254Z" fill="url(#paint19_linear_455_5209)"/>
<path d="M111.778 561.292C106.861 561.292 104.812 567.649 108.876 570.417C109.705 570.981 110.693 571.283 111.696 571.283C116.614 571.283 118.663 564.926 114.598 562.158C113.769 561.594 112.781 561.292 111.778 561.292Z" fill="url(#paint20_linear_455_5209)"/>
<path d="M92.0436 561.292C87.1262 561.292 85.0772 567.649 89.1417 570.417C89.9707 570.981 90.9591 571.283 91.9621 571.283C96.8795 571.283 98.9285 564.926 94.864 562.158C94.035 561.594 93.0466 561.292 92.0436 561.292Z" fill="url(#paint21_linear_455_5209)"/>
<path d="M72.3264 561.292C67.409 561.292 65.337 567.649 69.4014 570.417C70.2305 570.981 71.221 571.283 72.2241 571.283C77.1392 571.283 79.2128 564.931 75.1527 562.161C74.3229 561.595 73.3309 561.292 72.3264 561.292Z" fill="url(#paint22_linear_455_5209)"/>
<path d="M111.778 64.7274C106.861 64.7274 104.812 71.0844 108.876 73.8522C109.705 74.4168 110.693 74.7188 111.696 74.7188C116.614 74.7188 118.663 68.3617 114.598 65.5939C113.769 65.0293 112.781 64.7274 111.778 64.7274Z" fill="url(#paint23_linear_455_5209)"/>
<path d="M92.0436 64.7274C87.1262 64.7274 85.0772 71.0844 89.1417 73.8522C89.9707 74.4168 90.9591 74.7188 91.9621 74.7188C96.8795 74.7188 98.9285 68.3617 94.864 65.5939C94.035 65.0293 93.0466 64.7274 92.0436 64.7274Z" fill="url(#paint24_linear_455_5209)"/>
<path d="M72.3264 64.7274C67.409 64.7274 65.337 71.0844 69.4014 73.8522C70.2305 74.4168 71.221 74.7188 72.2241 74.7188C77.1392 74.7188 79.2128 68.3665 75.1527 65.5964C74.3229 65.0302 73.3309 64.7274 72.3264 64.7274Z" fill="url(#paint25_linear_455_5209)"/>
<path d="M319.996 502.345V238.572L311.102 264.193C310.37 266.302 309.996 268.519 309.996 270.752V470.165C309.996 472.398 310.37 474.615 311.102 476.724L319.996 502.345Z" fill="url(#paint26_linear_455_5209)"/>
<path d="M315.007 41.7359C317.765 41.7402 319.999 43.9775 319.999 46.7359V58.729H0.00585938V46.252C0.00585938 43.4875 2.2492 41.2476 5.01367 41.252L315.007 41.7359Z" fill="url(#paint27_linear_455_5209)"/>
<path d="M122.361 566.553L198.002 566.553" stroke="#69378F" stroke-width="0.7824" stroke-miterlimit="10" stroke-linecap="round" stroke-linejoin="round"/>
<path d="M122.361 69.9805L198.002 69.9806" stroke="#69378F" stroke-width="0.7824" stroke-miterlimit="10" stroke-linecap="round" stroke-linejoin="round"/>
<path d="M319.711 580.196L315.055 572.083C308.745 561.085 297.034 554.303 284.354 554.303C271.672 554.303 259.96 561.087 253.65 572.087L252.306 574.43H160.063H159.942H67.6839L66.3444 572.092C60.0416 561.09 48.3318 554.303 35.6521 554.303C22.9811 554.303 11.278 561.08 4.97196 572.071L0.309684 580.196L0.00585938 580.725V594.875L4.94107 603.468C11.2573 614.464 22.9711 621.245 35.6527 621.245H48.7723C53.3383 621.245 57.5558 618.804 59.8299 614.844L67.6991 601.144H159.942H160.063H252.321L256.013 607.571L260.175 614.844C262.449 618.804 266.667 621.245 271.233 621.245H284.345C297.022 621.245 308.731 614.467 315.045 603.474L319.984 594.875L319.999 594.849V580.699L319.711 580.196Z" fill="url(#paint28_linear_455_5209)"/>
<path d="M288.666 600.911L303.666 589.245L288.666 577.578V600.911Z" stroke="white" stroke-width="2" stroke-linecap="round" stroke-linejoin="round"/>
<path d="M270.334 600.911L285.334 589.245L270.334 577.578V600.911Z" stroke="white" stroke-width="2" stroke-linecap="round" stroke-linejoin="round"/>
<path d="M31.334 600.911L16.334 589.245L31.334 577.578V600.911Z" stroke="white" stroke-width="2" stroke-linecap="round" stroke-linejoin="round"/>
<path d="M49.666 600.911L34.666 589.245L49.666 577.578V600.911Z" stroke="white" stroke-width="2" stroke-linecap="round" stroke-linejoin="round"/>
<path d="M299.658 33.736L256.207 3.57097C252.858 1.24597 248.878 0 244.801 0H216.36C212.281 0 208.3 1.24701 204.95 3.57383L195.461 10.1647C192.112 12.4915 188.13 13.7386 184.052 13.7386H135.919C131.84 13.7386 127.859 12.4915 124.509 10.1647L115.02 3.57383C111.67 1.24701 107.689 0 103.611 0H75.1692C71.0923 0 67.1127 1.24597 63.7637 3.57097L20.3129 33.736C16.9959 36.0391 18.6256 41.2437 22.6638 41.2437H297.312C301.351 41.2437 302.978 36.0354 299.658 33.736ZM95.7626 2.37162C98.06 2.37162 98.9855 5.33393 97.0968 6.64185L94.138 8.69074C93.746 8.96217 93.2806 9.10759 92.8038 9.10759C90.5064 9.10759 89.5808 6.14528 91.4696 4.83736L94.4284 2.78847C94.8204 2.51704 95.2858 2.37162 95.7626 2.37162ZM82.9881 2.37162C85.2818 2.37162 86.2058 5.32918 84.3201 6.635L81.3508 8.69119C80.9592 8.96232 80.4943 9.10759 80.018 9.10759C77.7223 9.10759 76.7983 6.14677 78.6866 4.84108L81.6573 2.7869C82.0484 2.51648 82.5126 2.37162 82.9881 2.37162ZM68.8708 2.7869C69.2618 2.51648 69.726 2.37162 70.2015 2.37162C72.4952 2.37162 73.4193 5.32918 71.5335 6.635L68.5642 8.69119C68.1727 8.96233 67.7077 9.10759 67.2315 9.10759C64.9357 9.10759 64.0118 6.14677 65.9 4.84108L68.8708 2.7869ZM249.781 2.37162C250.258 2.37162 250.723 2.51704 251.115 2.78848L254.074 4.83735C255.963 6.14527 255.037 9.10759 252.74 9.10759C252.263 9.10759 251.798 8.96217 251.406 8.69074L248.447 6.64186C246.558 5.33395 247.484 2.37162 249.781 2.37162ZM236.995 2.37162C237.471 2.37162 237.936 2.51689 238.328 2.78802L241.297 4.84422C243.183 6.15004 242.259 9.10759 239.965 9.10759C239.49 9.10759 239.026 8.96273 238.635 8.69231L235.664 6.63814C233.776 5.33246 234.699 2.37162 236.995 2.37162ZM224.209 2.37162C224.685 2.37162 225.15 2.51689 225.541 2.78802L228.511 4.84422C230.396 6.15004 229.472 9.10759 227.179 9.10759C226.703 9.10759 226.239 8.96273 225.848 8.69231L222.877 6.63813C220.989 5.33244 221.913 2.37162 224.209 2.37162Z" fill="url(#paint29_linear_455_5209)"/>
<path d="M109.876 0L53.7812 41.2437L129.655 13.7386L109.876 0Z" fill="url(#paint30_linear_455_5209)"/>
<path d="M210.168 0L266.262 41.2437L190.389 13.7386L210.168 0Z" fill="url(#paint31_linear_455_5209)"/>
<defs>
<linearGradient id="paint0_linear_455_5209" x1="332.637" y1="-10.0488" x2="-62.219" y2="53.6346" gradientUnits="userSpaceOnUse">
<stop stop-color="#3956BE"/>
<stop offset="0.135417" stop-color="#262B94"/>
<stop offset="0.3268" stop-color="#00036C"/>
<stop offset="0.5929" stop-color="#00004E"/>
<stop offset="0.8258" stop-color="#130048"/>
<stop offset="1" stop-color="#0D0042"/>
</linearGradient>
<linearGradient id="paint1_linear_455_5209" x1="268.663" y1="608.253" x2="316.539" y2="608.253" gradientUnits="userSpaceOnUse">
<stop offset="0.0733933" stop-color="#31349B"/>
<stop offset="1" stop-color="#FFA627"/>
</linearGradient>
<linearGradient id="paint2_linear_455_5209" x1="14" y1="57.7441" x2="4.00228" y2="150.648" gradientUnits="userSpaceOnUse">
<stop offset="0.0733933" stop-color="#694086"/>
<stop offset="1" stop-color="#FFA627"/>
</linearGradient>
<linearGradient id="paint3_linear_455_5209" x1="0.750954" y1="238.419" x2="10.8226" y2="237.387" gradientUnits="userSpaceOnUse">
<stop stop-color="#31349B"/>
<stop offset="0.9999" stop-color="#FFA627"/>
</linearGradient>
<linearGradient id="paint4_linear_455_5209" x1="0.750954" y1="210.708" x2="10.8226" y2="209.676" gradientUnits="userSpaceOnUse">
<stop stop-color="#31349B"/>
<stop offset="0.9999" stop-color="#FFA627"/>
</linearGradient>
<linearGradient id="paint5_linear_455_5209" x1="0.750954" y1="182.989" x2="10.8226" y2="181.958" gradientUnits="userSpaceOnUse">
<stop stop-color="#31349B"/>
<stop offset="0.9999" stop-color="#FFA627"/>
</linearGradient>
<linearGradient id="paint6_linear_455_5209" x1="5.06273" y1="472.095" x2="5.02184" y2="238.572" gradientUnits="userSpaceOnUse">
<stop offset="0.0733933" stop-color="#694086"/>
<stop offset="1" stop-color="#FFA627"/>
</linearGradient>
<linearGradient id="paint7_linear_455_5209" x1="2.45532" y1="608.254" x2="52.4948" y2="608.254" gradientUnits="userSpaceOnUse">
<stop offset="0.0733933" stop-color="#31349B"/>
<stop offset="1" stop-color="#FFA627"/>
</linearGradient>
<linearGradient id="paint8_linear_455_5209" x1="306.393" y1="475.357" x2="306.395" y2="583.739" gradientUnits="userSpaceOnUse">
<stop offset="0.0733933" stop-color="#694086"/>
<stop offset="1" stop-color="#FFA627"/>
</linearGradient>
<linearGradient id="paint9_linear_455_5209" x1="306.657" y1="138.159" x2="312.498" y2="48.744" gradientUnits="userSpaceOnUse">
<stop offset="0.0733933" stop-color="#694086"/>
<stop offset="1" stop-color="#FFA627"/>
</linearGradient>
<linearGradient id="paint10_linear_455_5209" x1="13.4562" y1="475.369" x2="13.4592" y2="586.273" gradientUnits="userSpaceOnUse">
<stop offset="0.0733933" stop-color="#694086"/>
<stop offset="1" stop-color="#FFA627"/>
</linearGradient>
<linearGradient id="paint11_linear_455_5209" x1="310.745" y1="238.419" x2="320.817" y2="237.387" gradientUnits="userSpaceOnUse">
<stop stop-color="#31349B"/>
<stop offset="0.9999" stop-color="#FFA627"/>
</linearGradient>
<linearGradient id="paint12_linear_455_5209" x1="310.745" y1="210.708" x2="320.817" y2="209.676" gradientUnits="userSpaceOnUse">
<stop stop-color="#31349B"/>
<stop offset="0.9999" stop-color="#FFA627"/>
</linearGradient>
<linearGradient id="paint13_linear_455_5209" x1="310.745" y1="182.989" x2="320.817" y2="181.958" gradientUnits="userSpaceOnUse">
<stop stop-color="#31349B"/>
<stop offset="0.9999" stop-color="#FFA627"/>
</linearGradient>
<linearGradient id="paint14_linear_455_5209" x1="263.845" y1="570.537" x2="262.816" y2="560.474" gradientUnits="userSpaceOnUse">
<stop stop-color="#31349B"/>
<stop offset="0.9999" stop-color="#FFA627"/>
</linearGradient>
<linearGradient id="paint15_linear_455_5209" x1="244.109" y1="570.537" x2="243.08" y2="560.474" gradientUnits="userSpaceOnUse">
<stop stop-color="#31349B"/>
<stop offset="0.9999" stop-color="#FFA627"/>
</linearGradient>
<linearGradient id="paint16_linear_455_5209" x1="224.371" y1="570.537" x2="223.342" y2="560.474" gradientUnits="userSpaceOnUse">
<stop stop-color="#31349B"/>
<stop offset="0.9999" stop-color="#FFA627"/>
</linearGradient>
<linearGradient id="paint17_linear_455_5209" x1="263.845" y1="73.9704" x2="262.816" y2="63.9071" gradientUnits="userSpaceOnUse">
<stop stop-color="#31349B"/>
<stop offset="0.9999" stop-color="#FFA627"/>
</linearGradient>
<linearGradient id="paint18_linear_455_5209" x1="244.109" y1="73.9704" x2="243.08" y2="63.9071" gradientUnits="userSpaceOnUse">
<stop stop-color="#31349B"/>
<stop offset="0.9999" stop-color="#FFA627"/>
</linearGradient>
<linearGradient id="paint19_linear_455_5209" x1="224.371" y1="73.9704" x2="223.342" y2="63.9071" gradientUnits="userSpaceOnUse">
<stop stop-color="#31349B"/>
<stop offset="0.9999" stop-color="#FFA627"/>
</linearGradient>
<linearGradient id="paint20_linear_455_5209" x1="127.847" y1="570.537" x2="126.818" y2="560.474" gradientUnits="userSpaceOnUse">
<stop stop-color="#31349B"/>
<stop offset="0.9999" stop-color="#FFA627"/>
</linearGradient>
<linearGradient id="paint21_linear_455_5209" x1="108.113" y1="570.537" x2="107.084" y2="560.474" gradientUnits="userSpaceOnUse">
<stop stop-color="#31349B"/>
<stop offset="0.9999" stop-color="#FFA627"/>
</linearGradient>
<linearGradient id="paint22_linear_455_5209" x1="88.3725" y1="570.537" x2="87.3438" y2="560.474" gradientUnits="userSpaceOnUse">
<stop stop-color="#31349B"/>
<stop offset="0.9999" stop-color="#FFA627"/>
</linearGradient>
<linearGradient id="paint23_linear_455_5209" x1="127.847" y1="73.9723" x2="126.818" y2="63.9091" gradientUnits="userSpaceOnUse">
<stop stop-color="#31349B"/>
<stop offset="0.9999" stop-color="#FFA627"/>
</linearGradient>
<linearGradient id="paint24_linear_455_5209" x1="108.113" y1="73.9723" x2="107.084" y2="63.9091" gradientUnits="userSpaceOnUse">
<stop stop-color="#31349B"/>
<stop offset="0.9999" stop-color="#FFA627"/>
</linearGradient>
<linearGradient id="paint25_linear_455_5209" x1="88.3725" y1="73.9723" x2="87.3438" y2="63.9091" gradientUnits="userSpaceOnUse">
<stop stop-color="#31349B"/>
<stop offset="0.9999" stop-color="#FFA627"/>
</linearGradient>
<linearGradient id="paint26_linear_455_5209" x1="315.055" y1="472.095" x2="315.014" y2="238.572" gradientUnits="userSpaceOnUse">
<stop offset="0.0733933" stop-color="#694086"/>
<stop offset="1" stop-color="#FFA627"/>
</linearGradient>
<linearGradient id="paint27_linear_455_5209" x1="15.5545" y1="58.6503" x2="25.6922" y2="1.1168" gradientUnits="userSpaceOnUse">
<stop stop-color="#694086"/>
<stop offset="0.9999" stop-color="#FFA627"/>
</linearGradient>
<linearGradient id="paint28_linear_455_5209" x1="160.084" y1="554.021" x2="160.084" y2="620.978" gradientUnits="userSpaceOnUse">
<stop stop-color="#303F71"/>
<stop offset="1" stop-color="#6C3791"/>
</linearGradient>
<linearGradient id="paint29_linear_455_5209" x1="160.077" y1="-0.173679" x2="160.077" y2="41.0795" gradientUnits="userSpaceOnUse">
<stop stop-color="#303F71"/>
<stop offset="1" stop-color="#6C3791"/>
</linearGradient>
<linearGradient id="paint30_linear_455_5209" x1="59.4494" y1="41.0526" x2="115.619" y2="6.66796" gradientUnits="userSpaceOnUse">
<stop stop-color="#303F71"/>
<stop offset="0.9999" stop-color="#FFA627"/>
</linearGradient>
<linearGradient id="paint31_linear_455_5209" x1="266.083" y1="41.0526" x2="200.97" y2="7.25735" gradientUnits="userSpaceOnUse">
<stop stop-color="#31349B"/>
<stop offset="0.9999" stop-color="#FFA627"/>
</linearGradient>
</defs>
</svg>
