<svg width="1154" height="707" viewBox="0 0 1154 707" fill="none" xmlns="http://www.w3.org/2000/svg">
<path d="M1103.78 104.43H48.8281C37.7824 104.43 28.8281 113.384 28.8281 124.43V632.703C28.8281 643.749 37.7824 652.703 48.8281 652.703H1103.78C1114.82 652.703 1123.78 643.749 1123.78 632.703V124.43C1123.78 113.384 1114.82 104.43 1103.78 104.43Z" fill="url(#paint0_linear_781_3975)"/>
<path d="M240.532 84.957C250.114 84.957 254.25 97.1006 246.66 102.95V102.95C244.934 104.28 242.821 105.013 240.641 105.037L116.798 106.388C113.328 106.426 109.927 107.366 106.93 109.116L59.4878 136.821C44.8257 145.383 26.8373 132.933 29.6858 116.194L32.1692 101.602C33.805 91.9889 42.1347 84.957 51.8857 84.957H240.532Z" fill="url(#paint1_linear_781_3975)"/>
<path d="M915.678 670.16C905.412 670.16 900.992 657.142 909.136 650.892V650.892C911.013 649.452 913.312 648.671 915.678 648.671H1036.23C1040.33 648.671 1044.34 647.411 1047.7 645.061L1092.73 613.565C1106.99 603.59 1126.31 615.331 1124.02 632.584L1121.34 652.79C1120.02 662.732 1111.54 670.16 1101.51 670.16H915.678Z" fill="url(#paint2_linear_781_3975)"/>
<path d="M9.91992 542.736C9.91992 535.502 18.6623 531.875 23.7833 536.984L26.409 539.604C27.9367 541.128 28.7953 543.198 28.7953 545.356V545.356C28.7953 552.59 20.0529 556.217 14.9319 551.107L12.3062 548.487C10.7785 546.963 9.91992 544.894 9.91992 542.736V542.736Z" fill="url(#paint3_linear_781_3975)"/>
<path d="M9.91992 507.064C9.91992 499.828 18.664 496.201 23.786 501.311L26.4081 503.927C27.9364 505.452 28.7953 507.522 28.7953 509.681V509.681C28.7953 516.922 20.0417 520.549 14.9208 515.43L12.3012 512.811C10.7765 511.287 9.91992 509.22 9.91992 507.064V507.064Z" fill="url(#paint4_linear_781_3975)"/>
<path d="M9.91992 471.392C9.91992 464.161 18.6617 460.539 23.7756 465.651L26.4167 468.291C27.9396 469.814 28.7953 471.879 28.7953 474.032V474.032C28.7953 481.263 20.0535 484.885 14.9396 479.773L12.2985 477.133C10.7756 475.61 9.91992 473.545 9.91992 471.392V471.392Z" fill="url(#paint5_linear_781_3975)"/>
<path d="M47.8534 106V106C37.4409 106 29 114.441 29 124.853V213H47.8534V181.134C47.8534 175.85 49.9445 170.78 53.67 167.033L114 106.349L47.8534 106Z" fill="url(#paint6_linear_781_3975)"/>
<path d="M28.832 282.138C28.832 274.904 37.5744 271.277 42.6954 276.387L45.3567 279.042C46.8844 280.566 47.7429 282.635 47.7429 284.793V284.793C47.7429 292.027 39.0006 295.654 33.8796 290.545L31.2183 287.89C29.6906 286.366 28.832 284.296 28.832 282.138V282.138Z" fill="url(#paint7_linear_781_3975)"/>
<path d="M28.832 246.466C28.832 239.232 37.5744 235.605 42.6954 240.715L45.3567 243.37C46.8844 244.894 47.7429 246.964 47.7429 249.122V249.122C47.7429 256.356 39.0006 259.983 33.8796 254.873L31.2183 252.218C29.6906 250.694 28.832 248.624 28.832 246.466V246.466Z" fill="url(#paint8_linear_781_3975)"/>
<path d="M28.832 210.821C28.832 203.577 37.5862 199.945 42.7141 205.062L45.354 207.695C46.8834 209.221 47.7429 211.293 47.7429 213.454V213.454C47.7429 220.692 38.9983 224.325 33.8693 219.217L31.2269 216.586C29.6938 215.059 28.832 212.985 28.832 210.821V210.821Z" fill="url(#paint9_linear_781_3975)"/>
<path d="M4.21754 215.835C13.2963 206.748 28.8285 213.178 28.8285 226.023V420.317C28.8285 433.157 13.3051 439.589 4.22382 430.511V430.511C1.51941 427.808 0 424.141 0 420.317V226.023C0 222.202 1.51697 218.538 4.21754 215.835V215.835Z" fill="url(#paint10_linear_781_3975)"/>
<path d="M28.8281 564.938V301.07L51.7692 324.031C55.5162 327.781 57.621 332.865 57.621 338.167V527.841C57.621 533.143 55.5162 538.227 51.7691 541.978L28.8281 564.938Z" fill="url(#paint11_linear_781_3975)"/>
<path d="M235.312 670.66C245.849 670.66 250.351 657.271 241.955 650.905V650.905C240.043 649.456 237.711 648.671 235.312 648.671H114.53C111.551 648.671 108.609 648.006 105.92 646.723L56.9073 623.343C42.2577 616.355 25.8242 628.807 28.5887 644.801L30.1903 654.067C31.8478 663.656 40.1667 670.66 49.898 670.66H235.312Z" fill="url(#paint12_linear_781_3975)"/>
<path d="M883.031 84.957L911.532 104.447H1041.54L1123.52 151.923V104.957C1123.52 93.9113 1114.57 84.957 1103.52 84.957H883.031Z" fill="url(#paint13_linear_781_3975)"/>
<path d="M1105.29 648.53V648.53C1115.72 648.53 1124.17 640.079 1124.17 629.654V537.738H1105.29V572.363C1105.29 577.592 1103.25 582.613 1099.59 586.35L1038.57 648.708L1105.29 648.53Z" fill="url(#paint14_linear_781_3975)"/>
<path d="M1105.18 103.945V103.945C1115.6 103.945 1124.04 112.387 1124.04 122.799V212.89H1105.18V180.19C1105.18 174.968 1103.14 169.953 1099.49 166.217L1039.04 104.301L1105.18 103.945Z" fill="url(#paint15_linear_781_3975)"/>
<path d="M47.7084 648.526V648.526C37.2639 648.526 28.7969 640.059 28.7969 629.615V537.734H47.7084V572.356C47.7084 577.587 49.7577 582.609 53.417 586.347L114.29 648.526H47.7084Z" fill="url(#paint16_linear_781_3975)"/>
<path d="M1143.08 541.732C1143.08 534.495 1134.34 530.863 1129.21 535.97L1126.57 538.605C1125.04 540.131 1124.17 542.204 1124.17 544.367V544.367C1124.17 551.604 1132.92 555.236 1138.04 550.13L1140.69 547.495C1142.22 545.968 1143.08 543.895 1143.08 541.732V541.732Z" fill="url(#paint17_linear_781_3975)"/>
<path d="M1143.08 506.056C1143.08 498.818 1134.34 495.185 1129.21 500.293L1126.57 502.924C1125.04 504.451 1124.17 506.525 1124.17 508.689V508.689C1124.17 515.933 1132.93 519.565 1138.06 514.448L1140.7 511.814C1142.23 510.288 1143.08 508.217 1143.08 506.056V506.056Z" fill="url(#paint18_linear_781_3975)"/>
<path d="M1143.08 470.388C1143.08 463.154 1134.34 459.527 1129.22 464.637L1126.56 467.292C1125.03 468.816 1124.17 470.886 1124.17 473.044V473.044C1124.17 480.277 1132.92 483.904 1138.04 478.795L1140.7 476.14C1142.23 474.616 1143.08 472.546 1143.08 470.388V470.388Z" fill="url(#paint19_linear_781_3975)"/>
<path d="M1124.17 282.138C1124.17 274.904 1115.43 271.277 1110.31 276.387L1107.65 279.042C1106.12 280.566 1105.26 282.635 1105.26 284.793V284.793C1105.26 292.027 1114 295.654 1119.12 290.545L1121.78 287.89C1123.31 286.366 1124.17 284.296 1124.17 282.138V282.138Z" fill="url(#paint20_linear_781_3975)"/>
<path d="M1124.17 246.466C1124.17 239.232 1115.43 235.605 1110.31 240.715L1107.65 243.37C1106.12 244.894 1105.26 246.964 1105.26 249.122V249.122C1105.26 256.356 1114 259.983 1119.12 254.873L1121.78 252.218C1123.31 250.694 1124.17 248.624 1124.17 246.466V246.466Z" fill="url(#paint21_linear_781_3975)"/>
<path d="M1124.17 210.821C1124.17 203.577 1115.42 199.945 1110.29 205.062L1107.65 207.695C1106.12 209.221 1105.26 211.293 1105.26 213.454V213.454C1105.26 220.692 1114 224.325 1119.13 219.217L1121.78 216.586C1123.31 215.059 1124.17 212.985 1124.17 210.821V210.821Z" fill="url(#paint22_linear_781_3975)"/>
<path d="M1148.78 215.835C1139.7 206.748 1124.17 213.178 1124.17 226.023V420.317C1124.17 433.157 1139.7 439.589 1148.78 430.511V430.511C1151.48 427.808 1153 424.141 1153 420.317V226.023C1153 222.202 1151.48 218.538 1148.78 215.835V215.835Z" fill="url(#paint23_linear_781_3975)"/>
<path d="M1124.17 564.938V301.07L1101.23 324.031C1097.48 327.781 1095.38 332.865 1095.38 338.167V527.841C1095.38 533.143 1097.48 538.227 1101.23 541.978L1124.17 564.938Z" fill="url(#paint24_linear_781_3975)"/>
<path d="M762.641 103.43C770.302 103.43 774.138 112.694 768.72 118.11V118.11C767.107 119.722 764.92 120.628 762.641 120.628H390.323C388.043 120.628 385.856 119.722 384.244 118.11V118.11C378.825 112.694 382.661 103.43 390.323 103.43H762.641Z" fill="url(#paint25_linear_781_3975)"/>
<path d="M928.16 85.0684L810.768 3.57098C807.419 1.24597 803.439 0 799.362 0H708.585C704.506 0 700.525 1.24701 697.175 3.57383L657.591 31.0692C654.241 33.3961 650.26 34.6431 646.181 34.6431H505.745C501.666 34.6431 497.685 33.3961 494.335 31.0692L454.751 3.57383C451.401 1.24701 447.42 0 443.341 0H352.563C348.486 0 344.507 1.24597 341.158 3.57097L223.766 85.0684V85.0684C215.092 91.2949 219.502 104.985 230.179 104.977L921.958 104.522C932.394 104.515 936.666 91.1141 928.16 85.0684V85.0684ZM414.019 5.98027C419.812 5.98027 422.146 13.45 417.384 16.7481L409.923 21.9145C408.934 22.599 407.761 22.9656 406.558 22.9656V22.9656C400.765 22.9656 398.431 15.4959 403.194 12.1979L410.655 7.0314C411.643 6.34696 412.817 5.98027 414.019 5.98027V5.98027ZM381.807 5.98027C387.591 5.98027 389.921 13.438 385.166 16.7308L377.679 21.9157C376.691 22.5993 375.519 22.9656 374.318 22.9656V22.9656C368.529 22.9656 366.199 15.4997 370.961 12.2072L378.451 7.02744C379.438 6.34555 380.608 5.98027 381.807 5.98027V5.98027ZM346.209 7.02744C347.195 6.34555 348.366 5.98027 349.565 5.98027V5.98027C355.348 5.98027 357.678 13.438 352.923 16.7308L345.436 21.9157C344.449 22.5994 343.276 22.9656 342.075 22.9656V22.9656C336.286 22.9656 333.957 15.4997 338.718 12.2073L346.209 7.02744ZM802.391 5.98027C803.594 5.98027 804.767 6.34697 805.756 7.03141L813.216 12.1978C817.979 15.4959 815.645 22.9656 809.852 22.9656V22.9656C808.65 22.9656 807.476 22.599 806.488 21.9145L799.027 16.7481C794.264 13.4501 796.598 5.98027 802.391 5.98027V5.98027ZM770.151 5.98027C771.352 5.98027 772.524 6.34657 773.511 7.03026L780.999 12.2151C785.754 15.5079 783.424 22.9656 777.64 22.9656V22.9656C776.441 22.9656 775.271 22.6004 774.284 21.9185L766.793 16.7387C762.032 13.4463 764.362 5.98027 770.151 5.98027V5.98027ZM737.908 5.98027C739.109 5.98027 740.281 6.34657 741.269 7.03027L748.756 12.2152C753.511 15.5079 751.181 22.9656 745.397 22.9656V22.9656C744.198 22.9656 743.028 22.6004 742.042 21.9185L734.551 16.7387C729.789 13.4462 732.119 5.98027 737.908 5.98027V5.98027Z" fill="url(#paint26_linear_781_3975)"/>
<path d="M449.606 0L308.158 104L499.48 34.6431L449.606 0Z" fill="url(#paint27_linear_781_3975)"/>
<path d="M702.498 0L843.945 104L652.623 34.6431L702.498 0Z" fill="url(#paint28_linear_781_3975)"/>
<path d="M499.416 136.695H652.557" stroke="#69378F" stroke-width="0.7824" stroke-miterlimit="10" stroke-linecap="round" stroke-linejoin="round"/>
<path d="M469.312 146.146C462.072 146.146 458.44 137.398 463.551 132.269L466.177 129.635C467.703 128.103 469.777 127.242 471.939 127.242V127.242C479.185 127.242 482.816 136 477.696 141.127L475.068 143.759C473.542 145.287 471.471 146.146 469.312 146.146V146.146Z" fill="url(#paint29_linear_781_3975)" fill-opacity="0.6"/>
<path d="M433.626 146.146C426.391 146.146 422.764 137.4 427.877 132.28L430.527 129.626C432.051 128.1 434.119 127.242 436.276 127.242V127.242C443.512 127.242 447.138 135.988 442.026 141.108L439.376 143.762C437.852 145.288 435.783 146.146 433.626 146.146V146.146Z" fill="url(#paint30_linear_781_3975)" fill-opacity="0.6"/>
<path d="M397.937 146.146C390.701 146.146 387.075 137.4 392.188 132.28L394.837 129.626C396.361 128.1 398.43 127.242 400.587 127.242V127.242C407.822 127.242 411.449 135.988 406.336 141.108L403.686 143.762C402.162 145.288 400.094 146.146 397.937 146.146V146.146Z" fill="url(#paint31_linear_781_3975)" fill-opacity="0.6"/>
<path d="M683.694 146.146C690.934 146.146 694.566 137.398 689.455 132.269L686.829 129.635C685.303 128.103 683.229 127.242 681.067 127.242V127.242C673.821 127.242 670.19 136 675.31 141.127L677.938 143.759C679.464 145.287 681.535 146.146 683.694 146.146V146.146Z" fill="url(#paint32_linear_781_3975)" fill-opacity="0.6"/>
<path d="M719.38 146.146C726.615 146.146 730.242 137.4 725.129 132.28L722.479 129.626C720.955 128.1 718.887 127.242 716.73 127.242V127.242C709.494 127.242 705.868 135.988 710.981 141.108L713.63 143.762C715.154 145.288 717.223 146.146 719.38 146.146V146.146Z" fill="url(#paint33_linear_781_3975)" fill-opacity="0.6"/>
<path d="M755.073 146.146C762.309 146.146 765.935 137.4 760.822 132.28L758.173 129.626C756.649 128.1 754.58 127.242 752.423 127.242V127.242C745.188 127.242 741.561 135.988 746.674 141.108L749.324 143.762C750.848 145.288 752.916 146.146 755.073 146.146V146.146Z" fill="url(#paint34_linear_781_3975)" fill-opacity="0.6"/>
<path d="M786.208 636.606C778.723 636.606 774.968 627.561 780.253 622.26L782.969 619.535C784.547 617.952 786.69 617.062 788.925 617.062V617.062C796.41 617.062 800.164 626.107 794.88 631.408L792.164 634.133C790.586 635.716 788.443 636.606 786.208 636.606V636.606Z" fill="url(#paint35_linear_781_3975)" fill-opacity="0.6"/>
<path d="M749.32 636.606C741.845 636.606 738.095 627.573 743.372 622.279L746.11 619.532C747.686 617.951 749.827 617.062 752.059 617.062V617.062C759.54 617.062 763.289 626.104 758.003 631.398L755.263 634.142C753.687 635.719 751.55 636.606 749.32 636.606V636.606Z" fill="url(#paint36_linear_781_3975)" fill-opacity="0.6"/>
<path d="M712.444 636.606C704.959 636.606 701.205 627.561 706.489 622.26L709.205 619.535C710.783 617.952 712.926 617.062 715.161 617.062V617.062C722.646 617.062 726.401 626.107 721.116 631.408L718.4 634.133C716.822 635.716 714.679 636.606 712.444 636.606V636.606Z" fill="url(#paint37_linear_781_3975)" fill-opacity="0.6"/>
<path d="M374.178 636.606C381.653 636.606 385.403 627.573 380.125 622.279L377.388 619.532C375.812 617.951 373.671 617.062 371.439 617.062V617.062C363.958 617.062 360.209 626.104 365.495 631.398L368.235 634.142C369.81 635.719 371.948 636.606 374.178 636.606V636.606Z" fill="url(#paint38_linear_781_3975)" fill-opacity="0.6"/>
<path d="M411.046 636.606C418.526 636.606 422.275 627.564 416.989 622.27L414.249 619.526C412.674 617.949 410.536 617.062 408.307 617.062V617.062C400.831 617.062 397.081 626.095 402.359 631.389L405.097 634.136C406.673 635.717 408.813 636.606 411.046 636.606V636.606Z" fill="url(#paint39_linear_781_3975)" fill-opacity="0.6"/>
<path d="M447.915 636.606C455.4 636.606 459.155 627.561 453.87 622.26L451.154 619.535C449.576 617.952 447.433 617.062 445.198 617.062V617.062C437.713 617.062 433.959 626.107 439.243 631.408L441.959 634.133C443.537 635.716 445.68 636.606 447.915 636.606V636.606Z" fill="url(#paint40_linear_781_3975)" fill-opacity="0.6"/>
<path d="M952.543 649.853L929.495 626.791C921.992 619.284 911.815 615.066 901.202 615.066H838.412C827.798 615.066 817.618 619.286 810.116 626.795L794.817 642.107H578.969H578.685H362.802L347.542 626.813C340.038 619.293 329.851 615.066 319.227 615.066H256.488C245.875 615.066 235.697 619.284 228.195 626.791L205.146 649.853L204.436 650.564V669.574L228.162 693.291C235.663 700.788 245.835 705 256.44 705H323.658C331.446 705 338.915 701.907 344.424 696.401V696.401L362.838 677.995H578.685H578.969H794.852L803.491 686.63L813.231 696.401V696.401C818.739 701.907 826.209 705 833.997 705H901.178C911.784 705 921.956 700.788 929.457 693.291L953.183 669.574L953.219 669.538V650.528L952.543 649.853Z" fill="url(#paint41_linear_781_3975)"/>
<defs>
<linearGradient id="paint0_linear_781_3975" x1="1264" y1="9.99805" x2="104.665" y2="639.274" gradientUnits="userSpaceOnUse">
<stop stop-color="#775BB4"/>
<stop offset="0.151042" stop-color="#4A337B"/>
<stop offset="0.375" stop-color="#232358"/>
<stop offset="0.5929" stop-color="#00004E"/>
<stop offset="0.8258" stop-color="#130048"/>
<stop offset="1" stop-color="#0D0042"/>
</linearGradient>
<linearGradient id="paint1_linear_781_3975" x1="200.506" y1="84.4573" x2="34.5004" y2="84.4575" gradientUnits="userSpaceOnUse">
<stop offset="0.0733933" stop-color="#68378F"/>
<stop offset="1" stop-color="#FFA627"/>
</linearGradient>
<linearGradient id="paint2_linear_781_3975" x1="953.531" y1="670.66" x2="1119.54" y2="670.66" gradientUnits="userSpaceOnUse">
<stop offset="0.0733933" stop-color="#6C3791"/>
<stop offset="1" stop-color="#FFA627"/>
</linearGradient>
<linearGradient id="paint3_linear_781_3975" x1="19.3624" y1="522.976" x2="19.3624" y2="564.773" gradientUnits="userSpaceOnUse">
<stop stop-color="#303F71"/>
<stop offset="1" stop-color="#6C3791"/>
</linearGradient>
<linearGradient id="paint4_linear_781_3975" x1="19.3624" y1="487.3" x2="19.3624" y2="529.132" gradientUnits="userSpaceOnUse">
<stop stop-color="#303F71"/>
<stop offset="1" stop-color="#6C3791"/>
</linearGradient>
<linearGradient id="paint5_linear_781_3975" x1="19.3624" y1="451.625" x2="19.3624" y2="493.457" gradientUnits="userSpaceOnUse">
<stop stop-color="#303F71"/>
<stop offset="1" stop-color="#6C3791"/>
</linearGradient>
<linearGradient id="paint6_linear_781_3975" x1="71" y1="200.729" x2="71.0008" y2="106" gradientUnits="userSpaceOnUse">
<stop stop-color="#6C3791"/>
<stop offset="1" stop-color="#FFA627"/>
</linearGradient>
<linearGradient id="paint7_linear_781_3975" x1="30.2448" y1="304.183" x2="49.0648" y2="301.351" gradientUnits="userSpaceOnUse">
<stop stop-color="#31349B"/>
<stop offset="0.9999" stop-color="#FFA627"/>
</linearGradient>
<linearGradient id="paint8_linear_781_3975" x1="30.2448" y1="268.511" x2="49.0648" y2="265.68" gradientUnits="userSpaceOnUse">
<stop stop-color="#31349B"/>
<stop offset="0.9999" stop-color="#FFA627"/>
</linearGradient>
<linearGradient id="paint9_linear_781_3975" x1="30.2448" y1="232.839" x2="49.0648" y2="230.008" gradientUnits="userSpaceOnUse">
<stop stop-color="#31349B"/>
<stop offset="0.9999" stop-color="#FFA627"/>
</linearGradient>
<linearGradient id="paint10_linear_781_3975" x1="14.4216" y1="190.092" x2="14.427" y2="454.055" gradientUnits="userSpaceOnUse">
<stop stop-color="#303F71"/>
<stop offset="1" stop-color="#6C3791"/>
</linearGradient>
<linearGradient id="paint11_linear_781_3975" x1="43.394" y1="534.678" x2="43.3797" y2="301.07" gradientUnits="userSpaceOnUse">
<stop offset="0.0733933" stop-color="#6C3791"/>
<stop offset="1" stop-color="#FFA627"/>
</linearGradient>
<linearGradient id="paint12_linear_781_3975" x1="30.5019" y1="670.66" x2="204.008" y2="670.66" gradientUnits="userSpaceOnUse">
<stop offset="0.0733933" stop-color="#6C3791"/>
<stop offset="1" stop-color="#FFA627"/>
</linearGradient>
<linearGradient id="paint13_linear_781_3975" x1="919" y1="85" x2="1053.48" y2="-12.0374" gradientUnits="userSpaceOnUse">
<stop stop-color="#6C3791"/>
<stop offset="0.9999" stop-color="#FFA627"/>
</linearGradient>
<linearGradient id="paint14_linear_781_3975" x1="1081.04" y1="537.727" x2="1081.04" y2="646.172" gradientUnits="userSpaceOnUse">
<stop offset="0.0733933" stop-color="#6C3791"/>
<stop offset="1" stop-color="#FFA627"/>
</linearGradient>
<linearGradient id="paint15_linear_781_3975" x1="1082.04" y1="200.396" x2="1082.04" y2="103.945" gradientUnits="userSpaceOnUse">
<stop offset="0.0733933" stop-color="#6C3791"/>
<stop offset="1" stop-color="#FFA627"/>
</linearGradient>
<linearGradient id="paint16_linear_781_3975" x1="72.0053" y1="537.727" x2="72.0063" y2="648.67" gradientUnits="userSpaceOnUse">
<stop offset="0.0733933" stop-color="#6C3791"/>
<stop offset="1" stop-color="#FFA627"/>
</linearGradient>
<linearGradient id="paint17_linear_781_3975" x1="1133.63" y1="521.98" x2="1133.63" y2="563.777" gradientUnits="userSpaceOnUse">
<stop stop-color="#303F71"/>
<stop offset="1" stop-color="#6C3791"/>
</linearGradient>
<linearGradient id="paint18_linear_781_3975" x1="1133.63" y1="486.3" x2="1133.63" y2="528.132" gradientUnits="userSpaceOnUse">
<stop stop-color="#303F71"/>
<stop offset="1" stop-color="#6C3791"/>
</linearGradient>
<linearGradient id="paint19_linear_781_3975" x1="1133.63" y1="450.629" x2="1133.63" y2="492.46" gradientUnits="userSpaceOnUse">
<stop stop-color="#303F71"/>
<stop offset="1" stop-color="#6C3791"/>
</linearGradient>
<linearGradient id="paint20_linear_781_3975" x1="1106.67" y1="304.183" x2="1125.49" y2="301.351" gradientUnits="userSpaceOnUse">
<stop stop-color="#31349B"/>
<stop offset="0.9999" stop-color="#FFA627"/>
</linearGradient>
<linearGradient id="paint21_linear_781_3975" x1="1106.67" y1="268.511" x2="1125.49" y2="265.68" gradientUnits="userSpaceOnUse">
<stop stop-color="#31349B"/>
<stop offset="0.9999" stop-color="#FFA627"/>
</linearGradient>
<linearGradient id="paint22_linear_781_3975" x1="1106.67" y1="232.839" x2="1125.49" y2="230.008" gradientUnits="userSpaceOnUse">
<stop stop-color="#31349B"/>
<stop offset="0.9999" stop-color="#FFA627"/>
</linearGradient>
<linearGradient id="paint23_linear_781_3975" x1="1138.59" y1="190.092" x2="1138.6" y2="454.055" gradientUnits="userSpaceOnUse">
<stop stop-color="#303F71"/>
<stop offset="1" stop-color="#6C3791"/>
</linearGradient>
<linearGradient id="paint24_linear_781_3975" x1="1109.94" y1="534.678" x2="1109.93" y2="301.07" gradientUnits="userSpaceOnUse">
<stop offset="0.0733933" stop-color="#6C3791"/>
<stop offset="1" stop-color="#FFA627"/>
</linearGradient>
<linearGradient id="paint25_linear_781_3975" x1="400.473" y1="120.548" x2="406.941" y2="68.7571" gradientUnits="userSpaceOnUse">
<stop stop-color="#6C3791"/>
<stop offset="0.9999" stop-color="#FFA627"/>
</linearGradient>
<linearGradient id="paint26_linear_781_3975" x1="576.194" y1="-0.437947" x2="576.194" y2="103.586" gradientUnits="userSpaceOnUse">
<stop stop-color="#303F71"/>
<stop offset="1" stop-color="#6C3791"/>
</linearGradient>
<linearGradient id="paint27_linear_781_3975" x1="322.451" y1="103.518" x2="464.087" y2="16.8139" gradientUnits="userSpaceOnUse">
<stop stop-color="#303F71"/>
<stop offset="0.9999" stop-color="#FFA627"/>
</linearGradient>
<linearGradient id="paint28_linear_781_3975" x1="843.494" y1="103.518" x2="679.304" y2="18.3001" gradientUnits="userSpaceOnUse">
<stop stop-color="#31349B"/>
<stop offset="0.9999" stop-color="#FFA627"/>
</linearGradient>
<linearGradient id="paint29_linear_781_3975" x1="452.846" y1="146.058" x2="480.453" y2="125.726" gradientUnits="userSpaceOnUse">
<stop stop-color="#31349B"/>
<stop offset="0.9999" stop-color="#FFA627"/>
</linearGradient>
<linearGradient id="paint30_linear_781_3975" x1="417.157" y1="146.058" x2="444.763" y2="125.726" gradientUnits="userSpaceOnUse">
<stop stop-color="#31349B"/>
<stop offset="0.9999" stop-color="#FFA627"/>
</linearGradient>
<linearGradient id="paint31_linear_781_3975" x1="381.467" y1="146.058" x2="409.074" y2="125.726" gradientUnits="userSpaceOnUse">
<stop stop-color="#31349B"/>
<stop offset="0.9999" stop-color="#FFA627"/>
</linearGradient>
<linearGradient id="paint32_linear_781_3975" x1="664.571" y1="146.058" x2="692.177" y2="125.726" gradientUnits="userSpaceOnUse">
<stop stop-color="#31349B"/>
<stop offset="0.9999" stop-color="#FFA627"/>
</linearGradient>
<linearGradient id="paint33_linear_781_3975" x1="700.26" y1="146.058" x2="727.867" y2="125.726" gradientUnits="userSpaceOnUse">
<stop stop-color="#31349B"/>
<stop offset="0.9999" stop-color="#FFA627"/>
</linearGradient>
<linearGradient id="paint34_linear_781_3975" x1="735.954" y1="146.058" x2="763.56" y2="125.726" gradientUnits="userSpaceOnUse">
<stop stop-color="#31349B"/>
<stop offset="0.9999" stop-color="#FFA627"/>
</linearGradient>
<linearGradient id="paint35_linear_781_3975" x1="769.182" y1="636.515" x2="797.717" y2="615.513" gradientUnits="userSpaceOnUse">
<stop stop-color="#31349B"/>
<stop offset="0.9999" stop-color="#FFA627"/>
</linearGradient>
<linearGradient id="paint36_linear_781_3975" x1="732.321" y1="636.515" x2="760.856" y2="615.513" gradientUnits="userSpaceOnUse">
<stop stop-color="#31349B"/>
<stop offset="0.9999" stop-color="#FFA627"/>
</linearGradient>
<linearGradient id="paint37_linear_781_3975" x1="695.419" y1="636.515" x2="723.953" y2="615.513" gradientUnits="userSpaceOnUse">
<stop stop-color="#31349B"/>
<stop offset="0.9999" stop-color="#FFA627"/>
</linearGradient>
<linearGradient id="paint38_linear_781_3975" x1="354.409" y1="636.515" x2="382.944" y2="615.513" gradientUnits="userSpaceOnUse">
<stop stop-color="#31349B"/>
<stop offset="0.9999" stop-color="#FFA627"/>
</linearGradient>
<linearGradient id="paint39_linear_781_3975" x1="391.307" y1="636.515" x2="419.842" y2="615.513" gradientUnits="userSpaceOnUse">
<stop stop-color="#31349B"/>
<stop offset="0.9999" stop-color="#FFA627"/>
</linearGradient>
<linearGradient id="paint40_linear_781_3975" x1="428.173" y1="636.515" x2="456.707" y2="615.513" gradientUnits="userSpaceOnUse">
<stop stop-color="#31349B"/>
<stop offset="0.9999" stop-color="#FFA627"/>
</linearGradient>
<linearGradient id="paint41_linear_781_3975" x1="579.018" y1="614.688" x2="579.018" y2="704.642" gradientUnits="userSpaceOnUse">
<stop stop-color="#303F71"/>
<stop offset="1" stop-color="#6C3791"/>
</linearGradient>
</defs>
</svg>
