<svg width="402" height="156" viewBox="0 0 402 156" fill="none" xmlns="http://www.w3.org/2000/svg">
<g clip-path="url(#clip0_605_121)">
<path d="M150.396 63.1506V56.6414C150.396 52.7766 152.623 50.5391 156.064 50.5391C159.708 50.5391 161.732 52.7766 161.732 56.6414V63.1506C161.732 67.0154 159.505 69.253 156.064 69.253C152.421 69.4564 150.396 67.0154 150.396 63.1506ZM158.493 63.1506V56.6414C158.493 54.6073 157.683 53.5902 156.064 53.5902C154.445 53.5902 153.635 54.6073 153.635 56.6414V63.1506C153.635 65.1847 154.445 66.2018 156.064 66.2018C157.683 66.2018 158.493 65.1847 158.493 63.1506Z" fill="#161B4A"/>
<path d="M164.16 63.1506V56.6414C164.16 52.7766 166.387 50.5391 169.828 50.5391C173.471 50.5391 175.496 52.7766 175.496 56.6414V63.1506C175.496 67.0154 173.269 69.253 169.828 69.253C166.387 69.4564 164.16 67.0154 164.16 63.1506ZM172.459 63.1506V56.6414C172.459 54.6073 171.65 53.5902 170.03 53.5902C168.411 53.5902 167.601 54.6073 167.601 56.6414V63.1506C167.601 65.1847 168.411 66.2018 170.03 66.2018C171.65 66.2018 172.459 65.1847 172.459 63.1506Z" fill="#161B4A"/>
<path d="M178.127 63.1506V56.6414C178.127 52.7766 180.354 50.5391 183.795 50.5391C187.438 50.5391 189.462 52.7766 189.462 56.6414V63.1506C189.462 67.0154 187.236 69.253 183.795 69.253C180.151 69.4564 178.127 67.0154 178.127 63.1506ZM186.224 63.1506V56.6414C186.224 54.6073 185.414 53.5902 183.795 53.5902C182.175 53.5902 181.366 54.6073 181.366 56.6414V63.1506C181.366 65.1847 182.175 66.2018 183.795 66.2018C185.414 66.2018 186.224 65.1847 186.224 63.1506Z" fill="#161B4A"/>
<path d="M197.357 63.5577V56.2349C197.357 52.3701 199.382 50.3359 202.823 50.3359C206.264 50.3359 208.288 52.3701 208.49 56.0315H205.252C205.049 54.2008 204.442 53.3871 202.823 53.3871C201.406 53.3871 200.596 54.2008 200.596 56.0315V63.5577C200.596 65.3884 201.406 66.2021 202.823 66.2021C204.442 66.2021 205.252 65.3884 205.252 63.5577H208.49C208.288 67.2191 206.264 69.2533 202.823 69.2533C199.382 69.4567 197.357 67.4226 197.357 63.5577Z" fill="#161B4A"/>
<path d="M221.444 69.0493H218.206V53.7934H213.752V69.0493H210.514V50.7422H221.242V69.0493H221.444Z" fill="#161B4A"/>
<path d="M229.34 62.9483V61.9312L232.174 58.0664H235.21L231.971 62.5415L235.21 67.0165H232.174L229.34 62.9483ZM234.4 62.9483V61.9312L237.234 58.0664H240.27L237.032 62.5415L240.27 67.0165H237.234L234.4 62.9483Z" fill="#161B4A"/>
<path d="M242.496 63.5577V56.2349C242.496 52.3701 244.52 50.3359 247.961 50.3359C251.402 50.3359 253.427 52.3701 253.629 56.0315H250.39C250.188 54.2008 249.581 53.3871 247.961 53.3871C246.544 53.3871 245.735 54.2008 245.735 56.0315V63.5577C245.735 65.3884 246.544 66.2021 247.961 66.2021C249.581 66.2021 250.39 65.3884 250.39 63.5577H253.629C253.427 67.2191 251.402 69.2533 247.961 69.2533C244.52 69.4567 242.496 67.4226 242.496 63.5577Z" fill="#161B4A"/>
<path d="M255.248 63.1506V56.6414C255.248 52.7766 257.475 50.5391 260.916 50.5391C264.559 50.5391 266.583 52.7766 266.583 56.6414V63.1506C266.583 67.0154 264.357 69.253 260.916 69.253C257.475 69.4564 255.248 67.0154 255.248 63.1506ZM263.547 63.1506V56.6414C263.547 54.6073 262.737 53.5902 261.118 53.5902C259.499 53.5902 258.689 54.6073 258.689 56.6414V63.1506C258.689 65.1847 259.499 66.2018 261.118 66.2018C262.737 66.2018 263.547 65.1847 263.547 63.1506Z" fill="#161B4A"/>
<path d="M282.574 65.9981V72.1005H279.335V69.0493H271.239V72.1005H268V65.9981H269.215C270.631 64.3708 271.239 61.523 271.239 58.8787L271.644 50.7422H280.955V65.9981H282.574ZM277.716 53.7934H274.477L274.275 59.8957C274.275 62.3367 273.668 64.3708 272.858 65.9981H277.716V53.7934Z" fill="#161B4A"/>
<path d="M295.53 56.8446C295.53 60.7094 293.304 62.9469 289.66 62.9469H287.838V69.0493H284.6V50.7422H289.66C293.506 50.7422 295.53 52.9797 295.53 56.8446ZM292.291 56.8446C292.291 54.8104 291.482 53.7934 289.66 53.7934H287.838V59.8957H289.66C291.482 59.8957 292.291 58.8787 292.291 56.8446Z" fill="#161B4A"/>
<path d="M307.675 50.7422L303.424 64.7776C302.21 68.439 300.995 69.2527 297.959 69.2527H297.352V66.4049H298.162C299.579 66.4049 300.186 65.7947 300.793 63.7606L296.34 50.7422H299.781L302.412 58.8787L304.841 50.7422H307.675Z" fill="#161B4A"/>
<path d="M319.819 61.7264L319.009 63.1503V69.0493H315.771V63.1503L314.961 61.7264L311.317 69.0493H307.674L313.139 59.0821L308.079 50.7422H311.722L314.556 56.0309L315.568 58.2684V50.7422H318.604V58.2684L319.819 56.0309L322.653 50.7422H326.296L321.236 59.0821L326.701 69.0493H323.26L319.819 61.7264Z" fill="#161B4A"/>
<path d="M337.835 65.9981V69.0493H328.523V50.7422H337.632V53.7934H331.762V58.2684H337.227V61.1162H331.762V65.7947H337.835V65.9981Z" fill="#161B4A"/>
<path d="M340.061 63.5577V56.2349C340.061 52.3701 342.085 50.3359 345.526 50.3359C348.967 50.3359 350.991 52.3701 351.193 56.0315H347.955C347.752 54.2008 347.145 53.3871 345.526 53.3871C344.109 53.3871 343.299 54.2008 343.299 56.0315V63.5577C343.299 65.3884 344.109 66.2021 345.526 66.2021C347.145 66.2021 347.955 65.3884 347.955 63.5577H351.193C350.991 67.2191 348.967 69.2533 345.526 69.2533C342.085 69.4567 340.061 67.4226 340.061 63.5577Z" fill="#161B4A"/>
<path d="M362.733 53.7934H359.089V69.0493H355.851V53.7934H352.207V50.7422H362.733V53.7934Z" fill="#161B4A"/>
<path d="M375.484 63.7606C375.484 67.0152 373.257 69.0493 370.221 69.0493H364.756V50.7422H370.019C372.853 50.7422 374.877 52.7763 374.877 55.8275C374.877 57.4548 374.269 58.8787 373.257 59.6923C374.674 60.506 375.484 61.9299 375.484 63.7606ZM367.792 53.7934V58.2684H369.614C370.828 58.2684 371.638 57.4548 371.638 56.0309C371.638 54.607 371.031 53.7934 369.614 53.7934H367.792ZM372.245 63.7606C372.245 62.1333 371.233 61.3196 369.614 61.3196H367.792V65.9981H369.614C371.436 65.9981 372.245 65.1844 372.245 63.7606Z" fill="#161B4A"/>
<path d="M377.508 63.1506V56.6414C377.508 52.7766 379.734 50.5391 383.175 50.5391C386.819 50.5391 388.843 52.7766 388.843 56.6414V63.1506C388.843 67.0154 386.617 69.253 383.175 69.253C379.532 69.4564 377.508 67.0154 377.508 63.1506ZM385.604 63.1506V56.6414C385.604 54.6073 384.795 53.5902 383.175 53.5902C381.556 53.5902 380.746 54.6073 380.746 56.6414V63.1506C380.746 65.1847 381.556 66.2018 383.175 66.2018C384.795 66.2018 385.604 65.1847 385.604 63.1506Z" fill="#161B4A"/>
<path d="M391.07 66.8115L394.309 62.3364L391.07 57.8613H394.107L396.94 61.7262V62.7432L394.107 66.608H391.07V66.8115ZM395.928 66.8115L399.167 62.3364L395.928 57.8613H398.965L401.798 61.7262V62.7432L398.965 66.608H395.928V66.8115Z" fill="#161B4A"/>
<path d="M105.863 129.666C104.041 113.393 92.0988 70.8804 36.0293 73.9315C84.0021 57.0483 118.413 97.3239 118.818 128.649C114.365 129.87 105.863 129.666 105.863 129.666Z" fill="#046FB7"/>
<path d="M21.0512 48.7087C36.03 55.2179 78.9424 64.9816 103.435 14.332C94.9334 64.7782 43.1146 75.3557 15.5859 60.71C16.8004 56.2349 21.0512 48.7087 21.0512 48.7087Z" fill="#FB331A"/>
<path d="M136.226 11.8911C122.057 20.6378 88.8605 50.1326 115.782 100.172C79.7517 63.5578 101.41 14.332 129.546 0.5C132.785 3.95801 136.226 11.8911 136.226 11.8911Z" fill="#6BD1F9"/>
<path d="M117.604 149.804C-4.6556 122.343 0.404834 51.5555 1.41692 44.0293C0.404834 49.1146 0 54.4033 0 59.692C0 111.359 41.6979 153.058 92.9094 153.058C101.411 153.262 109.71 152.041 117.604 149.804Z" fill="#6BD1F9"/>
</g>
<defs>
<clipPath id="clip0_605_121">
<rect width="402" height="155" fill="white" transform="translate(0 0.5)"/>
</clipPath>
</defs>
</svg>
