<svg width="33" height="44" viewBox="0 0 33 44" fill="none" xmlns="http://www.w3.org/2000/svg">
<path id="Vector" d="M4.125 14.6667C3.03098 14.6667 1.98177 15.1082 1.20819 15.894C0.434597 16.6799 0 17.7458 0 18.8571V39.8095C0 40.9209 0.434597 41.9868 1.20819 42.7726C1.98177 43.5585 3.03098 44 4.125 44H28.875C29.969 44 31.0182 43.5585 31.7918 42.7726C32.5654 41.9868 33 40.9209 33 39.8095V18.8571C33 17.7458 32.5654 16.6799 31.7918 15.894C31.0182 15.1082 29.969 14.6667 28.875 14.6667H10.3125V10.4762C10.3125 8.80912 10.9644 7.21032 12.1248 6.03152C13.2852 4.85272 14.859 4.19048 16.5 4.19048C18.141 4.19048 19.7148 4.85272 20.8752 6.03152C22.0356 7.21032 22.6875 8.80912 22.6875 10.4762H26.8125C26.8125 7.69773 25.726 5.03307 23.792 3.06841C21.8581 1.10374 19.235 0 16.5 0C15.1457 0 13.8047 0.270975 12.5536 0.797453C11.3024 1.32393 10.1656 2.0956 9.20796 3.06841C8.25036 4.04121 7.49074 5.1961 6.97249 6.46713C6.45424 7.73816 6.1875 9.10044 6.1875 10.4762V14.6667H4.125ZM16.5 33.5238C15.406 33.5238 14.3568 33.0823 13.5832 32.2964C12.8096 31.5106 12.375 30.4447 12.375 29.3333C12.375 28.222 12.8096 27.1561 13.5832 26.3702C14.3568 25.5844 15.406 25.1429 16.5 25.1429C17.594 25.1429 18.6432 25.5844 19.4168 26.3702C20.1904 27.1561 20.625 28.222 20.625 29.3333C20.625 30.4447 20.1904 31.5106 19.4168 32.2964C18.6432 33.0823 17.594 33.5238 16.5 33.5238Z" fill="white"/>
</svg>
