<svg width="33" height="44" viewBox="0 0 33 44" fill="none" xmlns="http://www.w3.org/2000/svg">
<path id="Vector" d="M28.875 14.6667C29.969 14.6667 31.0182 15.1082 31.7918 15.894C32.5654 16.6799 33 17.7458 33 18.8571V39.8095C33 40.9209 32.5654 41.9868 31.7918 42.7726C31.0182 43.5585 29.969 44 28.875 44H4.125C3.03098 44 1.98177 43.5585 1.20818 42.7726C0.434597 41.9868 0 40.9209 0 39.8095V18.8571C0 17.7458 0.434597 16.6799 1.20818 15.894C1.98177 15.1082 3.03098 14.6667 4.125 14.6667H22.6875V10.4762C22.6875 8.80912 22.0356 7.21032 20.8752 6.03152C19.7148 4.85272 18.141 4.19048 16.5 4.19048C14.859 4.19048 13.2852 4.85272 12.1248 6.03152C11.5114 6.65468 10.2819 8.5565 10.2819 10.4762C10.2819 10.4762 10.2819 13.8809 10.2819 14.6667H6.13654C6.13654 13.5807 6.13654 10.4762 6.13654 10.4762C6.28459 9.17255 6.45898 7.78735 6.98999 6.46713C7.48412 5.23859 8.30614 4.06632 9.20796 3.06841C11.1419 1.10374 13.765 0 16.5 0C17.8543 0 19.1953 0.270975 20.4464 0.797453C21.6976 1.32393 22.8344 2.0956 23.792 3.06841C24.7496 4.04121 25.5093 5.1961 26.0275 6.46713C26.5458 7.73816 26.8125 9.10044 26.8125 10.4762V14.6667H28.875ZM16.5 33.5238C17.594 33.5238 18.6432 33.0823 19.4168 32.2964C20.1904 31.5106 20.625 30.4447 20.625 29.3333C20.625 28.2219 20.1904 27.1561 19.4168 26.3702C18.6432 25.5844 17.594 25.1429 16.5 25.1429C15.406 25.1429 14.3568 25.5844 13.5832 26.3702C12.8096 27.1561 12.375 28.2219 12.375 29.3333C12.375 30.4447 12.8096 31.5106 13.5832 32.2964C14.3568 33.0823 15.406 33.5238 16.5 33.5238Z" fill="#D76060"/>
</svg>
