<svg width="102" height="50" viewBox="0 0 102 50" fill="none" xmlns="http://www.w3.org/2000/svg">
<path d="M19.0833 19.0315C18.9161 19.3927 18.7231 19.9473 18.4529 20.6567C18.2085 21.3532 18.0413 21.7917 17.9641 21.9594C17.4366 23.3911 16.8963 24.797 16.3431 26.1771L15.9572 27.0928C15.88 27.2089 15.5198 28.0086 15.404 28.331C15.1596 28.963 15.0438 29.2726 15.0181 29.2984C14.9409 29.5177 14.6836 30.0465 14.5807 30.2658C14.4135 30.6527 14.2848 30.9622 14.169 31.1815C14.0918 31.3492 13.8731 31.8651 13.7574 32.0715C13.7574 32.0973 13.7574 32.0973 13.7316 32.0973C11.609 32.0973 10.4769 32.0973 10.3096 32.0715C10.2839 32.0715 10.2839 32.0715 10.2839 32.0457C10.2582 31.8264 10.1167 31.4137 9.89798 30.7817C9.78219 30.3947 9.58923 29.9304 9.37053 29.3758C9.17756 28.9115 8.93313 28.2666 8.62438 27.3637L8.09693 25.8417L7.51802 24.3842L7.18354 23.3137L6.60464 21.4951L6 19.5346C6 19.5088 6 19.5088 6.02573 19.483C6.79761 19.1218 7.83964 18.9542 9.1647 18.9542C9.19042 18.9542 9.19042 18.9542 9.19042 18.98C9.29334 19.1992 9.49917 20.0505 9.62782 20.4116L9.84652 21.0694L10.3997 22.9526C10.6184 23.778 10.7599 24.2811 10.8371 24.4745C10.9143 24.6422 11.0043 24.8615 11.0815 25.1065C11.3002 25.7127 11.4417 26.4092 11.7119 27.0154C11.8277 27.325 11.9563 27.7893 12.1236 28.3955L12.7025 26.8478C13.8345 23.778 14.4649 22.0368 14.6322 21.6241C15.0181 20.6825 15.2111 20.1537 15.2368 20.0763L15.3526 19.7796C15.404 19.728 15.404 19.5862 15.4555 19.5346C15.4812 19.483 15.5713 19.4314 15.7642 19.3669C16.5618 19.0702 17.6682 18.9284 19.0447 18.9542C19.0833 18.98 19.109 19.0057 19.0833 19.0315Z" fill="white"/>
<path d="M28.9116 27.1586C28.5771 27.494 28.114 27.7648 27.5608 27.9325C27.7795 28.371 27.9982 28.758 28.2169 29.1191L28.6543 29.8027C28.8987 30.1381 29.066 30.4089 29.156 30.6024C29.349 30.9119 29.7607 31.7116 29.9279 32.0341V32.0599C29.9279 32.0857 29.9279 32.0857 29.9279 32.0857H29.9022V32.1115H27.072C27.0462 32.1115 27.0462 32.1115 27.0205 32.0857C26.9433 31.9696 26.686 31.5569 26.5831 31.3634L26.1972 30.6153L25.7598 29.9575L25.2323 29.0159C25.1294 28.8741 25.0136 28.629 24.8721 28.2678H24.1774C23.6886 28.2678 23.1611 28.1905 22.6851 28.1905C22.6851 28.1905 22.6851 28.3065 22.6851 28.3323C22.6337 29.0288 22.6079 29.4674 22.5951 29.6092C22.5951 30.022 22.6208 30.3831 22.6208 30.7959C22.6208 31.1312 22.6465 31.7116 22.6465 32.0599C22.6465 32.0857 22.6465 32.1115 22.6208 32.1115H21.2958H20.0222C19.9964 32.1115 19.9707 32.0857 19.9707 32.0599C20.0479 31.3634 20.0736 30.7056 20.0865 30.151L20.1637 27.4424L20.2666 24.7983C20.318 22.9409 20.2666 21.1868 20.1251 19.5746C20.1251 19.5488 20.1251 19.5488 20.1508 19.523C20.4596 19.3553 20.8455 19.2263 21.3086 19.1618C21.7717 19.0586 22.1577 19.0199 22.415 19.0199C22.6851 18.9941 23.0968 18.9941 23.65 18.9941C24.5891 18.9941 25.5025 19.0973 26.403 19.2908C27.445 19.5359 28.2169 19.8712 28.7444 20.3355C29.3747 20.8386 29.7607 21.5222 29.9279 22.3218C30.0952 23.2118 30.0951 24.1147 29.9794 25.0046C29.9022 25.3658 29.7607 25.7527 29.542 26.2171C29.2975 26.6556 29.1046 26.9651 28.9116 27.1586ZM22.7237 26.0494C23.3798 26.101 24.0745 26.1268 24.7821 26.101C26.0171 26.0752 26.7632 25.6108 27.0334 24.7467C27.3293 23.8051 27.2778 23.0054 26.8919 22.3476C26.403 21.5738 25.3224 21.6511 24.5248 21.6511L22.6723 21.8188C22.6465 22.4766 22.6465 22.9281 22.6465 23.1731C22.6851 23.9212 22.6851 25.3013 22.7237 26.0494Z" fill="white"/>
<path d="M84.3954 31.465H82.826H81.2565C81.2308 31.465 81.2307 31.465 81.2307 31.4392L80.8448 30.1107L80.4846 28.7822C80.3817 28.5113 80.2659 28.1502 80.0987 27.7374C78.9151 27.8148 77.3971 27.8535 75.5575 27.9309C75.2873 28.6274 75.03 29.2594 74.8113 29.8656C74.7084 30.1752 74.3096 31.0522 74.1809 31.4392C74.1552 31.465 74.1552 31.465 74.1295 31.465H70.7204C70.6689 31.465 70.6689 31.4392 70.6946 31.3876C70.7976 31.1683 71.1063 30.4718 71.2735 30.1752C71.4922 29.814 71.7109 29.3497 71.9682 28.8467L72.7916 27.0796C73.1518 26.28 73.4477 25.6996 73.6406 25.3384C74.0523 24.5387 74.7984 23.0812 75.1844 22.2429C75.3516 21.8559 75.789 20.966 75.982 20.5919C76.1235 20.2824 76.2779 19.9599 76.4194 19.702C76.4966 19.5085 76.5866 19.3408 76.6638 19.1731C76.7667 19.0055 76.8311 18.9023 76.8568 18.8765C76.9082 18.8249 77.0498 18.7604 77.3199 18.683C77.5386 18.6056 77.783 18.5669 78.0403 18.4895C78.5935 18.3864 79.2239 18.3477 79.88 18.3477C79.9057 18.3477 79.9057 18.3477 79.9314 18.3735C80.0472 18.7862 80.4589 19.9212 81.1922 21.7398C81.4623 22.4234 81.7711 23.3908 82.1827 24.6161C82.5944 25.8543 82.9031 26.6927 83.0704 27.2086L83.7908 29.1949C84.0867 30.0849 84.4469 30.8201 84.8714 31.4005C84.9229 31.5166 84.5884 31.465 84.3954 31.465ZM79.2753 25.4416C79.0309 24.7451 78.8894 24.2808 78.8122 24.1131L78.0403 21.843L77.4614 23.1715C77.2427 23.6617 77.0755 24.0615 76.9597 24.4355C76.8439 24.7064 76.6252 25.3513 76.548 25.6222L77.9245 25.5448L79.2753 25.4416Z" fill="white"/>
<path d="M94.6987 26.525C94.3642 26.8604 93.9011 27.1312 93.3479 27.2989C93.5666 27.7374 93.7853 28.1244 94.004 28.4855L94.4414 29.1691C94.6859 29.5045 94.8531 29.7753 94.9431 29.9688C95.1361 30.2784 95.5478 31.078 95.715 31.4005V31.4263C95.715 31.4521 95.715 31.4521 95.715 31.4521H95.6893V31.4779H92.8591C92.8333 31.4779 92.8333 31.4779 92.8076 31.4521C92.7304 31.336 92.4731 30.9233 92.3702 30.7298L91.9843 29.9817L91.5469 29.3239L91.0323 28.3694C90.9294 28.2276 90.8136 27.9825 90.6721 27.6214H89.9774C89.4885 27.6214 88.9611 27.544 88.4851 27.544C88.4851 27.544 88.4851 27.6601 88.4851 27.6859C88.4337 28.3823 88.4079 28.8209 88.3822 28.9628C88.3822 29.3755 88.4079 29.7366 88.4079 30.1494C88.4079 30.4847 88.4337 31.0651 88.4337 31.4134C88.4337 31.4392 88.4336 31.465 88.4079 31.465H87.0829H85.8093C85.7835 31.465 85.7578 31.4392 85.7578 31.4134C85.835 30.7169 85.8607 30.0591 85.8736 29.5045L85.9508 26.7959L86.0537 24.1518C86.1052 22.2945 86.0537 20.5403 85.9122 18.9281C85.9122 18.9023 85.9122 18.9023 85.9379 18.8765C86.2467 18.7088 86.6326 18.5798 87.0957 18.5153C87.5589 18.4121 87.9448 18.3735 88.2021 18.3735C88.4722 18.3477 88.8839 18.3477 89.4371 18.3477C90.3762 18.3477 91.2896 18.4508 92.1901 18.6443C93.2322 18.8894 94.004 19.2247 94.5315 19.6891C95.1618 20.1921 95.5478 20.8757 95.715 21.6754C95.8823 22.5653 95.8823 23.4682 95.7665 24.3582C95.6893 24.7193 95.5478 25.1062 95.3291 25.5706C95.0847 26.022 94.8917 26.3316 94.6987 26.525ZM88.5237 25.4158C89.1798 25.4674 89.8745 25.4932 90.5692 25.4674C91.8042 25.4416 92.5503 24.9773 92.8205 24.1131C93.1164 23.1715 93.0649 22.3719 92.679 21.714C92.1901 20.9402 91.1095 21.0176 90.3119 21.0176L88.4465 21.1852C88.4208 21.843 88.4208 22.2945 88.4208 22.5395C88.4722 23.2876 88.4722 24.6677 88.5237 25.4158Z" fill="white"/>
<path d="M51.078 33.6572C50.7435 33.812 50.4605 33.8249 50.2032 33.7346C49.8301 33.5798 49.7144 33.1671 49.8816 32.8059C49.8945 32.8059 49.8945 32.793 49.8816 32.7801C49.6243 32.7027 49.3156 32.6254 48.9682 32.5351C48.9682 32.5222 48.9553 32.5222 48.9425 32.5351C48.8138 32.9736 48.8267 33.3605 48.9682 33.6959C49.2255 34.2634 49.7658 34.6503 50.3833 34.7535C50.9108 34.8567 51.5283 34.6632 51.9914 34.3279C52.4545 33.9925 52.7633 33.4766 52.8147 32.922L51.7598 32.9865C51.6055 33.296 51.3868 33.5153 51.078 33.6572Z" fill="white"/>
<path d="M68.6758 20.9279C68.5471 19.9218 68.4056 19.1093 68.2127 18.4902L67.6209 15.859C67.6209 15.8074 67.5566 15.7687 67.4922 15.8074C65.6397 15.8461 63.9287 15.8847 62.4364 15.8719C60.9184 13.6405 58.9759 12.1056 56.6088 11.3575C53.7528 10.4676 50.6782 10.6739 47.4106 11.8735C45.9054 12.441 44.5546 13.1762 43.4611 13.9629C42.7407 14.4918 42.0589 15.1109 41.4285 15.8461C39.6532 15.8976 37.4791 15.8461 35.0477 15.7945C34.9834 15.7429 34.919 15.7945 34.919 15.8461L34.3273 18.4773C34.1343 19.0964 33.9928 19.9089 33.8641 20.915C33.5297 22.8755 33.5297 24.5522 33.8641 26.2161C34.1986 27.6994 34.919 28.9376 35.9739 29.9436C36.5786 30.4982 37.2733 30.9368 38.0966 31.2979C38.4697 32.2911 38.9843 33.2455 39.6146 34.1226C41.2227 36.47 43.5641 38.0823 46.5744 38.9723C49.6362 39.8622 52.505 39.8622 55.2065 38.9207C57.9081 38.0823 60.1465 36.5216 61.9604 34.1742C62.5908 33.3616 63.1311 32.5103 63.5943 31.6204C64.8035 31.2076 65.7684 30.6659 66.566 29.9307C67.6209 28.9247 68.3542 27.6865 68.6758 26.2032C69.0103 24.5522 69.0103 22.8884 68.6758 20.9279ZM55.5281 13.5502C57.4964 13.9629 59.0402 14.7884 60.198 15.8461C57.7409 15.7945 54.2674 15.5752 52.1062 15.5752C52.0676 15.5752 51.7845 15.5752 51.2828 15.5881C50.7811 15.5752 50.4981 15.5752 50.4595 15.5752C49.1344 15.5752 47.3334 15.6526 45.5709 15.73C48.3497 13.6792 51.9003 12.6602 55.5281 13.5502ZM52.8652 37.2439C49.4818 37.8759 47.3077 37.8114 44.9534 36.7151C43.1138 35.967 41.7244 34.4579 40.7596 32.2782C40.7338 32.2266 40.721 32.175 40.6953 32.1234C43.2682 32.678 44.7219 32.4072 46.6902 31.7107C47.7322 31.3753 50.1507 28.8086 51.1284 28.8086C52.878 28.8215 54.5762 31.6333 55.6182 31.9557C56.8918 32.4072 58.011 32.5877 59.3489 32.5103C59.5548 32.4974 59.7477 32.4845 59.9664 32.4588C59.9407 33.6325 59.053 36.096 52.8652 37.2439ZM62.3078 32.0073C62.4236 31.9815 62.5394 31.9428 62.668 31.917C62.5394 31.9557 62.4236 31.9815 62.3078 32.0073ZM65.7812 27.6478C65.5239 28.3701 65.0994 28.9376 64.5334 29.3503C64.0702 29.6857 63.5171 29.9049 62.8996 30.0339C62.2306 30.1629 61.6002 30.2145 61.0342 30.2016C59.5419 30.1758 58.3841 29.6986 57.5093 28.8086C56.6602 27.867 53.8815 25.8291 50.9355 25.8291C49.2888 25.8291 45.4294 27.867 44.5804 28.8086C43.5255 29.892 42.0332 30.3564 40.0649 30.1629C39.7819 30.1371 39.486 30.0984 39.1772 30.0339C38.5469 29.9178 37.9937 29.6857 37.5306 29.3503C36.9645 28.9376 36.54 28.383 36.2827 27.6478C35.6266 25.971 35.5365 24.0363 35.9096 21.921L36.3727 20.4249L36.9259 18.7481C37.016 18.6578 37.299 18.5675 37.6721 18.5675H38.3282C38.7012 18.5804 39.0872 18.5804 39.486 18.5804C40.4637 18.5933 41.5186 18.5933 42.5863 18.6062C45.7639 18.6191 49.1087 18.5933 51.0255 18.5546C53.4955 18.6062 58.3841 18.632 62.1663 18.5933C62.7066 18.5933 63.234 18.5804 63.7229 18.5675H63.9416H64.3661C64.7392 18.5675 65.0222 18.6578 65.1123 18.7481L65.6655 20.4249L66.1286 21.921C66.5274 24.0363 66.4373 25.9839 65.7812 27.6478Z" fill="white"/>
<path d="M39.5135 20.2702C38.9603 20.1026 37.9311 20.1155 37.9311 20.1155C37.9311 20.1155 37.6481 22.2823 37.7896 22.837L38.2527 22.5016C38.2399 22.1405 38.5744 21.2118 38.7545 21.0183C39.0375 20.7346 40.1181 20.7088 40.3883 20.9925L40.414 20.9538C40.414 20.9538 40.4269 20.928 40.5941 20.7088C40.607 20.6959 40.607 20.6959 40.5941 20.683C40.131 20.4637 39.8608 20.3734 39.5135 20.2702Z" fill="white"/>
<path d="M61.6641 20.4898L61.9085 20.9928C62.2558 20.9025 63.478 21.1476 63.7095 21.2895C64.044 21.5087 64.2113 22.9791 63.9797 23.3016L64.0183 23.3145C64.0183 23.3145 64.044 23.3273 64.3013 23.4434C64.3142 23.4563 64.3142 23.4563 64.327 23.4434C64.5329 23.0436 64.4943 22.6695 64.5071 22.2955C64.52 21.7151 64.2498 20.4898 64.2498 20.4898C64.2498 20.4898 62.1786 20.2447 61.6641 20.4898Z" fill="white"/>
</svg>
