<svg width="32" height="33" viewBox="0 0 32 33" fill="none" xmlns="http://www.w3.org/2000/svg">
<path d="M0.588427 1.05268C2.26043 -0.619322 6.75109 1.96868 10.2698 4.47668C12.0058 3.64334 13.9431 3.16601 15.9951 3.16601C23.3471 3.16601 29.3284 9.14734 29.3284 16.4993C29.3284 18.5513 28.8511 20.4887 28.0164 22.2247C30.5431 25.7673 33.1164 30.2407 31.4471 31.91C31.0684 32.2887 30.5458 32.478 29.8818 32.478C28.4951 32.478 26.4924 31.654 23.8964 30.0127C23.1898 29.566 22.4511 29.0567 21.6978 28.5153C19.9658 29.346 18.0404 29.8313 15.9951 29.8313C8.64309 29.8313 2.66176 23.85 2.66176 16.498C2.66176 14.4527 3.14843 12.5273 3.97776 10.7953C3.43643 10.0433 2.92843 9.30468 2.4831 8.60068C0.0550957 4.76068 -0.580906 2.22201 0.588427 1.05268ZM4.67776 9.48201C5.4231 10.5447 6.28709 11.686 7.26176 12.8847C7.27509 12.9007 7.28843 12.9167 7.30176 12.934C7.58576 13.282 7.88176 13.6367 8.18443 13.994C8.27776 14.1047 8.37109 14.214 8.46576 14.3247C8.72443 14.6273 8.98976 14.9327 9.26176 15.242C9.4271 15.43 9.59643 15.618 9.76709 15.806C9.99376 16.058 10.2191 16.31 10.4538 16.5647C10.7084 16.842 10.9711 17.1193 11.2338 17.398C11.4058 17.5793 11.5724 17.7607 11.7484 17.9433C12.2018 18.4167 12.6631 18.8887 13.1351 19.3607C13.6058 19.8313 14.0778 20.2913 14.5498 20.7447C14.7378 20.926 14.9244 21.0967 15.1111 21.274C15.3844 21.5313 15.6564 21.7887 15.9298 22.0393C16.1844 22.274 16.4364 22.4993 16.6884 22.726C16.8791 22.8967 17.0684 23.0687 17.2591 23.2353C17.5604 23.5007 17.8591 23.7607 18.1564 24.014C18.2778 24.118 18.3991 24.2207 18.5204 24.3233C18.8644 24.614 19.2058 24.8993 19.5404 25.1727C19.5791 25.2047 19.6191 25.2353 19.6578 25.2673C20.8231 26.214 21.9351 27.0553 22.9724 27.7847C23.5311 28.1767 24.0818 28.55 24.6124 28.886C28.4724 31.326 30.1324 31.3433 30.5084 30.9673C30.9884 30.4873 30.4644 28.102 27.2991 23.534C26.4644 24.866 25.4084 26.0473 24.1724 27.01C21.5058 25.1807 18.0591 22.398 14.0791 18.418C10.0978 14.4367 7.31909 10.9873 5.49109 8.31934C6.45376 7.08468 7.63376 6.03268 8.96309 5.19801C4.39243 2.03401 2.00843 1.52068 1.53376 1.99534C1.15909 2.37001 1.17509 4.03268 3.61243 7.88734C3.93509 8.40334 4.29776 8.93934 4.67776 9.48201Z" fill="#FFA627"/>
</svg>
