<svg width="40" height="40" viewBox="0 0 40 40" fill="none" xmlns="http://www.w3.org/2000/svg">
<path d="M0.736996 0.691336C2.827 -1.39866 8.44033 1.83634 12.8387 4.97134C15.0087 3.92967 17.4303 3.333 19.9953 3.333C29.1853 3.333 36.662 10.8097 36.662 19.9997C36.662 22.5647 36.0653 24.9863 35.022 27.1563C38.1803 31.5847 41.397 37.1763 39.3103 39.263C38.837 39.7363 38.1837 39.973 37.3537 39.973C35.6203 39.973 33.117 38.943 29.872 36.8913C28.9887 36.333 28.0653 35.6963 27.1237 35.0197C24.9587 36.058 22.552 36.6647 19.9953 36.6647C10.8053 36.6647 3.32866 29.188 3.32866 19.998C3.32866 17.4413 3.937 15.0347 4.97366 12.8697C4.297 11.9297 3.662 11.0063 3.10533 10.1263C0.0703316 5.32634 -0.72467 2.153 0.736996 0.691336ZM5.84867 11.228C6.78033 12.5563 7.86033 13.983 9.07867 15.4813C9.09533 15.5013 9.112 15.5213 9.12866 15.543C9.48366 15.978 9.85366 16.4213 10.232 16.868C10.3487 17.0063 10.4653 17.143 10.5837 17.2813C10.907 17.6597 11.2387 18.0413 11.5787 18.428C11.7853 18.663 11.997 18.898 12.2103 19.133C12.4937 19.448 12.7753 19.763 13.0687 20.0813C13.387 20.428 13.7153 20.7747 14.0437 21.123C14.2587 21.3497 14.467 21.5763 14.687 21.8047C15.2537 22.3963 15.8303 22.9863 16.4203 23.5763C17.0087 24.1647 17.5987 24.7397 18.1887 25.3063C18.4237 25.533 18.657 25.7463 18.8903 25.968C19.232 26.2897 19.572 26.6113 19.9137 26.9247C20.232 27.218 20.547 27.4997 20.862 27.783C21.1003 27.9963 21.337 28.2113 21.5753 28.4197C21.952 28.7513 22.3253 29.0763 22.697 29.393C22.8487 29.523 23.0003 29.6513 23.152 29.7797C23.582 30.143 24.0087 30.4997 24.427 30.8413C24.4753 30.8813 24.5253 30.9197 24.5737 30.9597C26.0303 32.143 27.4203 33.1947 28.717 34.1063C29.4153 34.5963 30.1037 35.063 30.767 35.483C35.592 38.533 37.667 38.5547 38.137 38.0847C38.737 37.4847 38.082 34.503 34.1253 28.793C33.082 30.458 31.762 31.9347 30.217 33.138C26.8837 30.8513 22.5753 27.373 17.6003 22.398C12.6237 17.4213 9.15033 13.1097 6.86533 9.77467C8.06866 8.23133 9.54366 6.91634 11.2053 5.873C5.492 1.918 2.512 1.27634 1.91866 1.86967C1.45033 2.338 1.47033 4.41634 4.517 9.23467C4.92033 9.87967 5.37366 10.5497 5.84867 11.228Z" fill="#FFA627"/>
</svg>
