<svg width="40" height="40" viewBox="0 0 40 40" fill="none" xmlns="http://www.w3.org/2000/svg">
<path d="M20 0C8.9543 0 0 8.9543 0 20C0 31.0457 8.9543 40 20 40C31.0457 40 40 31.0457 40 20C40 8.9543 31.0457 0 20 0ZM24.7852 7.47313C26.3565 7.48763 27.8359 8.19223 29.2261 9.5825C30.7699 11.1628 31.6559 13.1806 31.0792 15.5127C30.7496 16.7484 29.9687 18.011 28.733 19.3017C24.9898 22.9729 21.6239 26.3932 17.3218 30.6714C16.4989 31.4799 15.0287 32.467 13.5327 32.5269C12.2885 32.5171 11.2855 32.0055 10.3589 31.084C9.37313 30.0857 8.64417 28.7875 8.75247 27.1705C8.88977 26.017 9.45327 24.9462 10.4419 23.9575L20.0415 14.3604C21.4602 12.9541 23.4571 11.8655 25.354 13.4937C27.0692 15.2704 25.9737 17.1938 24.4483 18.7671L15.5908 27.583L13.9014 25.852L22.7173 17.0361C23.12 16.6318 23.9427 15.9246 23.6231 15.1831C23.2065 14.807 22.2085 15.6496 21.77 16.0888L12.1729 25.6885C11.6929 26.1719 11.2755 26.68 11.1841 27.4169C11.1017 28.0485 11.3893 28.6939 12.0484 29.353C13.3261 30.5381 14.2155 30.1996 15.5908 28.9428C19.2504 25.2832 22.1873 22.3782 25.9522 18.6229C27.1898 17.3853 28.0843 16.6052 28.7329 14.8949C29.2445 12.9672 27.2649 10.2265 25.0244 9.912C23.554 9.7748 22.2717 10.7403 21.1939 11.765L10.6885 22.2681L8.95997 20.5811L19.4629 10.0342C21.1107 8.41397 22.7789 7.56287 24.4678 7.4805C24.5733 7.47533 24.6804 7.4722 24.7852 7.47313Z" fill="#FFA627"/>
</svg>
