<svg width="1154" height="707" viewBox="0 0 1154 707" fill="none" xmlns="http://www.w3.org/2000/svg">
<path d="M1104.28 104.432H49.3281C38.2824 104.432 29.3281 113.386 29.3281 124.432V632.705C29.3281 643.751 38.2824 652.705 49.3281 652.705H1104.28C1115.32 652.705 1124.28 643.751 1124.28 632.705V124.432C1124.28 113.386 1115.32 104.432 1104.28 104.432Z" fill="url(#paint0_linear_496_2546)"/>
<path d="M240.769 84.957C250.177 84.957 254.111 96.9782 246.524 102.541C244.897 103.734 242.939 104.391 240.922 104.423L117.246 106.364C113.809 106.418 110.443 107.357 107.475 109.09L59.9878 136.821C45.3257 145.383 27.3373 132.933 30.1858 116.194L32.6692 101.602C34.305 91.9889 42.6347 84.957 52.3857 84.957H240.769Z" fill="url(#paint1_linear_496_2546)"/>
<path d="M916.178 670.16C905.912 670.16 901.492 657.142 909.636 650.892C911.513 649.452 913.812 648.671 916.178 648.671H1037.62C1041.17 648.671 1044.65 647.729 1047.71 645.942L1095.05 618.297C1109.71 609.735 1127.7 622.185 1124.85 638.923L1122.37 653.515C1120.73 663.128 1112.4 670.16 1102.65 670.16L916.178 670.16Z" fill="url(#paint2_linear_496_2546)"/>
<path d="M10.4199 542.736C10.4199 535.502 19.1623 531.875 24.2833 536.984L26.909 539.604C28.4367 541.128 29.2953 543.198 29.2953 545.356C29.2953 552.59 20.5529 556.217 15.4319 551.107L12.8062 548.487C11.2785 546.963 10.4199 544.894 10.4199 542.736Z" fill="url(#paint3_linear_496_2546)"/>
<path d="M10.4199 507.064C10.4199 499.828 19.164 496.201 24.286 501.311L26.9081 503.927C28.4364 505.452 29.2953 507.522 29.2953 509.681C29.2953 516.922 20.5417 520.549 15.4208 515.43L12.8012 512.811C11.2765 511.287 10.4199 509.22 10.4199 507.064Z" fill="url(#paint4_linear_496_2546)"/>
<path d="M10.4199 471.392C10.4199 464.161 19.1617 460.539 24.2756 465.651L26.9167 468.291C28.4396 469.814 29.2953 471.879 29.2953 474.032C29.2953 481.263 20.5535 484.885 15.4396 479.773L12.7985 477.133C11.2756 475.61 10.4199 473.545 10.4199 471.392Z" fill="url(#paint5_linear_496_2546)"/>
<path d="M48.3551 103.947C37.9423 103.947 29.5011 112.388 29.5011 122.801V212.892H48.3551V180.192C48.3551 174.97 50.3974 169.955 54.0455 166.219L114.504 104.303L48.3551 103.947Z" fill="url(#paint6_linear_496_2546)"/>
<path d="M29.332 282.138C29.332 274.904 38.0744 271.277 43.1954 276.387L45.8567 279.042C47.3844 280.566 48.2429 282.635 48.2429 284.793C48.2429 292.027 39.5006 295.654 34.3796 290.545L31.7183 287.89C30.1906 286.366 29.332 284.296 29.332 282.138Z" fill="url(#paint7_linear_496_2546)"/>
<path d="M29.332 246.464C29.332 239.23 38.0744 235.603 43.1954 240.713L45.8567 243.368C47.3844 244.892 48.2429 246.962 48.2429 249.12C48.2429 256.354 39.5006 259.981 34.3796 254.871L31.7183 252.216C30.1906 250.692 29.332 248.622 29.332 246.464Z" fill="url(#paint8_linear_496_2546)"/>
<path d="M29.332 210.819C29.332 203.575 38.0862 199.943 43.2141 205.06L45.854 207.693C47.3834 209.219 48.2429 211.291 48.2429 213.452C48.2429 220.69 39.4983 224.323 34.3693 219.215L31.7269 216.584C30.1938 215.057 29.332 212.983 29.332 210.819Z" fill="url(#paint9_linear_496_2546)"/>
<path d="M4.71754 215.835C13.7963 206.748 29.3285 213.178 29.3285 226.023V420.317C29.3285 433.157 13.8051 439.589 4.72382 430.511C2.01941 427.808 0.5 424.141 0.5 420.317V226.023C0.5 222.202 2.01697 218.538 4.71754 215.835Z" fill="url(#paint10_linear_496_2546)"/>
<path d="M29.3281 564.938V301.07L52.2692 324.031C56.0162 327.781 58.121 332.865 58.121 338.167V527.841C58.121 533.143 56.0162 538.227 52.2691 541.978L29.3281 564.938Z" fill="url(#paint11_linear_496_2546)"/>
<path d="M235.812 670.66C246.349 670.66 250.851 657.271 242.455 650.905C240.543 649.456 238.211 648.671 235.812 648.671H115.03C112.051 648.671 109.109 648.006 106.42 646.723L57.4073 623.343C42.7577 616.355 26.3242 628.807 29.0887 644.801L30.6903 654.067C32.3478 663.656 40.6667 670.66 50.398 670.66H235.812Z" fill="url(#paint12_linear_496_2546)"/>
<path d="M883.531 84.957L912.032 104.447H1042.04L1124.02 151.923V104.957C1124.02 93.9113 1115.07 84.957 1104.02 84.957H883.531Z" fill="url(#paint13_linear_496_2546)"/>
<path d="M1105.79 648.53C1116.22 648.53 1124.67 640.079 1124.67 629.654V537.738H1105.79V572.363C1105.79 577.592 1103.75 582.613 1100.09 586.35L1039.07 648.708L1105.79 648.53Z" fill="url(#paint14_linear_496_2546)"/>
<path d="M1105.68 103.947C1116.1 103.947 1124.54 112.388 1124.54 122.801V212.892H1105.68V180.192C1105.68 174.97 1103.64 169.955 1099.99 166.219L1039.54 104.303L1105.68 103.947Z" fill="url(#paint15_linear_496_2546)"/>
<path d="M48.2084 648.526C37.7639 648.526 29.2969 640.059 29.2969 629.615V537.734H48.2084V572.356C48.2084 577.587 50.2577 582.609 53.917 586.347L114.79 648.526H48.2084Z" fill="url(#paint16_linear_496_2546)"/>
<path d="M1143.58 541.732C1143.58 534.495 1134.84 530.863 1129.71 535.97L1127.07 538.605C1125.54 540.131 1124.67 542.204 1124.67 544.367C1124.67 551.604 1133.42 555.236 1138.54 550.13L1141.19 547.495C1142.72 545.968 1143.58 543.895 1143.58 541.732Z" fill="url(#paint17_linear_496_2546)"/>
<path d="M1143.58 506.054C1143.58 498.816 1134.84 495.183 1129.71 500.291L1127.07 502.922C1125.54 504.449 1124.67 506.523 1124.67 508.687C1124.67 515.931 1133.43 519.563 1138.56 514.446L1141.2 511.812C1142.73 510.286 1143.58 508.215 1143.58 506.054Z" fill="url(#paint18_linear_496_2546)"/>
<path d="M1143.58 470.386C1143.58 463.152 1134.84 459.525 1129.72 464.635L1127.06 467.29C1125.53 468.814 1124.67 470.884 1124.67 473.042C1124.67 480.276 1133.42 483.903 1138.54 478.793L1141.2 476.138C1142.73 474.614 1143.58 472.544 1143.58 470.386Z" fill="url(#paint19_linear_496_2546)"/>
<path d="M1124.67 282.138C1124.67 274.904 1115.93 271.277 1110.81 276.387L1108.15 279.042C1106.62 280.566 1105.76 282.635 1105.76 284.793C1105.76 292.027 1114.5 295.654 1119.62 290.545L1122.28 287.89C1123.81 286.366 1124.67 284.296 1124.67 282.138Z" fill="url(#paint20_linear_496_2546)"/>
<path d="M1124.67 246.464C1124.67 239.23 1115.93 235.603 1110.81 240.713L1108.15 243.368C1106.62 244.892 1105.76 246.962 1105.76 249.12C1105.76 256.354 1114.5 259.981 1119.62 254.871L1122.28 252.216C1123.81 250.692 1124.67 248.622 1124.67 246.464Z" fill="url(#paint21_linear_496_2546)"/>
<path d="M1124.67 210.819C1124.67 203.575 1115.92 199.943 1110.79 205.06L1108.15 207.693C1106.62 209.219 1105.76 211.291 1105.76 213.452C1105.76 220.69 1114.5 224.323 1119.63 219.215L1122.28 216.584C1123.81 215.057 1124.67 212.983 1124.67 210.819Z" fill="url(#paint22_linear_496_2546)"/>
<path d="M1149.28 215.835C1140.2 206.748 1124.67 213.178 1124.67 226.023V420.317C1124.67 433.157 1140.2 439.589 1149.28 430.511C1151.98 427.808 1153.5 424.141 1153.5 420.317V226.023C1153.5 222.202 1151.98 218.538 1149.28 215.835Z" fill="url(#paint23_linear_496_2546)"/>
<path d="M1124.67 564.938V301.07L1101.73 324.031C1097.98 327.781 1095.88 332.865 1095.88 338.167V527.841C1095.88 533.143 1097.98 538.227 1101.73 541.978L1124.67 564.938Z" fill="url(#paint24_linear_496_2546)"/>
<path d="M763.141 104.432C770.802 104.432 774.638 113.696 769.22 119.112C767.607 120.724 765.421 121.63 763.141 121.63H390.823C388.543 121.63 386.356 120.724 384.744 119.112C379.325 113.696 383.161 104.432 390.823 104.432H763.141Z" fill="url(#paint25_linear_496_2546)"/>
<path d="M928.66 85.0684L811.268 3.57098C807.919 1.24597 803.939 0 799.862 0H709.084C705.006 0 701.025 1.24701 697.675 3.57383L658.09 31.0693C654.741 33.3961 650.759 34.6431 646.681 34.6431H506.245C502.166 34.6431 498.185 33.3961 494.835 31.0693L455.251 3.57383C451.901 1.24701 447.92 0 443.841 0H353.063C348.986 0 345.007 1.24597 341.658 3.57097L224.266 85.0684C215.902 90.8759 220.011 104 230.194 104H922.745C932.93 104 937.033 90.8667 928.66 85.0684ZM414.519 5.98027C420.312 5.98027 422.646 13.45 417.883 16.7481L410.423 21.9145C409.434 22.599 408.261 22.9656 407.058 22.9656C401.265 22.9656 398.931 15.4959 403.694 12.1979L411.155 7.0314C412.143 6.34696 413.317 5.98027 414.519 5.98027ZM382.307 5.98027C388.091 5.98027 390.421 13.438 385.666 16.7308L378.178 21.9156C377.191 22.5993 376.019 22.9656 374.818 22.9656C369.029 22.9656 366.699 15.4997 371.461 12.2072L378.951 7.02744C379.938 6.34555 381.108 5.98027 382.307 5.98027ZM346.709 7.02744C347.695 6.34554 348.866 5.98027 350.065 5.98027C355.848 5.98027 358.178 13.438 353.423 16.7308L345.936 21.9157C344.949 22.5993 343.776 22.9656 342.575 22.9656C336.786 22.9656 334.457 15.4997 339.218 12.2073L346.709 7.02744ZM802.891 5.98027C804.093 5.98027 805.267 6.34697 806.255 7.03141L813.716 12.1978C818.479 15.4959 816.145 22.9656 810.352 22.9656C809.15 22.9656 807.976 22.599 806.988 21.9145L799.527 16.7481C794.764 13.45 797.098 5.98027 802.891 5.98027ZM770.651 5.98027C771.852 5.98027 773.024 6.34657 774.011 7.03027L781.499 12.2152C786.254 15.5079 783.924 22.9656 778.14 22.9656C776.941 22.9656 775.771 22.6004 774.784 21.9185L767.293 16.7387C762.532 13.4463 764.862 5.98027 770.651 5.98027ZM738.408 5.98027C739.609 5.98027 740.781 6.34657 741.769 7.03026L749.256 12.2152C754.011 15.5079 751.681 22.9656 745.897 22.9656C744.698 22.9656 743.528 22.6004 742.542 21.9185L735.051 16.7387C730.289 13.4463 732.619 5.98027 738.408 5.98027Z" fill="url(#paint26_linear_496_2546)"/>
<path d="M450.106 0L308.658 104L499.98 34.6431L450.106 0Z" fill="url(#paint27_linear_496_2546)"/>
<path d="M702.998 0L844.445 104L653.123 34.6431L702.998 0Z" fill="url(#paint28_linear_496_2546)"/>
<path d="M499.916 136.695H653.057" stroke="#69378F" stroke-width="0.7824" stroke-miterlimit="10" stroke-linecap="round" stroke-linejoin="round"/>
<path d="M475.881 629.199L682.888 629.199" stroke="#69378F" stroke-width="0.7824" stroke-miterlimit="10" stroke-linecap="round" stroke-linejoin="round"/>
<path d="M469.812 146.148C462.572 146.148 458.94 137.4 464.051 132.271L466.677 129.637C468.203 128.105 470.277 127.244 472.439 127.244C479.685 127.244 483.316 136.002 478.196 141.129L475.568 143.761C474.042 145.289 471.971 146.148 469.812 146.148Z" fill="url(#paint29_linear_496_2546)" fill-opacity="0.6"/>
<path d="M434.126 146.148C426.891 146.148 423.264 137.402 428.377 132.282L431.027 129.628C432.551 128.102 434.619 127.244 436.776 127.244C444.012 127.244 447.638 135.99 442.526 141.11L439.876 143.764C438.352 145.29 436.283 146.148 434.126 146.148Z" fill="url(#paint30_linear_496_2546)" fill-opacity="0.6"/>
<path d="M398.437 146.148C391.201 146.148 387.575 137.402 392.688 132.282L395.337 129.628C396.861 128.102 398.93 127.244 401.087 127.244C408.322 127.244 411.949 135.99 406.836 141.11L404.186 143.764C402.662 145.29 400.594 146.148 398.437 146.148Z" fill="url(#paint31_linear_496_2546)" fill-opacity="0.6"/>
<path d="M684.194 146.148C691.434 146.148 695.066 137.4 689.955 132.271L687.329 129.637C685.803 128.105 683.729 127.244 681.567 127.244C674.321 127.244 670.69 136.002 675.81 141.129L678.438 143.761C679.964 145.289 682.035 146.148 684.194 146.148Z" fill="url(#paint32_linear_496_2546)" fill-opacity="0.6"/>
<path d="M719.88 146.148C727.115 146.148 730.742 137.402 725.629 132.282L722.979 129.628C721.455 128.102 719.387 127.244 717.23 127.244C709.994 127.244 706.368 135.99 711.481 141.11L714.13 143.764C715.654 145.29 717.723 146.148 719.88 146.148Z" fill="url(#paint33_linear_496_2546)" fill-opacity="0.6"/>
<path d="M755.573 146.148C762.809 146.148 766.435 137.402 761.322 132.282L758.673 129.628C757.149 128.102 755.08 127.244 752.923 127.244C745.688 127.244 742.061 135.99 747.174 141.11L749.824 143.764C751.348 145.29 753.416 146.148 755.573 146.148Z" fill="url(#paint34_linear_496_2546)" fill-opacity="0.6"/>
<path d="M786.708 636.604C779.223 636.604 775.468 627.559 780.753 622.258L783.469 619.533C785.047 617.95 787.19 617.061 789.425 617.061C796.91 617.061 800.664 626.105 795.38 631.406L792.664 634.131C791.086 635.714 788.943 636.604 786.708 636.604Z" fill="url(#paint35_linear_496_2546)" fill-opacity="0.6"/>
<path d="M749.82 636.604C742.345 636.604 738.595 627.571 743.872 622.277L746.61 619.53C748.186 617.949 750.327 617.061 752.559 617.061C760.04 617.061 763.789 626.102 758.503 631.396L755.763 634.14C754.187 635.717 752.05 636.604 749.82 636.604Z" fill="url(#paint36_linear_496_2546)" fill-opacity="0.6"/>
<path d="M712.944 636.604C705.459 636.604 701.705 627.559 706.989 622.258L709.705 619.533C711.283 617.95 713.426 617.061 715.661 617.061C723.146 617.061 726.901 626.105 721.616 631.406L718.9 634.131C717.322 635.714 715.179 636.604 712.944 636.604Z" fill="url(#paint37_linear_496_2546)" fill-opacity="0.6"/>
<path d="M374.678 636.604C382.153 636.604 385.903 627.571 380.625 622.277L377.888 619.53C376.312 617.949 374.171 617.061 371.939 617.061C364.458 617.061 360.709 626.102 365.995 631.396L368.735 634.14C370.31 635.717 372.448 636.604 374.678 636.604Z" fill="url(#paint38_linear_496_2546)"/>
<path d="M411.546 636.604C419.026 636.604 422.775 627.562 417.489 622.268L414.749 619.524C413.174 617.947 411.036 617.061 408.807 617.061C401.331 617.061 397.581 626.093 402.859 631.387L405.597 634.134C407.173 635.715 409.313 636.604 411.546 636.604Z" fill="url(#paint39_linear_496_2546)"/>
<path d="M448.415 636.604C455.9 636.604 459.655 627.559 454.37 622.258L451.654 619.533C450.076 617.95 447.933 617.061 445.698 617.061C438.213 617.061 434.459 626.105 439.743 631.406L442.459 634.131C444.037 635.714 446.18 636.604 448.415 636.604Z" fill="url(#paint40_linear_496_2546)" fill-opacity="0.6"/>
<path d="M953.043 651.853L929.995 628.791C922.492 621.284 912.315 617.066 901.702 617.066H838.912C828.298 617.066 818.118 621.286 810.616 628.795L795.317 644.107H579.469H579.185H363.302L348.042 628.813C340.538 621.293 330.351 617.066 319.727 617.066H256.988C246.375 617.066 236.197 621.284 228.695 628.791L205.646 651.853L204.936 652.564V671.574L228.662 695.291C236.163 702.788 246.335 707 256.94 707H324.158C331.946 707 339.415 703.907 344.924 698.401L363.338 679.995H579.185H579.469H795.352L803.991 688.63L813.731 698.401C819.239 703.907 826.709 707 834.497 707H901.678C912.284 707 922.456 702.788 929.957 695.291L953.683 671.574L953.719 671.538V652.528L953.043 651.853Z" fill="url(#paint41_linear_496_2546)"/>
<defs>
<linearGradient id="paint0_linear_496_2546" x1="1264.5" y1="10" x2="105.165" y2="639.276" gradientUnits="userSpaceOnUse">
<stop stop-color="#775BB4"/>
<stop offset="0.151042" stop-color="#4A337B"/>
<stop offset="0.375" stop-color="#232358"/>
<stop offset="0.5929" stop-color="#00004E"/>
<stop offset="0.8258" stop-color="#130048"/>
<stop offset="1" stop-color="#0D0042"/>
</linearGradient>
<linearGradient id="paint1_linear_496_2546" x1="201.006" y1="84.4573" x2="35.0004" y2="84.4575" gradientUnits="userSpaceOnUse">
<stop offset="0.0733933" stop-color="#68378F"/>
<stop offset="1" stop-color="#FFA627"/>
</linearGradient>
<linearGradient id="paint2_linear_496_2546" x1="954.031" y1="670.66" x2="1120.04" y2="670.66" gradientUnits="userSpaceOnUse">
<stop offset="0.0733933" stop-color="#6C3791"/>
<stop offset="1" stop-color="#FFA627"/>
</linearGradient>
<linearGradient id="paint3_linear_496_2546" x1="19.8624" y1="522.976" x2="19.8624" y2="564.773" gradientUnits="userSpaceOnUse">
<stop stop-color="#303F71"/>
<stop offset="1" stop-color="#6C3791"/>
</linearGradient>
<linearGradient id="paint4_linear_496_2546" x1="19.8624" y1="487.3" x2="19.8624" y2="529.132" gradientUnits="userSpaceOnUse">
<stop stop-color="#303F71"/>
<stop offset="1" stop-color="#6C3791"/>
</linearGradient>
<linearGradient id="paint5_linear_496_2546" x1="19.8624" y1="451.625" x2="19.8624" y2="493.457" gradientUnits="userSpaceOnUse">
<stop stop-color="#303F71"/>
<stop offset="1" stop-color="#6C3791"/>
</linearGradient>
<linearGradient id="paint6_linear_496_2546" x1="71.5025" y1="200.398" x2="71.5033" y2="103.947" gradientUnits="userSpaceOnUse">
<stop stop-color="#6C3791"/>
<stop offset="1" stop-color="#FFA627"/>
</linearGradient>
<linearGradient id="paint7_linear_496_2546" x1="30.7448" y1="304.183" x2="49.5648" y2="301.351" gradientUnits="userSpaceOnUse">
<stop stop-color="#31349B"/>
<stop offset="0.9999" stop-color="#FFA627"/>
</linearGradient>
<linearGradient id="paint8_linear_496_2546" x1="30.7448" y1="268.509" x2="49.5648" y2="265.678" gradientUnits="userSpaceOnUse">
<stop stop-color="#31349B"/>
<stop offset="0.9999" stop-color="#FFA627"/>
</linearGradient>
<linearGradient id="paint9_linear_496_2546" x1="30.7448" y1="232.837" x2="49.5648" y2="230.006" gradientUnits="userSpaceOnUse">
<stop stop-color="#31349B"/>
<stop offset="0.9999" stop-color="#FFA627"/>
</linearGradient>
<linearGradient id="paint10_linear_496_2546" x1="14.9216" y1="190.092" x2="14.927" y2="454.055" gradientUnits="userSpaceOnUse">
<stop stop-color="#303F71"/>
<stop offset="1" stop-color="#6C3791"/>
</linearGradient>
<linearGradient id="paint11_linear_496_2546" x1="43.894" y1="534.678" x2="43.8797" y2="301.07" gradientUnits="userSpaceOnUse">
<stop offset="0.0733933" stop-color="#6C3791"/>
<stop offset="1" stop-color="#FFA627"/>
</linearGradient>
<linearGradient id="paint12_linear_496_2546" x1="31.0019" y1="670.66" x2="204.508" y2="670.66" gradientUnits="userSpaceOnUse">
<stop offset="0.0733933" stop-color="#6C3791"/>
<stop offset="1" stop-color="#FFA627"/>
</linearGradient>
<linearGradient id="paint13_linear_496_2546" x1="919.5" y1="85" x2="1053.98" y2="-12.0374" gradientUnits="userSpaceOnUse">
<stop stop-color="#6C3791"/>
<stop offset="0.9999" stop-color="#FFA627"/>
</linearGradient>
<linearGradient id="paint14_linear_496_2546" x1="1081.54" y1="537.727" x2="1081.54" y2="646.172" gradientUnits="userSpaceOnUse">
<stop offset="0.0733933" stop-color="#6C3791"/>
<stop offset="1" stop-color="#FFA627"/>
</linearGradient>
<linearGradient id="paint15_linear_496_2546" x1="1082.54" y1="200.398" x2="1082.54" y2="103.947" gradientUnits="userSpaceOnUse">
<stop offset="0.0733933" stop-color="#6C3791"/>
<stop offset="1" stop-color="#FFA627"/>
</linearGradient>
<linearGradient id="paint16_linear_496_2546" x1="72.5053" y1="537.727" x2="72.5063" y2="648.67" gradientUnits="userSpaceOnUse">
<stop offset="0.0733933" stop-color="#6C3791"/>
<stop offset="1" stop-color="#FFA627"/>
</linearGradient>
<linearGradient id="paint17_linear_496_2546" x1="1134.13" y1="521.98" x2="1134.13" y2="563.777" gradientUnits="userSpaceOnUse">
<stop stop-color="#303F71"/>
<stop offset="1" stop-color="#6C3791"/>
</linearGradient>
<linearGradient id="paint18_linear_496_2546" x1="1134.13" y1="486.298" x2="1134.13" y2="528.13" gradientUnits="userSpaceOnUse">
<stop stop-color="#303F71"/>
<stop offset="1" stop-color="#6C3791"/>
</linearGradient>
<linearGradient id="paint19_linear_496_2546" x1="1134.13" y1="450.627" x2="1134.13" y2="492.458" gradientUnits="userSpaceOnUse">
<stop stop-color="#303F71"/>
<stop offset="1" stop-color="#6C3791"/>
</linearGradient>
<linearGradient id="paint20_linear_496_2546" x1="1107.17" y1="304.183" x2="1125.99" y2="301.351" gradientUnits="userSpaceOnUse">
<stop stop-color="#31349B"/>
<stop offset="0.9999" stop-color="#FFA627"/>
</linearGradient>
<linearGradient id="paint21_linear_496_2546" x1="1107.17" y1="268.509" x2="1125.99" y2="265.678" gradientUnits="userSpaceOnUse">
<stop stop-color="#31349B"/>
<stop offset="0.9999" stop-color="#FFA627"/>
</linearGradient>
<linearGradient id="paint22_linear_496_2546" x1="1107.17" y1="232.837" x2="1125.99" y2="230.006" gradientUnits="userSpaceOnUse">
<stop stop-color="#31349B"/>
<stop offset="0.9999" stop-color="#FFA627"/>
</linearGradient>
<linearGradient id="paint23_linear_496_2546" x1="1139.09" y1="190.092" x2="1139.1" y2="454.055" gradientUnits="userSpaceOnUse">
<stop stop-color="#303F71"/>
<stop offset="1" stop-color="#6C3791"/>
</linearGradient>
<linearGradient id="paint24_linear_496_2546" x1="1110.44" y1="534.678" x2="1110.43" y2="301.07" gradientUnits="userSpaceOnUse">
<stop offset="0.0733933" stop-color="#6C3791"/>
<stop offset="1" stop-color="#FFA627"/>
</linearGradient>
<linearGradient id="paint25_linear_496_2546" x1="400.973" y1="121.55" x2="407.441" y2="69.759" gradientUnits="userSpaceOnUse">
<stop stop-color="#6C3791"/>
<stop offset="0.9999" stop-color="#FFA627"/>
</linearGradient>
<linearGradient id="paint26_linear_496_2546" x1="576.694" y1="-0.437947" x2="576.694" y2="103.586" gradientUnits="userSpaceOnUse">
<stop stop-color="#303F71"/>
<stop offset="1" stop-color="#6C3791"/>
</linearGradient>
<linearGradient id="paint27_linear_496_2546" x1="322.951" y1="103.518" x2="464.587" y2="16.8139" gradientUnits="userSpaceOnUse">
<stop stop-color="#303F71"/>
<stop offset="0.9999" stop-color="#FFA627"/>
</linearGradient>
<linearGradient id="paint28_linear_496_2546" x1="843.994" y1="103.518" x2="679.804" y2="18.3001" gradientUnits="userSpaceOnUse">
<stop stop-color="#31349B"/>
<stop offset="0.9999" stop-color="#FFA627"/>
</linearGradient>
<linearGradient id="paint29_linear_496_2546" x1="453.346" y1="146.06" x2="480.953" y2="125.728" gradientUnits="userSpaceOnUse">
<stop stop-color="#31349B"/>
<stop offset="0.9999" stop-color="#FFA627"/>
</linearGradient>
<linearGradient id="paint30_linear_496_2546" x1="417.657" y1="146.06" x2="445.263" y2="125.728" gradientUnits="userSpaceOnUse">
<stop stop-color="#31349B"/>
<stop offset="0.9999" stop-color="#FFA627"/>
</linearGradient>
<linearGradient id="paint31_linear_496_2546" x1="381.967" y1="146.06" x2="409.574" y2="125.728" gradientUnits="userSpaceOnUse">
<stop stop-color="#31349B"/>
<stop offset="0.9999" stop-color="#FFA627"/>
</linearGradient>
<linearGradient id="paint32_linear_496_2546" x1="665.071" y1="146.06" x2="692.677" y2="125.728" gradientUnits="userSpaceOnUse">
<stop stop-color="#31349B"/>
<stop offset="0.9999" stop-color="#FFA627"/>
</linearGradient>
<linearGradient id="paint33_linear_496_2546" x1="700.76" y1="146.06" x2="728.367" y2="125.728" gradientUnits="userSpaceOnUse">
<stop stop-color="#31349B"/>
<stop offset="0.9999" stop-color="#FFA627"/>
</linearGradient>
<linearGradient id="paint34_linear_496_2546" x1="736.454" y1="146.06" x2="764.06" y2="125.727" gradientUnits="userSpaceOnUse">
<stop stop-color="#31349B"/>
<stop offset="0.9999" stop-color="#FFA627"/>
</linearGradient>
<linearGradient id="paint35_linear_496_2546" x1="769.682" y1="636.513" x2="798.217" y2="615.511" gradientUnits="userSpaceOnUse">
<stop stop-color="#31349B"/>
<stop offset="0.9999" stop-color="#FFA627"/>
</linearGradient>
<linearGradient id="paint36_linear_496_2546" x1="732.821" y1="636.513" x2="761.356" y2="615.511" gradientUnits="userSpaceOnUse">
<stop stop-color="#31349B"/>
<stop offset="0.9999" stop-color="#FFA627"/>
</linearGradient>
<linearGradient id="paint37_linear_496_2546" x1="695.919" y1="636.513" x2="724.453" y2="615.511" gradientUnits="userSpaceOnUse">
<stop stop-color="#31349B"/>
<stop offset="0.9999" stop-color="#FFA627"/>
</linearGradient>
<linearGradient id="paint38_linear_496_2546" x1="344.493" y1="636.676" x2="379.499" y2="630.773" gradientUnits="userSpaceOnUse">
<stop stop-color="#31349B"/>
<stop offset="0.9999" stop-color="#FFA627"/>
</linearGradient>
<linearGradient id="paint39_linear_496_2546" x1="375.994" y1="626.681" x2="418.791" y2="625.468" gradientUnits="userSpaceOnUse">
<stop stop-color="#31349B"/>
<stop offset="0.9999" stop-color="#FFA627"/>
</linearGradient>
<linearGradient id="paint40_linear_496_2546" x1="428.673" y1="636.513" x2="457.207" y2="615.511" gradientUnits="userSpaceOnUse">
<stop stop-color="#31349B"/>
<stop offset="0.9999" stop-color="#FFA627"/>
</linearGradient>
<linearGradient id="paint41_linear_496_2546" x1="579.518" y1="616.688" x2="579.518" y2="706.642" gradientUnits="userSpaceOnUse">
<stop stop-color="#303F71"/>
<stop offset="1" stop-color="#6C3791"/>
</linearGradient>
</defs>
</svg>
