<svg width="100" height="100" viewBox="0 0 100 100" fill="none" xmlns="http://www.w3.org/2000/svg">
<path d="M1.77885 1.66224C7.01061 -3.56987 21.0621 4.52863 32.0722 12.3768C37.5042 9.76908 43.5663 8.27539 49.9871 8.27539C72.9918 8.27539 91.7077 26.9925 91.7077 49.9987C91.7077 56.42 90.2141 62.4824 87.6024 67.9147C95.5085 79.0006 103.561 92.9988 98.3372 98.2226C97.1523 99.4075 95.5168 100 93.4392 100C89.1002 100 82.8338 97.4215 74.7107 92.2854C72.4995 90.8876 70.1882 89.2938 67.831 87.5998C62.4115 90.1992 56.387 91.7179 49.9871 91.7179C26.9823 91.7179 8.26641 73.0008 8.26641 49.9946C8.26641 43.5942 9.78921 37.5694 12.3842 32.1495C10.6904 29.7963 9.10083 27.4848 7.70736 25.2818C0.110023 13.2655 -1.88006 5.32138 1.77885 1.66224ZM14.5746 28.0397C16.9068 31.3651 19.6103 34.9366 22.66 38.6875C22.7018 38.7376 22.7435 38.7877 22.7852 38.8419C23.6739 39.9309 24.6001 41.0407 25.5471 42.1589C25.8392 42.5052 26.1312 42.8474 26.4274 43.1937C27.2368 44.1408 28.067 45.0962 28.9181 46.0642C29.4355 46.6525 29.9653 47.2408 30.4994 47.8291C31.2086 48.6177 31.9137 49.4063 32.648 50.2032C33.4448 51.071 34.2667 51.9389 35.0886 52.8109C35.6268 53.3783 36.1483 53.9458 36.699 54.5174C38.1175 55.9986 39.5611 57.4756 41.038 58.9526C42.5107 60.4254 43.9876 61.8649 45.4646 63.2835C46.0528 63.8509 46.6369 64.385 47.221 64.9399C48.0763 65.7451 48.9274 66.5504 49.7826 67.3348C50.5795 68.0691 51.368 68.7742 52.1566 69.4835C52.7532 70.0176 53.3456 70.5558 53.9422 71.0774C54.8851 71.9077 55.8196 72.7213 56.75 73.514C57.1297 73.8395 57.5093 74.1607 57.889 74.482C58.9654 75.3916 60.0334 76.2844 61.0806 77.1398C61.2016 77.2399 61.3268 77.3359 61.4477 77.436C65.0941 80.3984 68.5736 83.0311 71.8195 85.3134C73.5676 86.5401 75.2907 87.7083 76.9511 88.7597C89.0293 96.3951 94.2235 96.4493 95.4 95.2727C96.902 93.7707 95.2623 86.3064 85.3579 72.012C82.7461 76.1801 79.4419 79.8768 75.5744 82.8893C67.2302 77.1648 56.4454 68.4572 43.9918 56.0027C31.534 43.5441 22.8394 32.7503 17.1195 24.4015C20.1318 20.5379 23.824 17.2459 27.9836 14.634C13.6817 4.73308 6.22209 3.12673 4.73684 4.61208C3.56448 5.78451 3.61455 10.9874 11.2411 23.0496C12.2507 24.6643 13.3855 26.3416 14.5746 28.0397Z" fill="url(#paint0_linear_1782_13599)"/>
<defs>
<linearGradient id="paint0_linear_1782_13599" x1="98.2377" y1="99.9998" x2="2.31024e-08" y2="99.9998" gradientUnits="userSpaceOnUse">
<stop stop-color="#F47B0B"/>
<stop offset="1" stop-color="#E89E0F" stop-opacity="0.92"/>
</linearGradient>
</defs>
</svg>
