<svg width="172" height="172" viewBox="0 0 172 172" fill="none" xmlns="http://www.w3.org/2000/svg">
<path d="M3.05962 2.85905C12.0583 -6.14018 36.2269 7.78925 55.1642 21.2881C64.5073 16.8028 74.934 14.2337 85.9778 14.2337C125.546 14.2337 157.737 46.4271 157.737 85.9978C157.737 97.0423 155.168 107.47 150.676 116.813C164.275 135.881 178.124 159.958 169.14 168.943C167.102 170.981 164.289 172 160.715 172C153.252 172 142.474 167.565 128.502 158.731C124.699 156.327 120.724 153.585 116.669 150.672C107.348 155.143 96.9857 157.755 85.9778 157.755C46.4096 157.755 14.2182 125.561 14.2182 85.9907C14.2182 74.982 16.8374 64.6193 21.3009 55.2971C18.3875 51.2496 15.6534 47.2739 13.2567 43.4847C0.189255 22.8167 -3.23369 9.15277 3.05962 2.85905ZM25.0683 48.2284C29.0796 53.948 33.7297 60.091 38.9753 66.5426C39.047 66.6287 39.1188 66.7148 39.1906 66.8081C40.719 68.6811 42.3121 70.5901 43.941 72.5134C44.4434 73.109 44.9457 73.6975 45.4552 74.2931C46.8473 75.9221 48.2753 77.5656 49.7392 79.2305C50.629 80.2424 51.5404 81.2542 52.4589 82.2661C53.6788 83.6224 54.8915 84.9788 56.1545 86.3495C57.5251 87.8422 58.9388 89.3349 60.3524 90.8347C61.2781 91.8107 62.1751 92.7867 63.1224 93.7699C65.5622 96.3175 68.0451 98.858 70.5854 101.398C73.1185 103.932 75.6588 106.408 78.199 108.848C79.2109 109.824 80.2155 110.742 81.2201 111.697C82.6912 113.082 84.1551 114.467 85.6262 115.816C86.9968 117.079 88.353 118.292 89.7093 119.512C90.7354 120.43 91.7544 121.356 92.7806 122.253C94.4023 123.681 96.0098 125.081 97.61 126.444C98.263 127.004 98.916 127.556 99.569 128.109C101.42 129.673 103.257 131.209 105.059 132.68C105.267 132.853 105.482 133.018 105.69 133.19C111.962 138.285 117.947 142.814 123.53 146.739C126.536 148.849 129.5 150.858 132.356 152.667C153.13 165.8 162.064 165.893 164.088 163.869C166.671 161.286 163.851 148.447 146.816 123.861C142.323 131.03 136.64 137.388 129.988 142.57C115.636 132.723 97.0862 117.746 75.6659 96.3247C54.2385 74.8959 39.2838 56.3305 29.4456 41.9705C34.6266 35.3252 40.9774 29.663 48.1318 25.1705C23.5326 8.14089 10.702 5.37797 8.14737 7.93278C6.13092 9.94935 6.21704 18.8983 19.3347 39.6454C21.0713 42.4226 23.0231 45.3076 25.0683 48.2284Z" fill="url(#paint0_linear_1769_11513)"/>
<defs>
<linearGradient id="paint0_linear_1769_11513" x1="168.969" y1="172" x2="3.97361e-08" y2="172" gradientUnits="userSpaceOnUse">
<stop stop-color="#F47B0B"/>
<stop offset="1" stop-color="#E89E0F" stop-opacity="0.92"/>
</linearGradient>
</defs>
</svg>
