<svg width="22" height="23" viewBox="0 0 22 23" fill="none" xmlns="http://www.w3.org/2000/svg">
<path d="M3.58044 14.4306C3.46127 14.3123 3.28527 14.2674 3.12485 14.316C2.5281 14.4947 1.98452 14.8266 1.50969 15.3014C-0.0138129 16.8267 -0.0055631 21.5173 0.000853562 22.0471C0.00360356 22.2956 0.20527 22.4981 0.453687 22.5009C0.487604 22.5009 0.539854 22.5009 0.60677 22.5009C1.57844 22.5009 5.77494 22.4166 7.19944 20.9911C7.67519 20.5154 8.0061 19.9727 8.18485 19.376C8.23252 19.2146 8.18852 19.0396 8.06935 18.9204L3.58044 14.4306ZM2.29252 11.5009H5.8776C6.0316 11.5009 6.1746 11.4239 6.25985 11.2956C6.71177 10.6108 7.4451 9.53739 8.36452 8.30722C8.47269 8.16147 8.48644 7.96622 8.39752 7.81039C8.30952 7.65089 8.1326 7.55464 7.95752 7.57664L5.00219 7.83697C4.89494 7.84614 4.7941 7.89381 4.71802 7.96989L1.96802 10.7199C1.83694 10.851 1.79752 11.0481 1.86902 11.2195C1.94052 11.3909 2.10735 11.5009 2.29252 11.5009ZM14.1945 14.1363C12.9625 15.0576 11.8891 15.79 11.2062 16.241C11.0769 16.3253 10.9999 16.4692 10.9999 16.6232V20.2083C10.9999 20.3935 11.1118 20.5612 11.2832 20.6318C11.34 20.6556 11.3996 20.6666 11.4583 20.6666C11.5774 20.6666 11.6948 20.6199 11.7828 20.5328L14.5328 17.7828C14.6089 17.7067 14.6556 17.6068 14.6657 17.4986L14.926 14.5433C14.9425 14.3636 14.8509 14.1904 14.6923 14.1024C14.5346 14.0153 14.3412 14.0263 14.1945 14.1363ZM21.8661 0.634723C21.7744 0.542139 21.6424 0.492639 21.5169 0.500889C21.3115 0.511889 16.4541 0.814389 12.9689 4.29956C9.84127 7.42722 7.01244 11.8034 6.55685 12.5211L4.83719 13.381C4.70519 13.447 4.61352 13.5716 4.58969 13.7174C4.56585 13.8631 4.61352 14.0107 4.71802 14.1152L8.38469 17.7819C8.47177 17.869 8.58819 17.9157 8.70919 17.9157C8.73302 17.9157 8.75869 17.9139 8.78252 17.9102C8.92735 17.8864 9.05294 17.7947 9.11894 17.6627L9.97969 15.9431C10.6984 15.4866 15.0736 12.6586 18.2013 9.53097C21.6864 6.04672 21.9899 1.18839 22.0009 0.983056C22.0064 0.853806 21.9578 0.727306 21.8661 0.634723ZM16.0425 7.83422C15.2835 7.83422 14.6675 7.21639 14.6675 6.45922C14.6675 5.70022 15.2835 5.08422 16.0425 5.08422C16.8015 5.08422 17.4175 5.70022 17.4175 6.45922C17.4175 7.21639 16.8015 7.83422 16.0425 7.83422Z" fill="white"/>
</svg>
