<svg width="24" height="25" viewBox="0 0 24 25" fill="none" xmlns="http://www.w3.org/2000/svg">
<path d="M3.90593 15.695C3.77593 15.566 3.58393 15.517 3.40893 15.57C2.75793 15.765 2.16493 16.127 1.64693 16.645C-0.0150686 18.309 -0.00606884 23.426 0.000931158 24.004C0.00393116 24.275 0.223931 24.496 0.494931 24.499C0.531931 24.499 0.588931 24.499 0.661931 24.499C1.72193 24.499 6.29993 24.407 7.85393 22.852C8.37293 22.333 8.73393 21.741 8.92893 21.09C8.98093 20.914 8.93293 20.723 8.80293 20.593L3.90593 15.695ZM2.50093 12.499H6.41193C6.57993 12.499 6.73593 12.415 6.82893 12.275C7.32193 11.528 8.12193 10.357 9.12493 9.01502C9.24293 8.85602 9.25793 8.64302 9.16093 8.47302C9.06493 8.29902 8.87193 8.19402 8.68093 8.21802L5.45693 8.50202C5.33993 8.51202 5.22993 8.56402 5.14693 8.64702L2.14693 11.647C2.00393 11.79 1.96093 12.005 2.03893 12.192C2.11693 12.379 2.29893 12.499 2.50093 12.499ZM15.4849 15.374C14.1409 16.379 12.9699 17.178 12.2249 17.67C12.0839 17.762 11.9999 17.919 11.9999 18.087V21.998C11.9999 22.2 12.1219 22.383 12.3089 22.46C12.3709 22.486 12.4359 22.498 12.4999 22.498C12.6299 22.498 12.7579 22.447 12.8539 22.352L15.8539 19.352C15.9369 19.269 15.9879 19.16 15.9989 19.042L16.2829 15.818C16.3009 15.622 16.2009 15.433 16.0279 15.337C15.8559 15.242 15.6449 15.254 15.4849 15.374ZM23.8539 0.645017C23.7539 0.544017 23.6099 0.490017 23.4729 0.499017C23.2489 0.511017 17.9499 0.841017 14.1479 4.64302C10.7359 8.05502 7.64993 12.829 7.15293 13.612L5.27693 14.55C5.13293 14.622 5.03293 14.758 5.00693 14.917C4.98093 15.076 5.03293 15.237 5.14693 15.351L9.14693 19.351C9.24193 19.446 9.36893 19.497 9.50093 19.497C9.52693 19.497 9.55493 19.495 9.58093 19.491C9.73893 19.465 9.87593 19.365 9.94793 19.221L10.8869 17.345C11.6709 16.847 16.4439 13.762 19.8559 10.35C23.6579 6.54902 23.9889 1.24902 24.0009 1.02502C24.0069 0.884017 23.9539 0.746017 23.8539 0.645017ZM17.5009 8.49902C16.6729 8.49902 16.0009 7.82502 16.0009 6.99902C16.0009 6.17102 16.6729 5.49902 17.5009 5.49902C18.3289 5.49902 19.0009 6.17102 19.0009 6.99902C19.0009 7.82502 18.3289 8.49902 17.5009 8.49902Z" fill="white"/>
</svg>
