<svg width="24" height="32" viewBox="0 0 24 32" fill="none" xmlns="http://www.w3.org/2000/svg">
<path d="M11.9993 0C5.75002 0 0.666016 5.084 0.666016 11.3333C0.666016 17.3787 11.0273 31.152 11.4687 31.736C11.5927 31.9027 11.7913 32 11.9993 32C12.2073 32 12.406 31.9027 12.53 31.736C12.9713 31.152 23.3327 17.3787 23.3327 11.3333C23.3327 5.084 18.2487 0 11.9993 0ZM11.9993 17.3333C8.69135 17.3333 5.99935 14.6413 5.99935 11.3333C5.99935 8.02533 8.69135 5.33333 11.9993 5.33333C15.3073 5.33333 17.9993 8.02533 17.9993 11.3333C17.9993 14.6413 15.3073 17.3333 11.9993 17.3333Z" fill="white"/>
</svg>
