<svg width="32" height="33" viewBox="0 0 32 33" fill="none" xmlns="http://www.w3.org/2000/svg">
<path d="M5.20791 20.7607C5.03457 20.5887 4.77858 20.5233 4.54524 20.594C3.67724 20.854 2.88658 21.3367 2.19591 22.0273C-0.0200915 24.246 -0.00809179 31.0687 0.00124154 31.8393C0.00524154 32.2007 0.298575 32.4953 0.659908 32.4993C0.709242 32.4993 0.785242 32.4993 0.882575 32.4993C2.29591 32.4993 8.39991 32.3767 10.4719 30.3033C11.1639 29.6113 11.6452 28.822 11.9052 27.954C11.9746 27.7193 11.9106 27.4647 11.7372 27.2913L5.20791 20.7607ZM3.33458 16.4993H8.54924C8.77324 16.4993 8.98124 16.3873 9.10524 16.2007C9.76258 15.2047 10.8292 13.6433 12.1666 11.854C12.3239 11.642 12.3439 11.358 12.2146 11.1313C12.0866 10.8993 11.8292 10.7593 11.5746 10.7913L7.27591 11.17C7.11991 11.1833 6.97324 11.2527 6.86258 11.3633L2.86258 15.3633C2.67191 15.554 2.61458 15.8407 2.71858 16.09C2.82258 16.3393 3.06524 16.4993 3.33458 16.4993ZM20.6466 20.3327C18.8546 21.6727 17.2932 22.738 16.2999 23.394C16.1119 23.5167 15.9999 23.726 15.9999 23.95V29.1647C15.9999 29.434 16.1626 29.678 16.4119 29.7807C16.4946 29.8153 16.5812 29.8313 16.6666 29.8313C16.8399 29.8313 17.0106 29.7633 17.1386 29.6367L21.1386 25.6367C21.2492 25.526 21.3172 25.3807 21.3319 25.2233L21.7106 20.9247C21.7346 20.6633 21.6012 20.4113 21.3706 20.2833C21.1412 20.1567 20.8599 20.1727 20.6466 20.3327ZM31.8052 0.694007C31.6719 0.55934 31.4799 0.48734 31.2972 0.49934C30.9986 0.51534 23.9332 0.955341 18.8639 6.02467C14.3146 10.574 10.1999 16.9393 9.53724 17.9833L7.03591 19.234C6.84391 19.33 6.71058 19.5113 6.67591 19.7233C6.64124 19.9353 6.71058 20.15 6.86258 20.302L12.1959 25.6353C12.3226 25.762 12.4919 25.83 12.6679 25.83C12.7026 25.83 12.7399 25.8273 12.7746 25.822C12.9852 25.7873 13.1679 25.654 13.2639 25.462L14.5159 22.9607C15.5612 22.2967 21.9252 18.1833 26.4746 13.634C31.5439 8.56601 31.9852 1.49934 32.0012 1.20067C32.0092 1.01267 31.9386 0.828674 31.8052 0.694007ZM23.3346 11.166C22.2306 11.166 21.3346 10.2673 21.3346 9.16601C21.3346 8.06201 22.2306 7.16601 23.3346 7.16601C24.4386 7.16601 25.3346 8.06201 25.3346 9.16601C25.3346 10.2673 24.4386 11.166 23.3346 11.166Z" fill="white"/>
</svg>
